<ttFont>
<head>
    <!-- Most of this table will be recalculated by the compiler -->
    <tableVersion value="1.0"/>
    <fontRevision value="1.0"/>
    <checkSumAdjustment value="0xd2fd2562"/>
    <magicNumber value="0x5f0f3cf5"/>
    <flags value="00000000 00011011"/>
    <unitsPerEm value="1000"/>
    <created value="Sat Dec  6 13:43:39 2025"/>
    <modified value="Sat Dec  6 13:45:22 2025"/>
    <xMin value="-14"/>
    <yMin value="-250"/>
    <xMax value="1054"/>
    <yMax value="750"/>
    <macStyle value="00000000 00000000"/>
    <lowestRecPPEM value="6"/>
    <fontDirectionHint value="2"/>
    <indexToLocFormat value="0"/>
    <glyphDataFormat value="0"/>
  </head>
    <TTGlyph name="A" xMin="60" yMin="0" xMax="745" yMax="716">
      <contour>
        <pt x="642" y="71" on="1"/>
        <pt x="646" y="59" on="0"/>
        <pt x="657" y="43" on="0"/>
        <pt x="675" y="34" on="0"/>
        <pt x="705" y="31" on="0"/>
        <pt x="727" y="31" on="1"/>
        <pt x="745" y="31" on="1"/>
        <pt x="745" y="0" on="1"/>
        <pt x="713" y="2" on="0"/>
        <pt x="646" y="3" on="0"/>
        <pt x="614" y="3" on="1"/>
        <pt x="600" y="3" on="0"/>
        <pt x="561" y="3" on="0"/>
        <pt x="521" y="2" on="0"/>
        <pt x="484" y="1" on="0"/>
        <pt x="470" y="0" on="1"/>
        <pt x="470" y="31" on="1"/>
        <pt x="480" y="31" on="0"/>
        <pt x="509" y="32" on="0"/>
        <pt x="535" y="38" on="0"/>
        <pt x="553" y="50" on="0"/>
        <pt x="553" y="61" on="1"/>
        <pt x="553" y="64" on="0"/>
        <pt x="551" y="72" on="0"/>
        <pt x="550" y="75" on="1"/>
        <pt x="497" y="228" on="1"/>
        <pt x="250" y="228" on="1"/>
        <pt x="204" y="97" on="1"/>
        <pt x="203" y="95" on="0"/>
        <pt x="202" y="84" on="0"/>
        <pt x="202" y="82" on="1"/>
        <pt x="202" y="62" on="0"/>
        <pt x="239" y="31" on="0"/>
        <pt x="277" y="31" on="1"/>
        <pt x="277" y="0" on="1"/>
        <pt x="265" y="0" on="0"/>
        <pt x="235" y="1" on="0"/>
        <pt x="203" y="2" on="0"/>
        <pt x="174" y="3" on="0"/>
        <pt x="162" y="3" on="1"/>
        <pt x="135" y="3" on="0"/>
        <pt x="77" y="1" on="0"/>
        <pt x="60" y="0" on="1"/>
        <pt x="60" y="31" on="1"/>
        <pt x="101" y="32" on="0"/>
        <pt x="158" y="60" on="0"/>
        <pt x="172" y="98" on="1"/>
        <pt x="379" y="696" on="1"/>
        <pt x="383" y="707" on="0"/>
        <pt x="391" y="716" on="0"/>
        <pt x="403" y="716" on="1"/>
        <pt x="415" y="716" on="0"/>
        <pt x="422" y="706" on="0"/>
        <pt x="426" y="696" on="1"/>
      </contour>
      <contour>
        <pt x="261" y="259" on="1"/>
        <pt x="486" y="259" on="1"/>
        <pt x="373" y="584" on="1"/>
      </contour>
    </TTGlyph>
    <TTGlyph name="AE" xMin="60" yMin="0" xMax="901" yMax="683">
      <contour>
        <pt x="859" y="0" on="1"/>
        <pt x="367" y="0" on="1"/>
        <pt x="367" y="31" on="1"/>
        <pt x="392" y="31" on="0"/>
        <pt x="422" y="32" on="0"/>
        <pt x="439" y="41" on="0"/>
        <pt x="444" y="59" on="0"/>
        <pt x="444" y="76" on="1"/>
        <pt x="444" y="313" on="1"/>
        <pt x="283" y="313" on="1"/>
        <pt x="208" y="103" on="1"/>
        <pt x="204" y="93" on="0"/>
        <pt x="203" y="87" on="0"/>
        <pt x="203" y="81" on="1"/>
        <pt x="203" y="62" on="0"/>
        <pt x="239" y="32" on="0"/>
        <pt x="277" y="31" on="1"/>
        <pt x="277" y="0" on="1"/>
        <pt x="265" y="0" on="0"/>
        <pt x="235" y="1" on="0"/>
        <pt x="203" y="2" on="0"/>
        <pt x="174" y="3" on="0"/>
        <pt x="162" y="3" on="1"/>
        <pt x="132" y="3" on="0"/>
        <pt x="77" y="1" on="0"/>
        <pt x="60" y="0" on="1"/>
        <pt x="60" y="31" on="1"/>
        <pt x="113" y="31" on="0"/>
        <pt x="162" y="69" on="0"/>
        <pt x="173" y="98" on="1"/>
        <pt x="371" y="651" on="1"/>
        <pt x="361" y="651" on="0"/>
        <pt x="341" y="652" on="0"/>
        <pt x="331" y="652" on="1"/>
        <pt x="286" y="652" on="1"/>
        <pt x="286" y="683" on="1"/>
        <pt x="845" y="683" on="1"/>
        <pt x="873" y="458" on="1"/>
        <pt x="848" y="458" on="1"/>
        <pt x="840" y="527" on="0"/>
        <pt x="814" y="605" on="0"/>
        <pt x="764" y="643" on="0"/>
        <pt x="685" y="652" on="0"/>
        <pt x="623" y="652" on="1"/>
        <pt x="606" y="652" on="0"/>
        <pt x="563" y="652" on="0"/>
        <pt x="558" y="651" on="1"/>
        <pt x="538" y="649" on="0"/>
        <pt x="527" y="636" on="0"/>
        <pt x="527" y="612" on="1"/>
        <pt x="527" y="344" on="1"/>
        <pt x="611" y="344" on="1"/>
        <pt x="647" y="344" on="0"/>
        <pt x="688" y="357" on="0"/>
        <pt x="709" y="386" on="0"/>
        <pt x="714" y="430" on="0"/>
        <pt x="714" y="461" on="1"/>
        <pt x="739" y="461" on="1"/>
        <pt x="739" y="196" on="1"/>
        <pt x="714" y="196" on="1"/>
        <pt x="714" y="227" on="0"/>
        <pt x="709" y="271" on="0"/>
        <pt x="688" y="300" on="0"/>
        <pt x="647" y="313" on="0"/>
        <pt x="611" y="313" on="1"/>
        <pt x="527" y="313" on="1"/>
        <pt x="527" y="71" on="1"/>
        <pt x="527" y="59" on="0"/>
        <pt x="529" y="43" on="0"/>
        <pt x="539" y="34" on="0"/>
        <pt x="558" y="31" on="0"/>
        <pt x="576" y="31" on="1"/>
        <pt x="671" y="31" on="1"/>
        <pt x="734" y="31" on="0"/>
        <pt x="807" y="61" on="0"/>
        <pt x="848" y="118" on="0"/>
        <pt x="867" y="203" on="0"/>
        <pt x="876" y="258" on="1"/>
        <pt x="901" y="258" on="1"/>
      </contour>
      <contour>
        <pt x="294" y="344" on="1"/>
        <pt x="444" y="344" on="1"/>
        <pt x="444" y="604" on="1"/>
        <pt x="444" y="610" on="0"/>
        <pt x="443" y="625" on="0"/>
        <pt x="435" y="638" on="0"/>
        <pt x="418" y="648" on="0"/>
        <pt x="403" y="648" on="1"/>
      </contour>
    </TTGlyph>
    <TTGlyph name="B" xMin="64" yMin="0" xMax="679" yMax="683">
      <contour>
        <pt x="430" y="683" on="1"/>
        <pt x="479" y="683" on="0"/>
        <pt x="560" y="655" on="0"/>
        <pt x="619" y="608" on="0"/>
        <pt x="652" y="547" on="0"/>
        <pt x="652" y="514" on="1"/>
        <pt x="652" y="486" on="0"/>
        <pt x="627" y="436" on="0"/>
        <pt x="583" y="394" on="0"/>
        <pt x="522" y="364" on="0"/>
        <pt x="486" y="357" on="1"/>
        <pt x="528" y="353" on="0"/>
        <pt x="598" y="321" on="0"/>
        <pt x="650" y="275" on="0"/>
        <pt x="679" y="216" on="0"/>
        <pt x="679" y="183" on="1"/>
        <pt x="679" y="148" on="0"/>
        <pt x="647" y="82" on="0"/>
        <pt x="588" y="31" on="0"/>
        <pt x="506" y="0" on="0"/>
        <pt x="456" y="0" on="1"/>
        <pt x="64" y="0" on="1"/>
        <pt x="64" y="31" on="1"/>
        <pt x="88" y="31" on="1"/>
        <pt x="117" y="31" on="0"/>
        <pt x="149" y="36" on="0"/>
        <pt x="164" y="46" on="0"/>
        <pt x="167" y="65" on="0"/>
        <pt x="167" y="78" on="1"/>
        <pt x="167" y="605" on="1"/>
        <pt x="167" y="619" on="0"/>
        <pt x="164" y="637" on="0"/>
        <pt x="149" y="647" on="0"/>
        <pt x="117" y="652" on="0"/>
        <pt x="88" y="652" on="1"/>
        <pt x="64" y="652" on="1"/>
        <pt x="64" y="683" on="1"/>
      </contour>
      <contour>
        <pt x="395" y="366" on="1"/>
        <pt x="437" y="366" on="0"/>
        <pt x="497" y="394" on="0"/>
        <pt x="536" y="438" on="0"/>
        <pt x="555" y="490" on="0"/>
        <pt x="555" y="514" on="1"/>
        <pt x="555" y="534" on="0"/>
        <pt x="541" y="582" on="0"/>
        <pt x="510" y="624" on="0"/>
        <pt x="459" y="652" on="0"/>
        <pt x="423" y="652" on="1"/>
        <pt x="299" y="652" on="1"/>
        <pt x="281" y="652" on="0"/>
        <pt x="262" y="649" on="0"/>
        <pt x="252" y="640" on="0"/>
        <pt x="250" y="624" on="0"/>
        <pt x="250" y="612" on="1"/>
        <pt x="250" y="366" on="1"/>
      </contour>
      <contour>
        <pt x="424" y="31" on="1"/>
        <pt x="463" y="31" on="0"/>
        <pt x="521" y="59" on="0"/>
        <pt x="560" y="103" on="0"/>
        <pt x="579" y="157" on="0"/>
        <pt x="579" y="184" on="1"/>
        <pt x="579" y="209" on="0"/>
        <pt x="563" y="265" on="0"/>
        <pt x="528" y="313" on="0"/>
        <pt x="475" y="344" on="0"/>
        <pt x="438" y="344" on="1"/>
        <pt x="250" y="344" on="1"/>
        <pt x="250" y="71" on="1"/>
        <pt x="250" y="59" on="0"/>
        <pt x="252" y="43" on="0"/>
        <pt x="262" y="34" on="0"/>
        <pt x="281" y="31" on="0"/>
        <pt x="299" y="31" on="1"/>
      </contour>
    </TTGlyph>
    <TTGlyph name="C" xMin="84" yMin="-22" xMax="693" yMax="705">
      <contour>
        <pt x="693" y="444" on="1"/>
        <pt x="693" y="428" on="0"/>
        <pt x="689" y="420" on="0"/>
        <pt x="677" y="420" on="1"/>
        <pt x="666" y="420" on="0"/>
        <pt x="663" y="426" on="0"/>
        <pt x="661" y="437" on="1"/>
        <pt x="654" y="492" on="0"/>
        <pt x="614" y="580" on="0"/>
        <pt x="557" y="641" on="0"/>
        <pt x="484" y="674" on="0"/>
        <pt x="443" y="674" on="1"/>
        <pt x="428" y="674" on="0"/>
        <pt x="378" y="666" on="0"/>
        <pt x="321" y="642" on="0"/>
        <pt x="263" y="597" on="0"/>
        <pt x="216" y="523" on="0"/>
        <pt x="187" y="416" on="0"/>
        <pt x="187" y="341" on="1"/>
        <pt x="187" y="267" on="0"/>
        <pt x="217" y="159" on="0"/>
        <pt x="264" y="86" on="0"/>
        <pt x="322" y="41" on="0"/>
        <pt x="379" y="17" on="0"/>
        <pt x="429" y="9" on="0"/>
        <pt x="444" y="9" on="1"/>
        <pt x="485" y="9" on="0"/>
        <pt x="563" y="39" on="0"/>
        <pt x="625" y="97" on="0"/>
        <pt x="665" y="180" on="0"/>
        <pt x="668" y="234" on="1"/>
        <pt x="669" y="242" on="0"/>
        <pt x="672" y="250" on="0"/>
        <pt x="680" y="250" on="1"/>
        <pt x="690" y="250" on="0"/>
        <pt x="693" y="241" on="0"/>
        <pt x="693" y="233" on="1"/>
        <pt x="693" y="190" on="0"/>
        <pt x="657" y="99" on="0"/>
        <pt x="590" y="25" on="0"/>
        <pt x="493" y="-22" on="0"/>
        <pt x="432" y="-22" on="1"/>
        <pt x="362" y="-22" on="0"/>
        <pt x="236" y="34" on="0"/>
        <pt x="140" y="131" on="0"/>
        <pt x="84" y="264" on="0"/>
        <pt x="84" y="342" on="1"/>
        <pt x="84" y="419" on="0"/>
        <pt x="140" y="551" on="0"/>
        <pt x="236" y="649" on="0"/>
        <pt x="362" y="705" on="0"/>
        <pt x="432" y="705" on="1"/>
        <pt x="468" y="705" on="0"/>
        <pt x="524" y="688" on="0"/>
        <pt x="568" y="663" on="0"/>
        <pt x="602" y="633" on="0"/>
        <pt x="616" y="619" on="1"/>
        <pt x="666" y="693" on="1"/>
        <pt x="672" y="702" on="0"/>
        <pt x="679" y="705" on="0"/>
        <pt x="682" y="705" on="1"/>
        <pt x="690" y="705" on="0"/>
        <pt x="693" y="694" on="0"/>
        <pt x="693" y="681" on="1"/>
      </contour>
    </TTGlyph>
    <TTGlyph name="D" xMin="63" yMin="0" xMax="734" yMax="683">
      <contour>
        <pt x="428" y="683" on="1"/>
        <pt x="493" y="683" on="0"/>
        <pt x="604" y="628" on="0"/>
        <pt x="687" y="534" on="0"/>
        <pt x="734" y="407" on="0"/>
        <pt x="734" y="336" on="1"/>
        <pt x="734" y="266" on="0"/>
        <pt x="686" y="143" on="0"/>
        <pt x="603" y="52" on="0"/>
        <pt x="492" y="0" on="0"/>
        <pt x="428" y="0" on="1"/>
        <pt x="63" y="0" on="1"/>
        <pt x="63" y="31" on="1"/>
        <pt x="87" y="31" on="1"/>
        <pt x="116" y="31" on="0"/>
        <pt x="148" y="36" on="0"/>
        <pt x="163" y="46" on="0"/>
        <pt x="166" y="65" on="0"/>
        <pt x="166" y="78" on="1"/>
        <pt x="166" y="605" on="1"/>
        <pt x="166" y="619" on="0"/>
        <pt x="163" y="637" on="0"/>
        <pt x="148" y="647" on="0"/>
        <pt x="116" y="652" on="0"/>
        <pt x="87" y="652" on="1"/>
        <pt x="63" y="652" on="1"/>
        <pt x="63" y="683" on="1"/>
      </contour>
      <contour>
        <pt x="401" y="31" on="1"/>
        <pt x="461" y="31" on="0"/>
        <pt x="549" y="78" on="0"/>
        <pt x="575" y="111" on="1"/>
        <pt x="609" y="153" on="0"/>
        <pt x="634" y="262" on="0"/>
        <pt x="634" y="336" on="1"/>
        <pt x="634" y="414" on="0"/>
        <pt x="609" y="520" on="0"/>
        <pt x="583" y="559" on="1"/>
        <pt x="571" y="576" on="0"/>
        <pt x="537" y="609" on="0"/>
        <pt x="492" y="636" on="0"/>
        <pt x="435" y="652" on="0"/>
        <pt x="401" y="652" on="1"/>
        <pt x="301" y="652" on="1"/>
        <pt x="283" y="652" on="0"/>
        <pt x="264" y="649" on="0"/>
        <pt x="254" y="640" on="0"/>
        <pt x="252" y="624" on="0"/>
        <pt x="252" y="612" on="1"/>
        <pt x="252" y="71" on="1"/>
        <pt x="252" y="59" on="0"/>
        <pt x="254" y="43" on="0"/>
        <pt x="264" y="34" on="0"/>
        <pt x="283" y="31" on="0"/>
        <pt x="301" y="31" on="1"/>
      </contour>
    </TTGlyph>
    <TTGlyph name="E" xMin="61" yMin="0" xMax="679" yMax="680">
      <contour>
        <pt x="637" y="0" on="1"/>
        <pt x="61" y="0" on="1"/>
        <pt x="61" y="31" on="1"/>
        <pt x="85" y="31" on="1"/>
        <pt x="114" y="31" on="0"/>
        <pt x="146" y="36" on="0"/>
        <pt x="161" y="46" on="0"/>
        <pt x="164" y="65" on="0"/>
        <pt x="164" y="78" on="1"/>
        <pt x="164" y="602" on="1"/>
        <pt x="164" y="616" on="0"/>
        <pt x="161" y="634" on="0"/>
        <pt x="146" y="644" on="0"/>
        <pt x="114" y="649" on="0"/>
        <pt x="85" y="649" on="1"/>
        <pt x="61" y="649" on="1"/>
        <pt x="61" y="680" on="1"/>
        <pt x="623" y="680" on="1"/>
        <pt x="651" y="455" on="1"/>
        <pt x="626" y="455" on="1"/>
        <pt x="620" y="508" on="0"/>
        <pt x="600" y="581" on="0"/>
        <pt x="558" y="628" on="0"/>
        <pt x="487" y="649" on="0"/>
        <pt x="430" y="649" on="1"/>
        <pt x="302" y="649" on="1"/>
        <pt x="284" y="649" on="0"/>
        <pt x="265" y="646" on="0"/>
        <pt x="255" y="637" on="0"/>
        <pt x="253" y="621" on="0"/>
        <pt x="253" y="609" on="1"/>
        <pt x="253" y="369" on="1"/>
        <pt x="342" y="369" on="1"/>
        <pt x="378" y="369" on="0"/>
        <pt x="421" y="381" on="0"/>
        <pt x="444" y="409" on="0"/>
        <pt x="450" y="454" on="0"/>
        <pt x="450" y="486" on="1"/>
        <pt x="475" y="486" on="1"/>
        <pt x="475" y="221" on="1"/>
        <pt x="450" y="221" on="1"/>
        <pt x="450" y="253" on="0"/>
        <pt x="444" y="298" on="0"/>
        <pt x="421" y="326" on="0"/>
        <pt x="378" y="338" on="0"/>
        <pt x="342" y="338" on="1"/>
        <pt x="253" y="338" on="1"/>
        <pt x="253" y="71" on="1"/>
        <pt x="253" y="59" on="0"/>
        <pt x="255" y="43" on="0"/>
        <pt x="265" y="34" on="0"/>
        <pt x="284" y="31" on="0"/>
        <pt x="302" y="31" on="1"/>
        <pt x="434" y="31" on="1"/>
        <pt x="499" y="31" on="0"/>
        <pt x="577" y="59" on="0"/>
        <pt x="622" y="115" on="0"/>
        <pt x="645" y="200" on="0"/>
        <pt x="654" y="258" on="1"/>
        <pt x="679" y="258" on="1"/>
      </contour>
    </TTGlyph>
    <TTGlyph name="F" xMin="61" yMin="0" xMax="637" yMax="680">
      <contour>
        <pt x="637" y="455" on="1"/>
        <pt x="612" y="455" on="1"/>
        <pt x="606" y="506" on="0"/>
        <pt x="587" y="580" on="0"/>
        <pt x="547" y="627" on="0"/>
        <pt x="478" y="649" on="0"/>
        <pt x="422" y="649" on="1"/>
        <pt x="302" y="649" on="1"/>
        <pt x="284" y="649" on="0"/>
        <pt x="265" y="646" on="0"/>
        <pt x="255" y="637" on="0"/>
        <pt x="253" y="621" on="0"/>
        <pt x="253" y="609" on="1"/>
        <pt x="253" y="356" on="1"/>
        <pt x="339" y="356" on="1"/>
        <pt x="375" y="356" on="0"/>
        <pt x="417" y="369" on="0"/>
        <pt x="438" y="398" on="0"/>
        <pt x="444" y="442" on="0"/>
        <pt x="444" y="473" on="1"/>
        <pt x="469" y="473" on="1"/>
        <pt x="469" y="208" on="1"/>
        <pt x="444" y="208" on="1"/>
        <pt x="444" y="240" on="0"/>
        <pt x="438" y="284" on="0"/>
        <pt x="416" y="312" on="0"/>
        <pt x="375" y="325" on="0"/>
        <pt x="339" y="325" on="1"/>
        <pt x="253" y="325" on="1"/>
        <pt x="253" y="79" on="1"/>
        <pt x="253" y="66" on="0"/>
        <pt x="256" y="48" on="0"/>
        <pt x="274" y="36" on="0"/>
        <pt x="312" y="31" on="0"/>
        <pt x="348" y="31" on="1"/>
        <pt x="381" y="31" on="1"/>
        <pt x="381" y="0" on="1"/>
        <pt x="368" y="1" on="0"/>
        <pt x="323" y="2" on="0"/>
        <pt x="275" y="3" on="0"/>
        <pt x="228" y="3" on="0"/>
        <pt x="213" y="3" on="1"/>
        <pt x="198" y="3" on="0"/>
        <pt x="157" y="3" on="0"/>
        <pt x="114" y="2" on="0"/>
        <pt x="74" y="1" on="0"/>
        <pt x="61" y="0" on="1"/>
        <pt x="61" y="31" on="1"/>
        <pt x="85" y="31" on="1"/>
        <pt x="114" y="31" on="0"/>
        <pt x="146" y="36" on="0"/>
        <pt x="161" y="46" on="0"/>
        <pt x="164" y="65" on="0"/>
        <pt x="164" y="78" on="1"/>
        <pt x="164" y="602" on="1"/>
        <pt x="164" y="616" on="0"/>
        <pt x="161" y="634" on="0"/>
        <pt x="146" y="644" on="0"/>
        <pt x="114" y="649" on="0"/>
        <pt x="85" y="649" on="1"/>
        <pt x="61" y="649" on="1"/>
        <pt x="61" y="680" on="1"/>
        <pt x="609" y="680" on="1"/>
      </contour>
    </TTGlyph>
    <TTGlyph name="G" xMin="84" yMin="-22" xMax="762" yMax="705">
      <contour>
        <pt x="693" y="24" on="1"/>
        <pt x="693" y="13" on="0"/>
        <pt x="691" y="1" on="0"/>
        <pt x="684" y="1" on="1"/>
        <pt x="680" y="1" on="0"/>
        <pt x="663" y="14" on="0"/>
        <pt x="643" y="33" on="0"/>
        <pt x="625" y="55" on="0"/>
        <pt x="620" y="63" on="1"/>
        <pt x="605" y="38" on="0"/>
        <pt x="560" y="6" on="0"/>
        <pt x="509" y="-14" on="0"/>
        <pt x="456" y="-22" on="0"/>
        <pt x="433" y="-22" on="1"/>
        <pt x="362" y="-22" on="0"/>
        <pt x="235" y="34" on="0"/>
        <pt x="140" y="132" on="0"/>
        <pt x="84" y="265" on="0"/>
        <pt x="84" y="342" on="1"/>
        <pt x="84" y="419" on="0"/>
        <pt x="140" y="551" on="0"/>
        <pt x="236" y="649" on="0"/>
        <pt x="362" y="705" on="0"/>
        <pt x="432" y="705" on="1"/>
        <pt x="468" y="705" on="0"/>
        <pt x="524" y="688" on="0"/>
        <pt x="568" y="663" on="0"/>
        <pt x="602" y="633" on="0"/>
        <pt x="616" y="619" on="1"/>
        <pt x="666" y="693" on="1"/>
        <pt x="672" y="702" on="0"/>
        <pt x="679" y="705" on="0"/>
        <pt x="682" y="705" on="1"/>
        <pt x="690" y="705" on="0"/>
        <pt x="693" y="694" on="0"/>
        <pt x="693" y="681" on="1"/>
        <pt x="693" y="444" on="1"/>
        <pt x="693" y="428" on="0"/>
        <pt x="689" y="420" on="0"/>
        <pt x="677" y="420" on="1"/>
        <pt x="666" y="420" on="0"/>
        <pt x="663" y="426" on="0"/>
        <pt x="661" y="437" on="1"/>
        <pt x="654" y="492" on="0"/>
        <pt x="614" y="580" on="0"/>
        <pt x="557" y="641" on="0"/>
        <pt x="484" y="674" on="0"/>
        <pt x="443" y="674" on="1"/>
        <pt x="427" y="674" on="0"/>
        <pt x="377" y="666" on="0"/>
        <pt x="320" y="641" on="0"/>
        <pt x="262" y="596" on="0"/>
        <pt x="216" y="522" on="0"/>
        <pt x="187" y="416" on="0"/>
        <pt x="187" y="342" on="1"/>
        <pt x="187" y="267" on="0"/>
        <pt x="217" y="160" on="0"/>
        <pt x="264" y="86" on="0"/>
        <pt x="324" y="41" on="0"/>
        <pt x="382" y="17" on="0"/>
        <pt x="433" y="9" on="0"/>
        <pt x="449" y="9" on="1"/>
        <pt x="456" y="9" on="0"/>
        <pt x="484" y="11" on="0"/>
        <pt x="519" y="20" on="0"/>
        <pt x="555" y="35" on="0"/>
        <pt x="585" y="62" on="0"/>
        <pt x="604" y="102" on="0"/>
        <pt x="604" y="130" on="1"/>
        <pt x="604" y="194" on="1"/>
        <pt x="604" y="208" on="0"/>
        <pt x="600" y="226" on="0"/>
        <pt x="582" y="237" on="0"/>
        <pt x="545" y="242" on="0"/>
        <pt x="511" y="242" on="1"/>
        <pt x="479" y="242" on="1"/>
        <pt x="479" y="273" on="1"/>
        <pt x="493" y="272" on="0"/>
        <pt x="535" y="271" on="0"/>
        <pt x="581" y="270" on="0"/>
        <pt x="625" y="270" on="0"/>
        <pt x="640" y="270" on="1"/>
        <pt x="663" y="270" on="0"/>
        <pt x="734" y="272" on="0"/>
        <pt x="762" y="273" on="1"/>
        <pt x="762" y="242" on="1"/>
        <pt x="738" y="242" on="0"/>
        <pt x="710" y="239" on="0"/>
        <pt x="696" y="230" on="0"/>
        <pt x="693" y="213" on="0"/>
        <pt x="693" y="198" on="1"/>
      </contour>
    </TTGlyph>
    <TTGlyph name="Gamma" xMin="61" yMin="0" xMax="610" yMax="680">
      <contour>
        <pt x="610" y="455" on="1"/>
        <pt x="585" y="455" on="1"/>
        <pt x="579" y="506" on="0"/>
        <pt x="561" y="579" on="0"/>
        <pt x="524" y="626" on="0"/>
        <pt x="459" y="649" on="0"/>
        <pt x="405" y="649" on="1"/>
        <pt x="302" y="649" on="1"/>
        <pt x="284" y="649" on="0"/>
        <pt x="265" y="646" on="0"/>
        <pt x="255" y="637" on="0"/>
        <pt x="253" y="621" on="0"/>
        <pt x="253" y="609" on="1"/>
        <pt x="253" y="79" on="1"/>
        <pt x="253" y="66" on="0"/>
        <pt x="256" y="48" on="0"/>
        <pt x="274" y="36" on="0"/>
        <pt x="312" y="31" on="0"/>
        <pt x="348" y="31" on="1"/>
        <pt x="381" y="31" on="1"/>
        <pt x="381" y="0" on="1"/>
        <pt x="368" y="1" on="0"/>
        <pt x="323" y="2" on="0"/>
        <pt x="275" y="3" on="0"/>
        <pt x="228" y="3" on="0"/>
        <pt x="213" y="3" on="1"/>
        <pt x="198" y="3" on="0"/>
        <pt x="157" y="3" on="0"/>
        <pt x="114" y="2" on="0"/>
        <pt x="74" y="1" on="0"/>
        <pt x="61" y="0" on="1"/>
        <pt x="61" y="31" on="1"/>
        <pt x="85" y="31" on="1"/>
        <pt x="114" y="31" on="0"/>
        <pt x="146" y="36" on="0"/>
        <pt x="161" y="46" on="0"/>
        <pt x="164" y="65" on="0"/>
        <pt x="164" y="78" on="1"/>
        <pt x="164" y="602" on="1"/>
        <pt x="164" y="616" on="0"/>
        <pt x="161" y="634" on="0"/>
        <pt x="146" y="644" on="0"/>
        <pt x="114" y="649" on="0"/>
        <pt x="85" y="649" on="1"/>
        <pt x="61" y="649" on="1"/>
        <pt x="61" y="680" on="1"/>
        <pt x="582" y="680" on="1"/>
      </contour>
    </TTGlyph>
    <TTGlyph name="H" xMin="61" yMin="0" xMax="744" yMax="683">
      <contour>
        <pt x="641" y="78" on="1"/>
        <pt x="641" y="65" on="0"/>
        <pt x="644" y="46" on="0"/>
        <pt x="659" y="36" on="0"/>
        <pt x="691" y="31" on="0"/>
        <pt x="720" y="31" on="1"/>
        <pt x="744" y="31" on="1"/>
        <pt x="744" y="0" on="1"/>
        <pt x="731" y="1" on="0"/>
        <pt x="692" y="2" on="0"/>
        <pt x="650" y="3" on="0"/>
        <pt x="610" y="3" on="0"/>
        <pt x="596" y="3" on="1"/>
        <pt x="582" y="3" on="0"/>
        <pt x="542" y="3" on="0"/>
        <pt x="501" y="2" on="0"/>
        <pt x="462" y="1" on="0"/>
        <pt x="449" y="0" on="1"/>
        <pt x="449" y="31" on="1"/>
        <pt x="473" y="31" on="1"/>
        <pt x="502" y="31" on="0"/>
        <pt x="534" y="36" on="0"/>
        <pt x="549" y="46" on="0"/>
        <pt x="552" y="65" on="0"/>
        <pt x="552" y="78" on="1"/>
        <pt x="552" y="340" on="1"/>
        <pt x="253" y="340" on="1"/>
        <pt x="253" y="78" on="1"/>
        <pt x="253" y="65" on="0"/>
        <pt x="256" y="46" on="0"/>
        <pt x="271" y="36" on="0"/>
        <pt x="303" y="31" on="0"/>
        <pt x="332" y="31" on="1"/>
        <pt x="356" y="31" on="1"/>
        <pt x="356" y="0" on="1"/>
        <pt x="343" y="1" on="0"/>
        <pt x="304" y="2" on="0"/>
        <pt x="262" y="3" on="0"/>
        <pt x="222" y="3" on="0"/>
        <pt x="208" y="3" on="1"/>
        <pt x="194" y="3" on="0"/>
        <pt x="154" y="3" on="0"/>
        <pt x="113" y="2" on="0"/>
        <pt x="74" y="1" on="0"/>
        <pt x="61" y="0" on="1"/>
        <pt x="61" y="31" on="1"/>
        <pt x="85" y="31" on="1"/>
        <pt x="114" y="31" on="0"/>
        <pt x="146" y="36" on="0"/>
        <pt x="161" y="46" on="0"/>
        <pt x="164" y="65" on="0"/>
        <pt x="164" y="78" on="1"/>
        <pt x="164" y="605" on="1"/>
        <pt x="164" y="619" on="0"/>
        <pt x="161" y="637" on="0"/>
        <pt x="146" y="647" on="0"/>
        <pt x="114" y="652" on="0"/>
        <pt x="85" y="652" on="1"/>
        <pt x="61" y="652" on="1"/>
        <pt x="61" y="683" on="1"/>
        <pt x="74" y="682" on="0"/>
        <pt x="113" y="681" on="0"/>
        <pt x="155" y="680" on="0"/>
        <pt x="195" y="680" on="0"/>
        <pt x="209" y="680" on="1"/>
        <pt x="223" y="680" on="0"/>
        <pt x="263" y="680" on="0"/>
        <pt x="304" y="681" on="0"/>
        <pt x="343" y="682" on="0"/>
        <pt x="356" y="683" on="1"/>
        <pt x="356" y="652" on="1"/>
        <pt x="332" y="652" on="1"/>
        <pt x="303" y="652" on="0"/>
        <pt x="271" y="647" on="0"/>
        <pt x="256" y="637" on="0"/>
        <pt x="253" y="619" on="0"/>
        <pt x="253" y="605" on="1"/>
        <pt x="253" y="371" on="1"/>
        <pt x="552" y="371" on="1"/>
        <pt x="552" y="605" on="1"/>
        <pt x="552" y="619" on="0"/>
        <pt x="549" y="637" on="0"/>
        <pt x="534" y="647" on="0"/>
        <pt x="502" y="652" on="0"/>
        <pt x="473" y="652" on="1"/>
        <pt x="449" y="652" on="1"/>
        <pt x="449" y="683" on="1"/>
        <pt x="462" y="682" on="0"/>
        <pt x="501" y="681" on="0"/>
        <pt x="543" y="680" on="0"/>
        <pt x="583" y="680" on="0"/>
        <pt x="597" y="680" on="1"/>
        <pt x="611" y="680" on="0"/>
        <pt x="651" y="680" on="0"/>
        <pt x="692" y="681" on="0"/>
        <pt x="731" y="682" on="0"/>
        <pt x="744" y="683" on="1"/>
        <pt x="744" y="652" on="1"/>
        <pt x="720" y="652" on="1"/>
        <pt x="691" y="652" on="0"/>
        <pt x="659" y="647" on="0"/>
        <pt x="644" y="637" on="0"/>
        <pt x="641" y="619" on="0"/>
        <pt x="641" y="605" on="1"/>
      </contour>
    </TTGlyph>
    <TTGlyph name="I" xMin="56" yMin="0" xMax="361" yMax="683">
      <contour>
        <pt x="253" y="78" on="1"/>
        <pt x="253" y="65" on="0"/>
        <pt x="256" y="46" on="0"/>
        <pt x="272" y="36" on="0"/>
        <pt x="305" y="31" on="0"/>
        <pt x="335" y="31" on="1"/>
        <pt x="361" y="31" on="1"/>
        <pt x="361" y="0" on="1"/>
        <pt x="348" y="1" on="0"/>
        <pt x="308" y="2" on="0"/>
        <pt x="264" y="3" on="0"/>
        <pt x="223" y="3" on="0"/>
        <pt x="208" y="3" on="1"/>
        <pt x="194" y="3" on="0"/>
        <pt x="153" y="3" on="0"/>
        <pt x="109" y="2" on="0"/>
        <pt x="69" y="1" on="0"/>
        <pt x="56" y="0" on="1"/>
        <pt x="56" y="31" on="1"/>
        <pt x="82" y="31" on="1"/>
        <pt x="112" y="31" on="0"/>
        <pt x="145" y="36" on="0"/>
        <pt x="161" y="46" on="0"/>
        <pt x="164" y="65" on="0"/>
        <pt x="164" y="78" on="1"/>
        <pt x="164" y="605" on="1"/>
        <pt x="164" y="619" on="0"/>
        <pt x="161" y="637" on="0"/>
        <pt x="145" y="647" on="0"/>
        <pt x="112" y="652" on="0"/>
        <pt x="82" y="652" on="1"/>
        <pt x="56" y="652" on="1"/>
        <pt x="56" y="683" on="1"/>
        <pt x="69" y="682" on="0"/>
        <pt x="109" y="681" on="0"/>
        <pt x="153" y="680" on="0"/>
        <pt x="194" y="680" on="0"/>
        <pt x="209" y="680" on="1"/>
        <pt x="223" y="680" on="0"/>
        <pt x="264" y="680" on="0"/>
        <pt x="308" y="681" on="0"/>
        <pt x="348" y="682" on="0"/>
        <pt x="361" y="683" on="1"/>
        <pt x="361" y="652" on="1"/>
        <pt x="335" y="652" on="1"/>
        <pt x="305" y="652" on="0"/>
        <pt x="272" y="647" on="0"/>
        <pt x="256" y="637" on="0"/>
        <pt x="253" y="619" on="0"/>
        <pt x="253" y="605" on="1"/>
      </contour>
    </TTGlyph>
    <TTGlyph name="J" xMin="69" yMin="-22" xMax="492" yMax="683">
      <contour>
        <pt x="329" y="604" on="1"/>
        <pt x="329" y="617" on="0"/>
        <pt x="326" y="635" on="0"/>
        <pt x="308" y="647" on="0"/>
        <pt x="268" y="652" on="0"/>
        <pt x="231" y="652" on="1"/>
        <pt x="195" y="652" on="1"/>
        <pt x="195" y="683" on="1"/>
        <pt x="209" y="682" on="0"/>
        <pt x="254" y="681" on="0"/>
        <pt x="302" y="680" on="0"/>
        <pt x="347" y="680" on="0"/>
        <pt x="363" y="680" on="1"/>
        <pt x="398" y="680" on="0"/>
        <pt x="459" y="681" on="0"/>
        <pt x="492" y="683" on="1"/>
        <pt x="492" y="652" on="1"/>
        <pt x="468" y="652" on="0"/>
        <pt x="438" y="651" on="0"/>
        <pt x="421" y="643" on="0"/>
        <pt x="415" y="626" on="0"/>
        <pt x="415" y="611" on="1"/>
        <pt x="415" y="167" on="1"/>
        <pt x="415" y="142" on="0"/>
        <pt x="415" y="129" on="0"/>
        <pt x="414" y="123" on="1"/>
        <pt x="410" y="94" on="0"/>
        <pt x="379" y="42" on="0"/>
        <pt x="330" y="2" on="0"/>
        <pt x="266" y="-22" on="0"/>
        <pt x="229" y="-22" on="1"/>
        <pt x="195" y="-22" on="0"/>
        <pt x="137" y="-1" on="0"/>
        <pt x="94" y="36" on="0"/>
        <pt x="69" y="85" on="0"/>
        <pt x="69" y="112" on="1"/>
        <pt x="69" y="129" on="0"/>
        <pt x="80" y="151" on="0"/>
        <pt x="97" y="164" on="0"/>
        <pt x="117" y="170" on="0"/>
        <pt x="125" y="170" on="1"/>
        <pt x="146" y="170" on="0"/>
        <pt x="181" y="141" on="0"/>
        <pt x="181" y="114" on="1"/>
        <pt x="181" y="93" on="0"/>
        <pt x="164" y="70" on="0"/>
        <pt x="141" y="60" on="0"/>
        <pt x="120" y="58" on="0"/>
        <pt x="116" y="58" on="1"/>
        <pt x="130" y="38" on="0"/>
        <pt x="163" y="15" on="0"/>
        <pt x="195" y="3" on="0"/>
        <pt x="221" y="0" on="0"/>
        <pt x="226" y="0" on="1"/>
        <pt x="246" y="0" on="0"/>
        <pt x="284" y="21" on="0"/>
        <pt x="312" y="59" on="0"/>
        <pt x="329" y="114" on="0"/>
        <pt x="329" y="148" on="1"/>
      </contour>
    </TTGlyph>
    <TTGlyph name="K" xMin="61" yMin="0" xMax="763" yMax="683">
      <contour>
        <pt x="658" y="79" on="1"/>
        <pt x="669" y="62" on="0"/>
        <pt x="690" y="43" on="0"/>
        <pt x="714" y="33" on="0"/>
        <pt x="743" y="31" on="0"/>
        <pt x="763" y="31" on="1"/>
        <pt x="763" y="0" on="1"/>
        <pt x="700" y="3" on="0"/>
        <pt x="648" y="3" on="1"/>
        <pt x="633" y="3" on="0"/>
        <pt x="595" y="3" on="0"/>
        <pt x="556" y="2" on="0"/>
        <pt x="519" y="1" on="0"/>
        <pt x="505" y="0" on="1"/>
        <pt x="505" y="31" on="1"/>
        <pt x="513" y="31" on="0"/>
        <pt x="533" y="32" on="0"/>
        <pt x="551" y="38" on="0"/>
        <pt x="564" y="50" on="0"/>
        <pt x="564" y="61" on="1"/>
        <pt x="564" y="71" on="0"/>
        <pt x="552" y="92" on="0"/>
        <pt x="551" y="93" on="1"/>
        <pt x="368" y="363" on="1"/>
        <pt x="253" y="253" on="1"/>
        <pt x="253" y="78" on="1"/>
        <pt x="253" y="65" on="0"/>
        <pt x="256" y="46" on="0"/>
        <pt x="271" y="36" on="0"/>
        <pt x="303" y="31" on="0"/>
        <pt x="332" y="31" on="1"/>
        <pt x="356" y="31" on="1"/>
        <pt x="356" y="0" on="1"/>
        <pt x="343" y="1" on="0"/>
        <pt x="304" y="2" on="0"/>
        <pt x="262" y="3" on="0"/>
        <pt x="222" y="3" on="0"/>
        <pt x="208" y="3" on="1"/>
        <pt x="194" y="3" on="0"/>
        <pt x="154" y="3" on="0"/>
        <pt x="113" y="2" on="0"/>
        <pt x="74" y="1" on="0"/>
        <pt x="61" y="0" on="1"/>
        <pt x="61" y="31" on="1"/>
        <pt x="85" y="31" on="1"/>
        <pt x="114" y="31" on="0"/>
        <pt x="146" y="36" on="0"/>
        <pt x="161" y="46" on="0"/>
        <pt x="164" y="65" on="0"/>
        <pt x="164" y="78" on="1"/>
        <pt x="164" y="605" on="1"/>
        <pt x="164" y="619" on="0"/>
        <pt x="161" y="637" on="0"/>
        <pt x="146" y="647" on="0"/>
        <pt x="114" y="652" on="0"/>
        <pt x="85" y="652" on="1"/>
        <pt x="61" y="652" on="1"/>
        <pt x="61" y="683" on="1"/>
        <pt x="74" y="682" on="0"/>
        <pt x="113" y="681" on="0"/>
        <pt x="155" y="680" on="0"/>
        <pt x="195" y="680" on="0"/>
        <pt x="209" y="680" on="1"/>
        <pt x="223" y="680" on="0"/>
        <pt x="263" y="680" on="0"/>
        <pt x="304" y="681" on="0"/>
        <pt x="343" y="682" on="0"/>
        <pt x="356" y="683" on="1"/>
        <pt x="356" y="652" on="1"/>
        <pt x="332" y="652" on="1"/>
        <pt x="303" y="652" on="0"/>
        <pt x="271" y="647" on="0"/>
        <pt x="256" y="637" on="0"/>
        <pt x="253" y="619" on="0"/>
        <pt x="253" y="605" on="1"/>
        <pt x="253" y="287" on="1"/>
        <pt x="566" y="586" on="1"/>
        <pt x="577" y="597" on="0"/>
        <pt x="583" y="613" on="0"/>
        <pt x="583" y="618" on="1"/>
        <pt x="583" y="628" on="0"/>
        <pt x="565" y="651" on="0"/>
        <pt x="537" y="652" on="1"/>
        <pt x="537" y="683" on="1"/>
        <pt x="550" y="682" on="0"/>
        <pt x="583" y="681" on="0"/>
        <pt x="617" y="680" on="0"/>
        <pt x="651" y="680" on="0"/>
        <pt x="664" y="680" on="1"/>
        <pt x="684" y="680" on="0"/>
        <pt x="729" y="681" on="0"/>
        <pt x="749" y="683" on="1"/>
        <pt x="749" y="652" on="1"/>
        <pt x="720" y="652" on="0"/>
        <pt x="674" y="638" on="0"/>
        <pt x="638" y="617" on="0"/>
        <pt x="610" y="593" on="0"/>
        <pt x="598" y="582" on="1"/>
        <pt x="592" y="577" on="0"/>
        <pt x="570" y="555" on="0"/>
        <pt x="565" y="550" on="1"/>
        <pt x="530" y="518" on="0"/>
        <pt x="455" y="448" on="0"/>
        <pt x="428" y="419" on="1"/>
      </contour>
    </TTGlyph>
    <TTGlyph name="L" xMin="61" yMin="0" xMax="610" yMax="683">
      <contour>
        <pt x="582" y="0" on="1"/>
        <pt x="61" y="0" on="1"/>
        <pt x="61" y="31" on="1"/>
        <pt x="85" y="31" on="1"/>
        <pt x="114" y="31" on="0"/>
        <pt x="146" y="36" on="0"/>
        <pt x="161" y="46" on="0"/>
        <pt x="164" y="65" on="0"/>
        <pt x="164" y="78" on="1"/>
        <pt x="164" y="605" on="1"/>
        <pt x="164" y="619" on="0"/>
        <pt x="161" y="637" on="0"/>
        <pt x="146" y="647" on="0"/>
        <pt x="114" y="652" on="0"/>
        <pt x="85" y="652" on="1"/>
        <pt x="61" y="652" on="1"/>
        <pt x="61" y="683" on="1"/>
        <pt x="74" y="682" on="0"/>
        <pt x="114" y="681" on="0"/>
        <pt x="157" y="680" on="0"/>
        <pt x="198" y="680" on="0"/>
        <pt x="213" y="680" on="1"/>
        <pt x="228" y="680" on="0"/>
        <pt x="275" y="680" on="0"/>
        <pt x="323" y="681" on="0"/>
        <pt x="368" y="682" on="0"/>
        <pt x="381" y="683" on="1"/>
        <pt x="381" y="652" on="1"/>
        <pt x="348" y="652" on="1"/>
        <pt x="312" y="652" on="0"/>
        <pt x="274" y="647" on="0"/>
        <pt x="256" y="635" on="0"/>
        <pt x="253" y="617" on="0"/>
        <pt x="253" y="604" on="1"/>
        <pt x="253" y="71" on="1"/>
        <pt x="253" y="59" on="0"/>
        <pt x="255" y="43" on="0"/>
        <pt x="265" y="34" on="0"/>
        <pt x="284" y="31" on="0"/>
        <pt x="302" y="31" on="1"/>
        <pt x="384" y="31" on="1"/>
        <pt x="450" y="31" on="0"/>
        <pt x="526" y="73" on="0"/>
        <pt x="567" y="139" on="0"/>
        <pt x="581" y="220" on="0"/>
        <pt x="585" y="258" on="1"/>
        <pt x="610" y="258" on="1"/>
      </contour>
    </TTGlyph>
    <TTGlyph name="Lambda" xMin="60" yMin="0" xMax="689" yMax="716">
      <contour>
        <pt x="598" y="74" on="1"/>
        <pt x="603" y="60" on="0"/>
        <pt x="611" y="43" on="0"/>
        <pt x="628" y="34" on="0"/>
        <pt x="661" y="31" on="0"/>
        <pt x="689" y="31" on="1"/>
        <pt x="689" y="0" on="1"/>
        <pt x="660" y="1" on="0"/>
        <pt x="595" y="3" on="0"/>
        <pt x="566" y="3" on="1"/>
        <pt x="552" y="3" on="0"/>
        <pt x="513" y="3" on="0"/>
        <pt x="473" y="2" on="0"/>
        <pt x="435" y="1" on="0"/>
        <pt x="422" y="0" on="1"/>
        <pt x="422" y="31" on="1"/>
        <pt x="432" y="31" on="0"/>
        <pt x="461" y="32" on="0"/>
        <pt x="488" y="38" on="0"/>
        <pt x="507" y="50" on="0"/>
        <pt x="507" y="61" on="1"/>
        <pt x="507" y="63" on="0"/>
        <pt x="506" y="68" on="0"/>
        <pt x="502" y="79" on="1"/>
        <pt x="344" y="571" on="1"/>
        <pt x="194" y="105" on="1"/>
        <pt x="190" y="94" on="0"/>
        <pt x="189" y="87" on="0"/>
        <pt x="189" y="83" on="1"/>
        <pt x="189" y="65" on="0"/>
        <pt x="225" y="32" on="0"/>
        <pt x="266" y="31" on="1"/>
        <pt x="266" y="0" on="1"/>
        <pt x="254" y="0" on="0"/>
        <pt x="224" y="1" on="0"/>
        <pt x="193" y="2" on="0"/>
        <pt x="164" y="3" on="0"/>
        <pt x="153" y="3" on="1"/>
        <pt x="150" y="3" on="0"/>
        <pt x="129" y="3" on="0"/>
        <pt x="102" y="2" on="0"/>
        <pt x="72" y="1" on="0"/>
        <pt x="60" y="0" on="1"/>
        <pt x="60" y="31" on="1"/>
        <pt x="86" y="31" on="0"/>
        <pt x="121" y="44" on="0"/>
        <pt x="144" y="64" on="0"/>
        <pt x="156" y="89" on="0"/>
        <pt x="160" y="100" on="1"/>
        <pt x="352" y="695" on="1"/>
        <pt x="356" y="708" on="0"/>
        <pt x="363" y="716" on="0"/>
        <pt x="375" y="716" on="1"/>
        <pt x="383" y="716" on="0"/>
        <pt x="393" y="709" on="0"/>
        <pt x="398" y="695" on="1"/>
      </contour>
    </TTGlyph>
    <TTGlyph name="M" xMin="65" yMin="0" xMax="906" yMax="683">
      <contour>
        <pt x="486" y="101" on="1"/>
        <pt x="704" y="664" on="1"/>
        <pt x="709" y="678" on="0"/>
        <pt x="718" y="683" on="0"/>
        <pt x="737" y="683" on="1"/>
        <pt x="906" y="683" on="1"/>
        <pt x="906" y="652" on="1"/>
        <pt x="882" y="652" on="1"/>
        <pt x="853" y="652" on="0"/>
        <pt x="821" y="647" on="0"/>
        <pt x="806" y="637" on="0"/>
        <pt x="803" y="619" on="0"/>
        <pt x="803" y="605" on="1"/>
        <pt x="803" y="78" on="1"/>
        <pt x="803" y="65" on="0"/>
        <pt x="806" y="46" on="0"/>
        <pt x="821" y="36" on="0"/>
        <pt x="853" y="31" on="0"/>
        <pt x="882" y="31" on="1"/>
        <pt x="906" y="31" on="1"/>
        <pt x="906" y="0" on="1"/>
        <pt x="892" y="1" on="0"/>
        <pt x="855" y="2" on="0"/>
        <pt x="816" y="3" on="0"/>
        <pt x="778" y="3" on="0"/>
        <pt x="763" y="3" on="1"/>
        <pt x="748" y="3" on="0"/>
        <pt x="710" y="3" on="0"/>
        <pt x="670" y="2" on="0"/>
        <pt x="633" y="1" on="0"/>
        <pt x="619" y="0" on="1"/>
        <pt x="619" y="31" on="1"/>
        <pt x="643" y="31" on="1"/>
        <pt x="672" y="31" on="0"/>
        <pt x="704" y="36" on="0"/>
        <pt x="719" y="46" on="0"/>
        <pt x="722" y="65" on="0"/>
        <pt x="722" y="78" on="1"/>
        <pt x="722" y="652" on="1"/>
        <pt x="721" y="652" on="1"/>
        <pt x="476" y="21" on="1"/>
        <pt x="471" y="10" on="0"/>
        <pt x="466" y="0" on="0"/>
        <pt x="458" y="0" on="1"/>
        <pt x="450" y="0" on="0"/>
        <pt x="444" y="10" on="0"/>
        <pt x="439" y="21" on="1"/>
        <pt x="197" y="644" on="1"/>
        <pt x="196" y="644" on="1"/>
        <pt x="196" y="105" on="1"/>
        <pt x="196" y="95" on="0"/>
        <pt x="199" y="69" on="0"/>
        <pt x="219" y="47" on="0"/>
        <pt x="260" y="31" on="0"/>
        <pt x="299" y="31" on="1"/>
        <pt x="299" y="0" on="1"/>
        <pt x="273" y="1" on="0"/>
        <pt x="207" y="3" on="0"/>
        <pt x="182" y="3" on="1"/>
        <pt x="157" y="3" on="0"/>
        <pt x="91" y="1" on="0"/>
        <pt x="65" y="0" on="1"/>
        <pt x="65" y="31" on="1"/>
        <pt x="104" y="31" on="0"/>
        <pt x="145" y="47" on="0"/>
        <pt x="165" y="69" on="0"/>
        <pt x="168" y="95" on="0"/>
        <pt x="168" y="105" on="1"/>
        <pt x="168" y="605" on="1"/>
        <pt x="168" y="619" on="0"/>
        <pt x="165" y="637" on="0"/>
        <pt x="150" y="647" on="0"/>
        <pt x="118" y="652" on="0"/>
        <pt x="89" y="652" on="1"/>
        <pt x="65" y="652" on="1"/>
        <pt x="65" y="683" on="1"/>
        <pt x="234" y="683" on="1"/>
        <pt x="243" y="683" on="0"/>
        <pt x="253" y="682" on="0"/>
        <pt x="260" y="678" on="0"/>
        <pt x="266" y="669" on="0"/>
        <pt x="269" y="661" on="1"/>
      </contour>
    </TTGlyph>
    <TTGlyph name="N" xMin="61" yMin="0" xMax="744" yMax="683">
      <contour>
        <pt x="613" y="151" on="1"/>
        <pt x="613" y="578" on="1"/>
        <pt x="613" y="588" on="0"/>
        <pt x="610" y="614" on="0"/>
        <pt x="590" y="636" on="0"/>
        <pt x="549" y="652" on="0"/>
        <pt x="510" y="652" on="1"/>
        <pt x="510" y="683" on="1"/>
        <pt x="536" y="682" on="0"/>
        <pt x="602" y="680" on="0"/>
        <pt x="627" y="680" on="1"/>
        <pt x="652" y="680" on="0"/>
        <pt x="718" y="682" on="0"/>
        <pt x="744" y="683" on="1"/>
        <pt x="744" y="652" on="1"/>
        <pt x="705" y="652" on="0"/>
        <pt x="664" y="636" on="0"/>
        <pt x="644" y="614" on="0"/>
        <pt x="641" y="588" on="0"/>
        <pt x="641" y="578" on="1"/>
        <pt x="641" y="26" on="1"/>
        <pt x="641" y="12" on="0"/>
        <pt x="638" y="0" on="0"/>
        <pt x="627" y="0" on="1"/>
        <pt x="622" y="0" on="0"/>
        <pt x="617" y="4" on="0"/>
        <pt x="610" y="13" on="1"/>
        <pt x="202" y="613" on="1"/>
        <pt x="199" y="618" on="0"/>
        <pt x="196" y="621" on="0"/>
        <pt x="192" y="625" on="1"/>
        <pt x="192" y="105" on="1"/>
        <pt x="192" y="95" on="0"/>
        <pt x="195" y="69" on="0"/>
        <pt x="215" y="47" on="0"/>
        <pt x="256" y="31" on="0"/>
        <pt x="295" y="31" on="1"/>
        <pt x="295" y="0" on="1"/>
        <pt x="269" y="1" on="0"/>
        <pt x="203" y="3" on="0"/>
        <pt x="178" y="3" on="1"/>
        <pt x="153" y="3" on="0"/>
        <pt x="87" y="1" on="0"/>
        <pt x="61" y="0" on="1"/>
        <pt x="61" y="31" on="1"/>
        <pt x="100" y="31" on="0"/>
        <pt x="141" y="47" on="0"/>
        <pt x="161" y="69" on="0"/>
        <pt x="164" y="95" on="0"/>
        <pt x="164" y="105" on="1"/>
        <pt x="164" y="627" on="1"/>
        <pt x="164" y="641" on="0"/>
        <pt x="157" y="648" on="0"/>
        <pt x="140" y="650" on="1"/>
        <pt x="129" y="651" on="0"/>
        <pt x="101" y="652" on="0"/>
        <pt x="90" y="652" on="1"/>
        <pt x="61" y="652" on="1"/>
        <pt x="61" y="683" on="1"/>
        <pt x="231" y="683" on="1"/>
        <pt x="245" y="683" on="0"/>
        <pt x="253" y="679" on="0"/>
        <pt x="260" y="670" on="1"/>
      </contour>
    </TTGlyph>
    <TTGlyph name="O" xMin="84" yMin="-22" xMax="748" yMax="705">
      <contour>
        <pt x="748" y="339" on="1"/>
        <pt x="748" y="263" on="0"/>
        <pt x="695" y="131" on="0"/>
        <pt x="604" y="33" on="0"/>
        <pt x="483" y="-22" on="0"/>
        <pt x="416" y="-22" on="1"/>
        <pt x="349" y="-22" on="0"/>
        <pt x="228" y="33" on="0"/>
        <pt x="137" y="131" on="0"/>
        <pt x="84" y="263" on="0"/>
        <pt x="84" y="339" on="1"/>
        <pt x="84" y="416" on="0"/>
        <pt x="137" y="550" on="0"/>
        <pt x="228" y="649" on="0"/>
        <pt x="349" y="705" on="0"/>
        <pt x="416" y="705" on="1"/>
        <pt x="484" y="705" on="0"/>
        <pt x="604" y="649" on="0"/>
        <pt x="695" y="550" on="0"/>
        <pt x="748" y="416" on="0"/>
      </contour>
      <contour>
        <pt x="416" y="4" on="1"/>
        <pt x="451" y="4" on="0"/>
        <pt x="531" y="39" on="0"/>
        <pt x="600" y="120" on="0"/>
        <pt x="645" y="254" on="0"/>
        <pt x="645" y="353" on="1"/>
        <pt x="645" y="450" on="0"/>
        <pt x="597" y="577" on="0"/>
        <pt x="526" y="651" on="0"/>
        <pt x="447" y="680" on="0"/>
        <pt x="416" y="680" on="1"/>
        <pt x="385" y="680" on="0"/>
        <pt x="306" y="651" on="0"/>
        <pt x="235" y="577" on="0"/>
        <pt x="187" y="451" on="0"/>
        <pt x="187" y="353" on="1"/>
        <pt x="187" y="254" on="0"/>
        <pt x="232" y="120" on="0"/>
        <pt x="301" y="39" on="0"/>
        <pt x="381" y="4" on="0"/>
      </contour>
    </TTGlyph>
    <TTGlyph name="OE" xMin="98" yMin="-22" xMax="1012" yMax="705">
      <contour>
        <pt x="970" y="0" on="1"/>
        <pt x="583" y="0" on="1"/>
        <pt x="565" y="0" on="0"/>
        <pt x="535" y="-4" on="0"/>
        <pt x="507" y="-11" on="1"/>
        <pt x="473" y="-19" on="0"/>
        <pt x="441" y="-22" on="0"/>
        <pt x="427" y="-22" on="1"/>
        <pt x="363" y="-22" on="0"/>
        <pt x="245" y="32" on="0"/>
        <pt x="153" y="128" on="0"/>
        <pt x="98" y="260" on="0"/>
        <pt x="98" y="339" on="1"/>
        <pt x="98" y="418" on="0"/>
        <pt x="152" y="552" on="0"/>
        <pt x="244" y="650" on="0"/>
        <pt x="363" y="705" on="0"/>
        <pt x="428" y="705" on="1"/>
        <pt x="434" y="705" on="0"/>
        <pt x="466" y="703" on="0"/>
        <pt x="498" y="696" on="1"/>
        <pt x="514" y="692" on="0"/>
        <pt x="536" y="687" on="0"/>
        <pt x="555" y="684" on="0"/>
        <pt x="573" y="683" on="0"/>
        <pt x="583" y="683" on="1"/>
        <pt x="956" y="683" on="1"/>
        <pt x="984" y="458" on="1"/>
        <pt x="959" y="458" on="1"/>
        <pt x="953" y="509" on="0"/>
        <pt x="935" y="582" on="0"/>
        <pt x="897" y="629" on="0"/>
        <pt x="832" y="652" on="0"/>
        <pt x="778" y="652" on="1"/>
        <pt x="666" y="652" on="1"/>
        <pt x="648" y="652" on="0"/>
        <pt x="629" y="649" on="0"/>
        <pt x="619" y="640" on="0"/>
        <pt x="617" y="624" on="0"/>
        <pt x="617" y="612" on="1"/>
        <pt x="617" y="370" on="1"/>
        <pt x="725" y="370" on="1"/>
        <pt x="763" y="370" on="0"/>
        <pt x="808" y="382" on="0"/>
        <pt x="832" y="410" on="0"/>
        <pt x="839" y="455" on="0"/>
        <pt x="839" y="487" on="1"/>
        <pt x="864" y="487" on="1"/>
        <pt x="864" y="222" on="1"/>
        <pt x="839" y="222" on="1"/>
        <pt x="839" y="254" on="0"/>
        <pt x="832" y="299" on="0"/>
        <pt x="808" y="327" on="0"/>
        <pt x="763" y="339" on="0"/>
        <pt x="725" y="339" on="1"/>
        <pt x="617" y="339" on="1"/>
        <pt x="617" y="71" on="1"/>
        <pt x="617" y="59" on="0"/>
        <pt x="619" y="43" on="0"/>
        <pt x="629" y="34" on="0"/>
        <pt x="648" y="31" on="0"/>
        <pt x="666" y="31" on="1"/>
        <pt x="776" y="31" on="1"/>
        <pt x="840" y="31" on="0"/>
        <pt x="915" y="60" on="0"/>
        <pt x="957" y="117" on="0"/>
        <pt x="978" y="202" on="0"/>
        <pt x="987" y="258" on="1"/>
        <pt x="1012" y="258" on="1"/>
      </contour>
      <contour>
        <pt x="541" y="496" on="1"/>
        <pt x="541" y="552" on="0"/>
        <pt x="531" y="625" on="0"/>
        <pt x="505" y="667" on="0"/>
        <pt x="463" y="683" on="0"/>
        <pt x="431" y="683" on="1"/>
        <pt x="385" y="683" on="0"/>
        <pt x="301" y="634" on="0"/>
        <pt x="236" y="547" on="0"/>
        <pt x="198" y="426" on="0"/>
        <pt x="198" y="354" on="1"/>
        <pt x="198" y="279" on="0"/>
        <pt x="235" y="150" on="0"/>
        <pt x="299" y="54" on="0"/>
        <pt x="384" y="0" on="0"/>
        <pt x="431" y="0" on="1"/>
        <pt x="463" y="0" on="0"/>
        <pt x="505" y="16" on="0"/>
        <pt x="531" y="58" on="0"/>
        <pt x="541" y="131" on="0"/>
        <pt x="541" y="187" on="1"/>
      </contour>
    </TTGlyph>
    <TTGlyph name="Oslash" xMin="84" yMin="-56" xMax="748" yMax="739">
      <contour>
        <pt x="624" y="624" on="1"/>
        <pt x="627" y="621" on="0"/>
        <pt x="667" y="582" on="0"/>
        <pt x="712" y="510" on="0"/>
        <pt x="748" y="407" on="0"/>
        <pt x="748" y="339" on="1"/>
        <pt x="748" y="263" on="0"/>
        <pt x="695" y="131" on="0"/>
        <pt x="604" y="33" on="0"/>
        <pt x="483" y="-22" on="0"/>
        <pt x="416" y="-22" on="1"/>
        <pt x="367" y="-22" on="0"/>
        <pt x="271" y="10" on="0"/>
        <pt x="227" y="42" on="1"/>
        <pt x="160" y="-56" on="1"/>
        <pt x="140" y="-41" on="1"/>
        <pt x="208" y="58" on="1"/>
        <pt x="187" y="75" on="0"/>
        <pt x="143" y="129" on="0"/>
        <pt x="107" y="199" on="0"/>
        <pt x="84" y="287" on="0"/>
        <pt x="84" y="339" on="1"/>
        <pt x="84" y="416" on="0"/>
        <pt x="137" y="550" on="0"/>
        <pt x="228" y="649" on="0"/>
        <pt x="349" y="705" on="0"/>
        <pt x="416" y="705" on="1"/>
        <pt x="466" y="705" on="0"/>
        <pt x="563" y="672" on="0"/>
        <pt x="605" y="641" on="1"/>
        <pt x="672" y="739" on="1"/>
        <pt x="692" y="724" on="1"/>
      </contour>
      <contour>
        <pt x="581" y="607" on="1"/>
        <pt x="575" y="614" on="0"/>
        <pt x="548" y="639" on="0"/>
        <pt x="506" y="664" on="0"/>
        <pt x="450" y="683" on="0"/>
        <pt x="416" y="683" on="1"/>
        <pt x="394" y="683" on="0"/>
        <pt x="345" y="672" on="0"/>
        <pt x="296" y="648" on="0"/>
        <pt x="250" y="609" on="0"/>
        <pt x="230" y="580" on="1"/>
        <pt x="209" y="550" on="0"/>
        <pt x="186" y="481" on="0"/>
        <pt x="175" y="415" on="0"/>
        <pt x="173" y="358" on="0"/>
        <pt x="173" y="339" on="1"/>
        <pt x="173" y="264" on="0"/>
        <pt x="199" y="144" on="0"/>
        <pt x="234" y="97" on="1"/>
      </contour>
      <contour>
        <pt x="251" y="76" on="1"/>
        <pt x="277" y="46" on="0"/>
        <pt x="362" y="0" on="0"/>
        <pt x="416" y="0" on="1"/>
        <pt x="471" y="0" on="0"/>
        <pt x="565" y="52" on="0"/>
        <pt x="597" y="94" on="1"/>
        <pt x="617" y="122" on="0"/>
        <pt x="642" y="185" on="0"/>
        <pt x="655" y="249" on="0"/>
        <pt x="659" y="311" on="0"/>
        <pt x="659" y="339" on="1"/>
        <pt x="659" y="411" on="0"/>
        <pt x="634" y="536" on="0"/>
        <pt x="597" y="586" on="1"/>
      </contour>
    </TTGlyph>
    <TTGlyph name="P" xMin="63" yMin="0" xMax="651" yMax="683">
      <contour>
        <pt x="255" y="78" on="1"/>
        <pt x="255" y="65" on="0"/>
        <pt x="258" y="46" on="0"/>
        <pt x="273" y="36" on="0"/>
        <pt x="305" y="31" on="0"/>
        <pt x="334" y="31" on="1"/>
        <pt x="358" y="31" on="1"/>
        <pt x="358" y="0" on="1"/>
        <pt x="345" y="1" on="0"/>
        <pt x="306" y="2" on="0"/>
        <pt x="264" y="3" on="0"/>
        <pt x="224" y="3" on="0"/>
        <pt x="210" y="3" on="1"/>
        <pt x="196" y="3" on="0"/>
        <pt x="156" y="3" on="0"/>
        <pt x="115" y="2" on="0"/>
        <pt x="76" y="1" on="0"/>
        <pt x="63" y="0" on="1"/>
        <pt x="63" y="31" on="1"/>
        <pt x="87" y="31" on="1"/>
        <pt x="116" y="31" on="0"/>
        <pt x="148" y="36" on="0"/>
        <pt x="163" y="46" on="0"/>
        <pt x="166" y="65" on="0"/>
        <pt x="166" y="78" on="1"/>
        <pt x="166" y="605" on="1"/>
        <pt x="166" y="619" on="0"/>
        <pt x="163" y="637" on="0"/>
        <pt x="148" y="647" on="0"/>
        <pt x="116" y="652" on="0"/>
        <pt x="87" y="652" on="1"/>
        <pt x="63" y="652" on="1"/>
        <pt x="63" y="683" on="1"/>
        <pt x="416" y="683" on="1"/>
        <pt x="467" y="683" on="0"/>
        <pt x="553" y="652" on="0"/>
        <pt x="616" y="601" on="0"/>
        <pt x="651" y="534" on="0"/>
        <pt x="651" y="497" on="1"/>
        <pt x="651" y="459" on="0"/>
        <pt x="614" y="393" on="0"/>
        <pt x="551" y="344" on="0"/>
        <pt x="468" y="316" on="0"/>
        <pt x="423" y="316" on="1"/>
        <pt x="255" y="316" on="1"/>
      </contour>
      <contour>
        <pt x="390" y="342" on="1"/>
        <pt x="449" y="342" on="0"/>
        <pt x="513" y="377" on="0"/>
        <pt x="543" y="427" on="0"/>
        <pt x="548" y="479" on="0"/>
        <pt x="548" y="497" on="1"/>
        <pt x="548" y="515" on="0"/>
        <pt x="543" y="568" on="0"/>
        <pt x="513" y="617" on="0"/>
        <pt x="449" y="652" on="0"/>
        <pt x="390" y="652" on="1"/>
        <pt x="301" y="652" on="1"/>
        <pt x="283" y="652" on="0"/>
        <pt x="264" y="649" on="0"/>
        <pt x="254" y="640" on="0"/>
        <pt x="252" y="624" on="0"/>
        <pt x="252" y="612" on="1"/>
        <pt x="252" y="342" on="1"/>
      </contour>
    </TTGlyph>
    <TTGlyph name="Phi" xMin="84" yMin="0" xMax="693" yMax="683">
      <contour>
        <pt x="427" y="79" on="1"/>
        <pt x="427" y="66" on="0"/>
        <pt x="430" y="48" on="0"/>
        <pt x="448" y="36" on="0"/>
        <pt x="486" y="31" on="0"/>
        <pt x="522" y="31" on="1"/>
        <pt x="555" y="31" on="1"/>
        <pt x="555" y="0" on="1"/>
        <pt x="542" y="1" on="0"/>
        <pt x="497" y="2" on="0"/>
        <pt x="447" y="3" on="0"/>
        <pt x="400" y="3" on="0"/>
        <pt x="385" y="3" on="1"/>
        <pt x="370" y="3" on="0"/>
        <pt x="323" y="3" on="0"/>
        <pt x="274" y="2" on="0"/>
        <pt x="230" y="1" on="0"/>
        <pt x="216" y="0" on="1"/>
        <pt x="216" y="31" on="1"/>
        <pt x="249" y="31" on="1"/>
        <pt x="285" y="31" on="0"/>
        <pt x="323" y="36" on="0"/>
        <pt x="341" y="48" on="0"/>
        <pt x="344" y="66" on="0"/>
        <pt x="344" y="79" on="1"/>
        <pt x="344" y="135" on="1"/>
        <pt x="288" y="141" on="0"/>
        <pt x="193" y="178" on="0"/>
        <pt x="123" y="233" on="0"/>
        <pt x="84" y="303" on="0"/>
        <pt x="84" y="342" on="1"/>
        <pt x="84" y="379" on="0"/>
        <pt x="122" y="449" on="0"/>
        <pt x="191" y="504" on="0"/>
        <pt x="287" y="542" on="0"/>
        <pt x="344" y="548" on="1"/>
        <pt x="344" y="604" on="1"/>
        <pt x="344" y="617" on="0"/>
        <pt x="341" y="635" on="0"/>
        <pt x="323" y="647" on="0"/>
        <pt x="285" y="652" on="0"/>
        <pt x="249" y="652" on="1"/>
        <pt x="216" y="652" on="1"/>
        <pt x="216" y="683" on="1"/>
        <pt x="230" y="682" on="0"/>
        <pt x="274" y="681" on="0"/>
        <pt x="324" y="680" on="0"/>
        <pt x="371" y="680" on="0"/>
        <pt x="386" y="680" on="1"/>
        <pt x="401" y="680" on="0"/>
        <pt x="448" y="680" on="0"/>
        <pt x="497" y="681" on="0"/>
        <pt x="542" y="682" on="0"/>
        <pt x="555" y="683" on="1"/>
        <pt x="555" y="652" on="1"/>
        <pt x="522" y="652" on="1"/>
        <pt x="486" y="652" on="0"/>
        <pt x="448" y="647" on="0"/>
        <pt x="430" y="635" on="0"/>
        <pt x="427" y="617" on="0"/>
        <pt x="427" y="604" on="1"/>
        <pt x="427" y="548" on="1"/>
        <pt x="484" y="544" on="0"/>
        <pt x="581" y="507" on="0"/>
        <pt x="653" y="451" on="0"/>
        <pt x="693" y="380" on="0"/>
        <pt x="693" y="341" on="1"/>
        <pt x="693" y="303" on="0"/>
        <pt x="653" y="233" on="0"/>
        <pt x="583" y="177" on="0"/>
        <pt x="485" y="140" on="0"/>
        <pt x="427" y="135" on="1"/>
      </contour>
      <contour>
        <pt x="344" y="525" on="1"/>
        <pt x="288" y="518" on="0"/>
        <pt x="224" y="473" on="0"/>
        <pt x="192" y="417" on="0"/>
        <pt x="184" y="361" on="0"/>
        <pt x="184" y="341" on="1"/>
        <pt x="184" y="318" on="0"/>
        <pt x="194" y="260" on="0"/>
        <pt x="227" y="207" on="0"/>
        <pt x="291" y="165" on="0"/>
        <pt x="344" y="158" on="1"/>
      </contour>
      <contour>
        <pt x="427" y="157" on="1"/>
        <pt x="484" y="164" on="0"/>
        <pt x="550" y="206" on="0"/>
        <pt x="584" y="261" on="0"/>
        <pt x="593" y="320" on="0"/>
        <pt x="593" y="342" on="1"/>
        <pt x="593" y="371" on="0"/>
        <pt x="580" y="431" on="0"/>
        <pt x="544" y="482" on="0"/>
        <pt x="479" y="520" on="0"/>
        <pt x="427" y="526" on="1"/>
      </contour>
    </TTGlyph>
    <TTGlyph name="Pi" xMin="61" yMin="0" xMax="744" yMax="680">
      <contour>
        <pt x="641" y="78" on="1"/>
        <pt x="641" y="65" on="0"/>
        <pt x="644" y="46" on="0"/>
        <pt x="659" y="36" on="0"/>
        <pt x="691" y="31" on="0"/>
        <pt x="720" y="31" on="1"/>
        <pt x="744" y="31" on="1"/>
        <pt x="744" y="0" on="1"/>
        <pt x="731" y="1" on="0"/>
        <pt x="692" y="2" on="0"/>
        <pt x="650" y="3" on="0"/>
        <pt x="610" y="3" on="0"/>
        <pt x="596" y="3" on="1"/>
        <pt x="582" y="3" on="0"/>
        <pt x="542" y="3" on="0"/>
        <pt x="501" y="2" on="0"/>
        <pt x="462" y="1" on="0"/>
        <pt x="449" y="0" on="1"/>
        <pt x="449" y="31" on="1"/>
        <pt x="473" y="31" on="1"/>
        <pt x="502" y="31" on="0"/>
        <pt x="534" y="36" on="0"/>
        <pt x="549" y="46" on="0"/>
        <pt x="552" y="65" on="0"/>
        <pt x="552" y="78" on="1"/>
        <pt x="552" y="649" on="1"/>
        <pt x="253" y="649" on="1"/>
        <pt x="253" y="78" on="1"/>
        <pt x="253" y="65" on="0"/>
        <pt x="256" y="46" on="0"/>
        <pt x="271" y="36" on="0"/>
        <pt x="303" y="31" on="0"/>
        <pt x="332" y="31" on="1"/>
        <pt x="356" y="31" on="1"/>
        <pt x="356" y="0" on="1"/>
        <pt x="343" y="1" on="0"/>
        <pt x="304" y="2" on="0"/>
        <pt x="262" y="3" on="0"/>
        <pt x="222" y="3" on="0"/>
        <pt x="208" y="3" on="1"/>
        <pt x="194" y="3" on="0"/>
        <pt x="154" y="3" on="0"/>
        <pt x="113" y="2" on="0"/>
        <pt x="74" y="1" on="0"/>
        <pt x="61" y="0" on="1"/>
        <pt x="61" y="31" on="1"/>
        <pt x="85" y="31" on="1"/>
        <pt x="114" y="31" on="0"/>
        <pt x="146" y="36" on="0"/>
        <pt x="161" y="46" on="0"/>
        <pt x="164" y="65" on="0"/>
        <pt x="164" y="78" on="1"/>
        <pt x="164" y="602" on="1"/>
        <pt x="164" y="616" on="0"/>
        <pt x="161" y="634" on="0"/>
        <pt x="146" y="644" on="0"/>
        <pt x="114" y="649" on="0"/>
        <pt x="85" y="649" on="1"/>
        <pt x="61" y="649" on="1"/>
        <pt x="61" y="680" on="1"/>
        <pt x="744" y="680" on="1"/>
        <pt x="744" y="649" on="1"/>
        <pt x="720" y="649" on="1"/>
        <pt x="691" y="649" on="0"/>
        <pt x="659" y="644" on="0"/>
        <pt x="644" y="634" on="0"/>
        <pt x="641" y="616" on="0"/>
        <pt x="641" y="602" on="1"/>
      </contour>
    </TTGlyph>
    <TTGlyph name="Psi" xMin="85" yMin="0" xMax="747" yMax="683">
      <contour>
        <pt x="455" y="160" on="1"/>
        <pt x="497" y="170" on="0"/>
        <pt x="551" y="219" on="0"/>
        <pt x="583" y="286" on="0"/>
        <pt x="596" y="364" on="0"/>
        <pt x="596" y="402" on="1"/>
        <pt x="596" y="456" on="0"/>
        <pt x="613" y="517" on="0"/>
        <pt x="639" y="547" on="0"/>
        <pt x="670" y="554" on="0"/>
        <pt x="685" y="554" on="1"/>
        <pt x="723" y="554" on="1"/>
        <pt x="735" y="554" on="0"/>
        <pt x="747" y="551" on="0"/>
        <pt x="747" y="543" on="1"/>
        <pt x="747" y="536" on="0"/>
        <pt x="739" y="533" on="0"/>
        <pt x="734" y="532" on="1"/>
        <pt x="714" y="529" on="0"/>
        <pt x="692" y="498" on="0"/>
        <pt x="681" y="461" on="0"/>
        <pt x="679" y="426" on="0"/>
        <pt x="679" y="420" on="1"/>
        <pt x="679" y="383" on="0"/>
        <pt x="665" y="292" on="0"/>
        <pt x="619" y="208" on="0"/>
        <pt x="530" y="145" on="0"/>
        <pt x="455" y="135" on="1"/>
        <pt x="455" y="79" on="1"/>
        <pt x="455" y="66" on="0"/>
        <pt x="458" y="48" on="0"/>
        <pt x="476" y="36" on="0"/>
        <pt x="514" y="31" on="0"/>
        <pt x="550" y="31" on="1"/>
        <pt x="583" y="31" on="1"/>
        <pt x="583" y="0" on="1"/>
        <pt x="570" y="1" on="0"/>
        <pt x="525" y="2" on="0"/>
        <pt x="475" y="3" on="0"/>
        <pt x="428" y="3" on="0"/>
        <pt x="413" y="3" on="1"/>
        <pt x="398" y="3" on="0"/>
        <pt x="351" y="3" on="0"/>
        <pt x="302" y="2" on="0"/>
        <pt x="258" y="1" on="0"/>
        <pt x="244" y="0" on="1"/>
        <pt x="244" y="31" on="1"/>
        <pt x="277" y="31" on="1"/>
        <pt x="313" y="31" on="0"/>
        <pt x="351" y="36" on="0"/>
        <pt x="369" y="48" on="0"/>
        <pt x="372" y="66" on="0"/>
        <pt x="372" y="79" on="1"/>
        <pt x="372" y="135" on="1"/>
        <pt x="319" y="142" on="0"/>
        <pt x="237" y="186" on="0"/>
        <pt x="182" y="254" on="0"/>
        <pt x="153" y="344" on="0"/>
        <pt x="153" y="396" on="1"/>
        <pt x="153" y="440" on="0"/>
        <pt x="143" y="493" on="0"/>
        <pt x="128" y="521" on="0"/>
        <pt x="106" y="531" on="0"/>
        <pt x="94" y="532" on="1"/>
        <pt x="85" y="534" on="0"/>
        <pt x="85" y="543" on="1"/>
        <pt x="85" y="551" on="0"/>
        <pt x="99" y="554" on="0"/>
        <pt x="110" y="554" on="1"/>
        <pt x="147" y="554" on="1"/>
        <pt x="164" y="554" on="0"/>
        <pt x="195" y="544" on="0"/>
        <pt x="220" y="514" on="0"/>
        <pt x="236" y="459" on="0"/>
        <pt x="236" y="414" on="1"/>
        <pt x="236" y="390" on="0"/>
        <pt x="242" y="314" on="0"/>
        <pt x="268" y="238" on="0"/>
        <pt x="323" y="173" on="0"/>
        <pt x="372" y="160" on="1"/>
        <pt x="372" y="604" on="1"/>
        <pt x="372" y="617" on="0"/>
        <pt x="369" y="635" on="0"/>
        <pt x="351" y="647" on="0"/>
        <pt x="313" y="652" on="0"/>
        <pt x="277" y="652" on="1"/>
        <pt x="244" y="652" on="1"/>
        <pt x="244" y="683" on="1"/>
        <pt x="258" y="682" on="0"/>
        <pt x="302" y="681" on="0"/>
        <pt x="352" y="680" on="0"/>
        <pt x="399" y="680" on="0"/>
        <pt x="414" y="680" on="1"/>
        <pt x="429" y="680" on="0"/>
        <pt x="476" y="680" on="0"/>
        <pt x="525" y="681" on="0"/>
        <pt x="570" y="682" on="0"/>
        <pt x="583" y="683" on="1"/>
        <pt x="583" y="652" on="1"/>
        <pt x="550" y="652" on="1"/>
        <pt x="514" y="652" on="0"/>
        <pt x="476" y="647" on="0"/>
        <pt x="458" y="635" on="0"/>
        <pt x="455" y="617" on="0"/>
        <pt x="455" y="604" on="1"/>
      </contour>
    </TTGlyph>
    <TTGlyph name="Q" xMin="84" yMin="-194" xMax="754" yMax="705">
      <contour>
        <pt x="545" y="6" on="1"/>
        <pt x="567" y="-51" on="0"/>
        <pt x="612" y="-91" on="0"/>
        <pt x="641" y="-91" on="1"/>
        <pt x="673" y="-91" on="0"/>
        <pt x="727" y="-49" on="0"/>
        <pt x="732" y="-7" on="1"/>
        <pt x="733" y="1" on="0"/>
        <pt x="736" y="11" on="0"/>
        <pt x="743" y="11" on="1"/>
        <pt x="751" y="11" on="0"/>
        <pt x="754" y="-2" on="0"/>
        <pt x="754" y="-10" on="1"/>
        <pt x="754" y="-28" on="0"/>
        <pt x="745" y="-90" on="0"/>
        <pt x="720" y="-150" on="0"/>
        <pt x="672" y="-194" on="0"/>
        <pt x="633" y="-194" on="1"/>
        <pt x="599" y="-194" on="0"/>
        <pt x="557" y="-164" on="0"/>
        <pt x="532" y="-113" on="0"/>
        <pt x="517" y="-45" on="0"/>
        <pt x="511" y="-7" on="1"/>
        <pt x="483" y="-15" on="0"/>
        <pt x="439" y="-22" on="0"/>
        <pt x="416" y="-22" on="1"/>
        <pt x="349" y="-22" on="0"/>
        <pt x="228" y="33" on="0"/>
        <pt x="137" y="131" on="0"/>
        <pt x="84" y="263" on="0"/>
        <pt x="84" y="339" on="1"/>
        <pt x="84" y="416" on="0"/>
        <pt x="137" y="550" on="0"/>
        <pt x="228" y="649" on="0"/>
        <pt x="349" y="705" on="0"/>
        <pt x="416" y="705" on="1"/>
        <pt x="484" y="705" on="0"/>
        <pt x="604" y="649" on="0"/>
        <pt x="695" y="550" on="0"/>
        <pt x="748" y="416" on="0"/>
        <pt x="748" y="339" on="1"/>
        <pt x="748" y="289" on="0"/>
        <pt x="723" y="190" on="0"/>
        <pt x="672" y="102" on="0"/>
        <pt x="596" y="30" on="0"/>
      </contour>
      <contour>
        <pt x="350" y="16" on="1"/>
        <pt x="349" y="18" on="0"/>
        <pt x="336" y="44" on="0"/>
        <pt x="336" y="64" on="1"/>
        <pt x="336" y="80" on="0"/>
        <pt x="348" y="110" on="0"/>
        <pt x="369" y="134" on="0"/>
        <pt x="399" y="148" on="0"/>
        <pt x="417" y="148" on="1"/>
        <pt x="441" y="148" on="0"/>
        <pt x="477" y="129" on="0"/>
        <pt x="504" y="99" on="0"/>
        <pt x="523" y="61" on="0"/>
        <pt x="530" y="42" on="1"/>
        <pt x="546" y="53" on="0"/>
        <pt x="587" y="96" on="0"/>
        <pt x="623" y="166" on="0"/>
        <pt x="648" y="268" on="0"/>
        <pt x="648" y="339" on="1"/>
        <pt x="648" y="436" on="0"/>
        <pt x="602" y="567" on="0"/>
        <pt x="532" y="646" on="0"/>
        <pt x="451" y="680" on="0"/>
        <pt x="416" y="680" on="1"/>
        <pt x="381" y="680" on="0"/>
        <pt x="299" y="646" on="0"/>
        <pt x="230" y="567" on="0"/>
        <pt x="184" y="436" on="0"/>
        <pt x="184" y="339" on="1"/>
        <pt x="184" y="262" on="0"/>
        <pt x="215" y="150" on="0"/>
        <pt x="263" y="73" on="0"/>
        <pt x="322" y="27" on="0"/>
      </contour>
      <contour>
        <pt x="505" y="26" on="1"/>
        <pt x="501" y="46" on="0"/>
        <pt x="488" y="82" on="0"/>
        <pt x="468" y="110" on="0"/>
        <pt x="439" y="126" on="0"/>
        <pt x="418" y="126" on="1"/>
        <pt x="403" y="126" on="0"/>
        <pt x="381" y="114" on="0"/>
        <pt x="366" y="96" on="0"/>
        <pt x="358" y="74" on="0"/>
        <pt x="358" y="64" on="1"/>
        <pt x="358" y="59" on="0"/>
        <pt x="362" y="38" on="0"/>
        <pt x="374" y="18" on="0"/>
        <pt x="397" y="3" on="0"/>
        <pt x="416" y="3" on="1"/>
        <pt x="462" y="3" on="0"/>
      </contour>
    </TTGlyph>
    <TTGlyph name="R" xMin="63" yMin="-22" xMax="760" yMax="683">
      <contour>
        <pt x="463" y="340" on="1"/>
        <pt x="505" y="326" on="0"/>
        <pt x="571" y="272" on="0"/>
        <pt x="585" y="224" on="1"/>
        <pt x="598" y="144" on="1"/>
        <pt x="603" y="109" on="0"/>
        <pt x="613" y="55" on="0"/>
        <pt x="628" y="19" on="0"/>
        <pt x="651" y="0" on="0"/>
        <pt x="669" y="0" on="1"/>
        <pt x="678" y="0" on="0"/>
        <pt x="700" y="8" on="0"/>
        <pt x="719" y="28" on="0"/>
        <pt x="733" y="62" on="0"/>
        <pt x="735" y="89" on="1"/>
        <pt x="736" y="94" on="0"/>
        <pt x="739" y="105" on="0"/>
        <pt x="747" y="105" on="1"/>
        <pt x="757" y="105" on="0"/>
        <pt x="760" y="93" on="0"/>
        <pt x="760" y="88" on="1"/>
        <pt x="760" y="78" on="0"/>
        <pt x="752" y="41" on="0"/>
        <pt x="731" y="5" on="0"/>
        <pt x="694" y="-22" on="0"/>
        <pt x="665" y="-22" on="1"/>
        <pt x="642" y="-22" on="0"/>
        <pt x="570" y="-7" on="0"/>
        <pt x="539" y="20" on="1"/>
        <pt x="524" y="34" on="0"/>
        <pt x="507" y="64" on="0"/>
        <pt x="499" y="99" on="0"/>
        <pt x="498" y="139" on="0"/>
        <pt x="498" y="163" on="1"/>
        <pt x="498" y="188" on="0"/>
        <pt x="497" y="226" on="0"/>
        <pt x="490" y="257" on="0"/>
        <pt x="474" y="284" on="0"/>
        <pt x="460" y="297" on="1"/>
        <pt x="447" y="310" on="0"/>
        <pt x="419" y="324" on="0"/>
        <pt x="394" y="330" on="0"/>
        <pt x="373" y="331" on="0"/>
        <pt x="367" y="331" on="1"/>
        <pt x="252" y="331" on="1"/>
        <pt x="252" y="78" on="1"/>
        <pt x="252" y="65" on="0"/>
        <pt x="255" y="46" on="0"/>
        <pt x="270" y="36" on="0"/>
        <pt x="302" y="31" on="0"/>
        <pt x="331" y="31" on="1"/>
        <pt x="355" y="31" on="1"/>
        <pt x="355" y="0" on="1"/>
        <pt x="342" y="1" on="0"/>
        <pt x="303" y="2" on="0"/>
        <pt x="263" y="3" on="0"/>
        <pt x="224" y="3" on="0"/>
        <pt x="209" y="3" on="1"/>
        <pt x="194" y="3" on="0"/>
        <pt x="155" y="3" on="0"/>
        <pt x="115" y="2" on="0"/>
        <pt x="77" y="1" on="0"/>
        <pt x="63" y="0" on="1"/>
        <pt x="63" y="31" on="1"/>
        <pt x="87" y="31" on="1"/>
        <pt x="116" y="31" on="0"/>
        <pt x="148" y="36" on="0"/>
        <pt x="163" y="46" on="0"/>
        <pt x="166" y="65" on="0"/>
        <pt x="166" y="78" on="1"/>
        <pt x="166" y="605" on="1"/>
        <pt x="166" y="619" on="0"/>
        <pt x="163" y="637" on="0"/>
        <pt x="148" y="647" on="0"/>
        <pt x="116" y="652" on="0"/>
        <pt x="87" y="652" on="1"/>
        <pt x="63" y="652" on="1"/>
        <pt x="63" y="683" on="1"/>
        <pt x="377" y="683" on="1"/>
        <pt x="432" y="683" on="0"/>
        <pt x="527" y="654" on="0"/>
        <pt x="598" y="604" on="0"/>
        <pt x="638" y="539" on="0"/>
        <pt x="638" y="503" on="1"/>
        <pt x="638" y="474" on="0"/>
        <pt x="611" y="422" on="0"/>
        <pt x="563" y="380" on="0"/>
        <pt x="499" y="349" on="0"/>
      </contour>
      <contour>
        <pt x="363" y="353" on="1"/>
        <pt x="419" y="353" on="0"/>
        <pt x="486" y="380" on="0"/>
        <pt x="523" y="424" on="0"/>
        <pt x="535" y="477" on="0"/>
        <pt x="535" y="503" on="1"/>
        <pt x="535" y="557" on="0"/>
        <pt x="497" y="618" on="0"/>
        <pt x="438" y="646" on="0"/>
        <pt x="367" y="652" on="0"/>
        <pt x="333" y="652" on="1"/>
        <pt x="318" y="652" on="0"/>
        <pt x="282" y="652" on="0"/>
        <pt x="274" y="650" on="1"/>
        <pt x="257" y="648" on="0"/>
        <pt x="252" y="629" on="0"/>
        <pt x="252" y="612" on="1"/>
        <pt x="252" y="353" on="1"/>
      </contour>
    </TTGlyph>
    <TTGlyph name="S" xMin="84" yMin="-22" xMax="526" yMax="705">
      <contour>
        <pt x="376" y="384" on="1"/>
        <pt x="406" y="377" on="0"/>
        <pt x="460" y="342" on="0"/>
        <pt x="502" y="289" on="0"/>
        <pt x="526" y="222" on="0"/>
        <pt x="526" y="183" on="1"/>
        <pt x="526" y="143" on="0"/>
        <pt x="497" y="69" on="0"/>
        <pt x="446" y="12" on="0"/>
        <pt x="374" y="-22" on="0"/>
        <pt x="330" y="-22" on="1"/>
        <pt x="262" y="-22" on="0"/>
        <pt x="169" y="23" on="0"/>
        <pt x="146" y="48" on="1"/>
        <pt x="134" y="28" on="0"/>
        <pt x="119" y="6" on="0"/>
        <pt x="112" y="-6" on="0"/>
        <pt x="110" y="-9" on="0"/>
        <pt x="110" y="-9" on="1"/>
        <pt x="105" y="-17" on="0"/>
        <pt x="100" y="-22" on="0"/>
        <pt x="95" y="-22" on="1"/>
        <pt x="87" y="-22" on="0"/>
        <pt x="84" y="-11" on="0"/>
        <pt x="84" y="2" on="1"/>
        <pt x="84" y="202" on="1"/>
        <pt x="84" y="216" on="0"/>
        <pt x="87" y="227" on="0"/>
        <pt x="97" y="227" on="1"/>
        <pt x="99" y="227" on="0"/>
        <pt x="108" y="225" on="0"/>
        <pt x="109" y="217" on="1"/>
        <pt x="109" y="204" on="0"/>
        <pt x="113" y="167" on="0"/>
        <pt x="125" y="125" on="0"/>
        <pt x="151" y="82" on="0"/>
        <pt x="173" y="61" on="1"/>
        <pt x="205" y="33" on="0"/>
        <pt x="291" y="9" on="0"/>
        <pt x="329" y="9" on="1"/>
        <pt x="361" y="9" on="0"/>
        <pt x="412" y="34" on="0"/>
        <pt x="447" y="74" on="0"/>
        <pt x="466" y="127" on="0"/>
        <pt x="466" y="154" on="1"/>
        <pt x="466" y="182" on="0"/>
        <pt x="449" y="229" on="0"/>
        <pt x="421" y="265" on="0"/>
        <pt x="386" y="289" on="0"/>
        <pt x="368" y="294" on="1"/>
        <pt x="245" y="324" on="1"/>
        <pt x="190" y="338" on="0"/>
        <pt x="126" y="389" on="0"/>
        <pt x="93" y="446" on="0"/>
        <pt x="84" y="499" on="0"/>
        <pt x="84" y="513" on="1"/>
        <pt x="84" y="552" on="0"/>
        <pt x="113" y="622" on="0"/>
        <pt x="166" y="674" on="0"/>
        <pt x="237" y="705" on="0"/>
        <pt x="279" y="705" on="1"/>
        <pt x="318" y="705" on="0"/>
        <pt x="376" y="685" on="0"/>
        <pt x="416" y="659" on="0"/>
        <pt x="437" y="637" on="0"/>
        <pt x="438" y="635" on="1"/>
        <pt x="473" y="692" on="1"/>
        <pt x="478" y="701" on="0"/>
        <pt x="483" y="705" on="0"/>
        <pt x="488" y="705" on="1"/>
        <pt x="496" y="705" on="0"/>
        <pt x="499" y="694" on="0"/>
        <pt x="499" y="681" on="1"/>
        <pt x="499" y="480" on="1"/>
        <pt x="499" y="466" on="0"/>
        <pt x="496" y="456" on="0"/>
        <pt x="486" y="456" on="1"/>
        <pt x="478" y="456" on="0"/>
        <pt x="475" y="463" on="0"/>
        <pt x="474" y="468" on="1"/>
        <pt x="473" y="480" on="0"/>
        <pt x="466" y="519" on="0"/>
        <pt x="450" y="566" on="0"/>
        <pt x="424" y="614" on="0"/>
        <pt x="381" y="652" on="0"/>
        <pt x="321" y="677" on="0"/>
        <pt x="279" y="677" on="1"/>
        <pt x="250" y="677" on="0"/>
        <pt x="200" y="656" on="0"/>
        <pt x="164" y="619" on="0"/>
        <pt x="144" y="571" on="0"/>
        <pt x="144" y="544" on="1"/>
        <pt x="144" y="518" on="0"/>
        <pt x="162" y="475" on="0"/>
        <pt x="191" y="442" on="0"/>
        <pt x="227" y="420" on="0"/>
        <pt x="246" y="415" on="1"/>
      </contour>
    </TTGlyph>
    <TTGlyph name="Sigma" xMin="84" yMin="0" xMax="693" yMax="683">
      <contour>
        <pt x="149" y="42" on="1"/>
        <pt x="425" y="42" on="1"/>
        <pt x="484" y="42" on="0"/>
        <pt x="569" y="56" on="0"/>
        <pt x="628" y="97" on="0"/>
        <pt x="661" y="173" on="0"/>
        <pt x="668" y="236" on="1"/>
        <pt x="693" y="236" on="1"/>
        <pt x="665" y="0" on="1"/>
        <pt x="110" y="0" on="1"/>
        <pt x="99" y="0" on="0"/>
        <pt x="85" y="3" on="0"/>
        <pt x="85" y="11" on="1"/>
        <pt x="85" y="13" on="0"/>
        <pt x="87" y="19" on="0"/>
        <pt x="95" y="27" on="1"/>
        <pt x="333" y="298" on="1"/>
        <pt x="84" y="660" on="1"/>
        <pt x="84" y="677" on="0"/>
        <pt x="92" y="683" on="0"/>
        <pt x="110" y="683" on="1"/>
        <pt x="665" y="683" on="1"/>
        <pt x="693" y="458" on="1"/>
        <pt x="668" y="458" on="1"/>
        <pt x="660" y="517" on="0"/>
        <pt x="631" y="593" on="0"/>
        <pt x="576" y="636" on="0"/>
        <pt x="491" y="652" on="0"/>
        <pt x="428" y="652" on="1"/>
        <pt x="197" y="652" on="1"/>
        <pt x="402" y="356" on="1"/>
        <pt x="404" y="353" on="0"/>
        <pt x="409" y="346" on="0"/>
        <pt x="409" y="342" on="1"/>
        <pt x="409" y="340" on="0"/>
        <pt x="407" y="334" on="0"/>
        <pt x="400" y="326" on="1"/>
      </contour>
    </TTGlyph>
    <TTGlyph name="T" xMin="64" yMin="0" xMax="713" yMax="677">
      <contour>
        <pt x="713" y="452" on="1"/>
        <pt x="688" y="452" on="1"/>
        <pt x="683" y="512" on="0"/>
        <pt x="668" y="588" on="0"/>
        <pt x="631" y="631" on="0"/>
        <pt x="565" y="646" on="0"/>
        <pt x="508" y="646" on="1"/>
        <pt x="494" y="646" on="0"/>
        <pt x="459" y="646" on="0"/>
        <pt x="451" y="644" on="1"/>
        <pt x="437" y="641" on="0"/>
        <pt x="433" y="621" on="0"/>
        <pt x="433" y="606" on="1"/>
        <pt x="433" y="79" on="1"/>
        <pt x="433" y="66" on="0"/>
        <pt x="436" y="48" on="0"/>
        <pt x="456" y="36" on="0"/>
        <pt x="499" y="31" on="0"/>
        <pt x="538" y="31" on="1"/>
        <pt x="578" y="31" on="1"/>
        <pt x="578" y="0" on="1"/>
        <pt x="563" y="1" on="0"/>
        <pt x="512" y="2" on="0"/>
        <pt x="457" y="3" on="0"/>
        <pt x="405" y="3" on="0"/>
        <pt x="388" y="3" on="1"/>
        <pt x="371" y="3" on="0"/>
        <pt x="319" y="3" on="0"/>
        <pt x="264" y="2" on="0"/>
        <pt x="214" y="1" on="0"/>
        <pt x="199" y="0" on="1"/>
        <pt x="199" y="31" on="1"/>
        <pt x="239" y="31" on="1"/>
        <pt x="278" y="31" on="0"/>
        <pt x="321" y="36" on="0"/>
        <pt x="341" y="48" on="0"/>
        <pt x="344" y="66" on="0"/>
        <pt x="344" y="79" on="1"/>
        <pt x="344" y="606" on="1"/>
        <pt x="344" y="623" on="0"/>
        <pt x="339" y="641" on="0"/>
        <pt x="323" y="644" on="1"/>
        <pt x="315" y="646" on="0"/>
        <pt x="283" y="646" on="0"/>
        <pt x="269" y="646" on="1"/>
        <pt x="212" y="646" on="0"/>
        <pt x="146" y="631" on="0"/>
        <pt x="109" y="588" on="0"/>
        <pt x="94" y="512" on="0"/>
        <pt x="89" y="452" on="1"/>
        <pt x="64" y="452" on="1"/>
        <pt x="83" y="677" on="1"/>
        <pt x="694" y="677" on="1"/>
      </contour>
    </TTGlyph>
    <TTGlyph name="Theta" xMin="84" yMin="-22" xMax="748" yMax="705">
      <contour>
        <pt x="748" y="339" on="1"/>
        <pt x="748" y="263" on="0"/>
        <pt x="695" y="131" on="0"/>
        <pt x="604" y="33" on="0"/>
        <pt x="483" y="-22" on="0"/>
        <pt x="416" y="-22" on="1"/>
        <pt x="349" y="-22" on="0"/>
        <pt x="228" y="33" on="0"/>
        <pt x="137" y="131" on="0"/>
        <pt x="84" y="263" on="0"/>
        <pt x="84" y="339" on="1"/>
        <pt x="84" y="416" on="0"/>
        <pt x="137" y="550" on="0"/>
        <pt x="228" y="649" on="0"/>
        <pt x="349" y="705" on="0"/>
        <pt x="416" y="705" on="1"/>
        <pt x="484" y="705" on="0"/>
        <pt x="604" y="649" on="0"/>
        <pt x="695" y="550" on="0"/>
        <pt x="748" y="416" on="0"/>
      </contour>
      <contour>
        <pt x="416" y="1" on="1"/>
        <pt x="452" y="1" on="0"/>
        <pt x="535" y="35" on="0"/>
        <pt x="605" y="115" on="0"/>
        <pt x="651" y="244" on="0"/>
        <pt x="651" y="339" on="1"/>
        <pt x="651" y="434" on="0"/>
        <pt x="605" y="566" on="0"/>
        <pt x="536" y="647" on="0"/>
        <pt x="453" y="683" on="0"/>
        <pt x="416" y="683" on="1"/>
        <pt x="379" y="683" on="0"/>
        <pt x="297" y="647" on="0"/>
        <pt x="227" y="566" on="0"/>
        <pt x="181" y="435" on="0"/>
        <pt x="181" y="339" on="1"/>
        <pt x="181" y="244" on="0"/>
        <pt x="227" y="115" on="0"/>
        <pt x="297" y="35" on="0"/>
        <pt x="380" y="1" on="0"/>
      </contour>
      <contour>
        <pt x="594" y="270" on="1"/>
        <pt x="569" y="270" on="1"/>
        <pt x="569" y="304" on="1"/>
        <pt x="263" y="304" on="1"/>
        <pt x="263" y="270" on="1"/>
        <pt x="238" y="270" on="1"/>
        <pt x="238" y="414" on="1"/>
        <pt x="263" y="414" on="1"/>
        <pt x="263" y="380" on="1"/>
        <pt x="569" y="380" on="1"/>
        <pt x="569" y="414" on="1"/>
        <pt x="594" y="414" on="1"/>
      </contour>
    </TTGlyph>
    <TTGlyph name="U" xMin="61" yMin="-22" xMax="744" yMax="683">
      <contour>
        <pt x="610" y="578" on="1"/>
        <pt x="610" y="588" on="0"/>
        <pt x="607" y="614" on="0"/>
        <pt x="587" y="636" on="0"/>
        <pt x="546" y="652" on="0"/>
        <pt x="507" y="652" on="1"/>
        <pt x="507" y="683" on="1"/>
        <pt x="534" y="682" on="0"/>
        <pt x="600" y="680" on="0"/>
        <pt x="626" y="680" on="1"/>
        <pt x="652" y="680" on="0"/>
        <pt x="717" y="682" on="0"/>
        <pt x="744" y="683" on="1"/>
        <pt x="744" y="652" on="1"/>
        <pt x="705" y="652" on="0"/>
        <pt x="664" y="637" on="0"/>
        <pt x="644" y="614" on="0"/>
        <pt x="641" y="586" on="0"/>
        <pt x="641" y="574" on="1"/>
        <pt x="641" y="254" on="1"/>
        <pt x="641" y="224" on="0"/>
        <pt x="640" y="200" on="0"/>
        <pt x="638" y="185" on="1"/>
        <pt x="632" y="142" on="0"/>
        <pt x="593" y="67" on="0"/>
        <pt x="535" y="11" on="0"/>
        <pt x="459" y="-22" on="0"/>
        <pt x="416" y="-22" on="1"/>
        <pt x="365" y="-22" on="0"/>
        <pt x="274" y="16" on="0"/>
        <pt x="205" y="84" on="0"/>
        <pt x="164" y="175" on="0"/>
        <pt x="164" y="228" on="1"/>
        <pt x="164" y="605" on="1"/>
        <pt x="164" y="619" on="0"/>
        <pt x="161" y="637" on="0"/>
        <pt x="146" y="647" on="0"/>
        <pt x="114" y="652" on="0"/>
        <pt x="85" y="652" on="1"/>
        <pt x="61" y="652" on="1"/>
        <pt x="61" y="683" on="1"/>
        <pt x="74" y="682" on="0"/>
        <pt x="113" y="681" on="0"/>
        <pt x="155" y="680" on="0"/>
        <pt x="195" y="680" on="0"/>
        <pt x="209" y="680" on="1"/>
        <pt x="223" y="680" on="0"/>
        <pt x="263" y="680" on="0"/>
        <pt x="304" y="681" on="0"/>
        <pt x="343" y="682" on="0"/>
        <pt x="356" y="683" on="1"/>
        <pt x="356" y="652" on="1"/>
        <pt x="332" y="652" on="1"/>
        <pt x="303" y="652" on="0"/>
        <pt x="271" y="647" on="0"/>
        <pt x="256" y="637" on="0"/>
        <pt x="253" y="619" on="0"/>
        <pt x="253" y="605" on="1"/>
        <pt x="253" y="224" on="1"/>
        <pt x="253" y="153" on="0"/>
        <pt x="291" y="68" on="0"/>
        <pt x="344" y="23" on="0"/>
        <pt x="400" y="9" on="0"/>
        <pt x="418" y="9" on="1"/>
        <pt x="454" y="9" on="0"/>
        <pt x="523" y="38" on="0"/>
        <pt x="577" y="95" on="0"/>
        <pt x="610" y="178" on="0"/>
        <pt x="610" y="231" on="1"/>
      </contour>
    </TTGlyph>
    <TTGlyph name="Upsilon" xMin="84" yMin="0" xMax="748" yMax="705">
      <contour>
        <pt x="461" y="79" on="1"/>
        <pt x="461" y="66" on="0"/>
        <pt x="464" y="48" on="0"/>
        <pt x="482" y="36" on="0"/>
        <pt x="520" y="31" on="0"/>
        <pt x="556" y="31" on="1"/>
        <pt x="589" y="31" on="1"/>
        <pt x="589" y="0" on="1"/>
        <pt x="576" y="1" on="0"/>
        <pt x="530" y="2" on="0"/>
        <pt x="479" y="3" on="0"/>
        <pt x="431" y="3" on="0"/>
        <pt x="416" y="3" on="1"/>
        <pt x="401" y="3" on="0"/>
        <pt x="353" y="3" on="0"/>
        <pt x="303" y="2" on="0"/>
        <pt x="258" y="1" on="0"/>
        <pt x="244" y="0" on="1"/>
        <pt x="244" y="31" on="1"/>
        <pt x="277" y="31" on="1"/>
        <pt x="313" y="31" on="0"/>
        <pt x="351" y="36" on="0"/>
        <pt x="369" y="48" on="0"/>
        <pt x="372" y="66" on="0"/>
        <pt x="372" y="79" on="1"/>
        <pt x="372" y="351" on="1"/>
        <pt x="372" y="381" on="0"/>
        <pt x="361" y="475" on="0"/>
        <pt x="328" y="564" on="0"/>
        <pt x="266" y="628" on="0"/>
        <pt x="214" y="628" on="1"/>
        <pt x="212" y="628" on="0"/>
        <pt x="183" y="626" on="0"/>
        <pt x="148" y="611" on="0"/>
        <pt x="118" y="578" on="0"/>
        <pt x="115" y="548" on="1"/>
        <pt x="114" y="544" on="0"/>
        <pt x="111" y="535" on="0"/>
        <pt x="100" y="535" on="1"/>
        <pt x="88" y="535" on="0"/>
        <pt x="84" y="546" on="0"/>
        <pt x="84" y="552" on="1"/>
        <pt x="84" y="575" on="0"/>
        <pt x="99" y="628" on="0"/>
        <pt x="131" y="674" on="0"/>
        <pt x="181" y="705" on="0"/>
        <pt x="215" y="705" on="1"/>
        <pt x="255" y="705" on="0"/>
        <pt x="314" y="675" on="0"/>
        <pt x="358" y="628" on="0"/>
        <pt x="387" y="571" on="0"/>
        <pt x="405" y="517" on="0"/>
        <pt x="414" y="473" on="0"/>
        <pt x="416" y="462" on="1"/>
        <pt x="417" y="462" on="1"/>
        <pt x="423" y="501" on="0"/>
        <pt x="450" y="586" on="0"/>
        <pt x="497" y="658" on="0"/>
        <pt x="568" y="705" on="0"/>
        <pt x="617" y="705" on="1"/>
        <pt x="651" y="705" on="0"/>
        <pt x="701" y="674" on="0"/>
        <pt x="733" y="628" on="0"/>
        <pt x="748" y="575" on="0"/>
        <pt x="748" y="552" on="1"/>
        <pt x="748" y="546" on="0"/>
        <pt x="744" y="535" on="0"/>
        <pt x="732" y="535" on="1"/>
        <pt x="722" y="535" on="0"/>
        <pt x="718" y="544" on="0"/>
        <pt x="717" y="551" on="1"/>
        <pt x="714" y="574" on="0"/>
        <pt x="692" y="604" on="0"/>
        <pt x="662" y="621" on="0"/>
        <pt x="630" y="628" on="0"/>
        <pt x="618" y="628" on="1"/>
        <pt x="567" y="628" on="0"/>
        <pt x="505" y="565" on="0"/>
        <pt x="472" y="476" on="0"/>
        <pt x="461" y="382" on="0"/>
        <pt x="461" y="351" on="1"/>
      </contour>
    </TTGlyph>
    <TTGlyph name="V" xMin="47" yMin="-22" xMax="758" yMax="683">
      <contour>
        <pt x="426" y="-3" on="1"/>
        <pt x="422" y="-14" on="0"/>
        <pt x="415" y="-22" on="0"/>
        <pt x="402" y="-22" on="1"/>
        <pt x="392" y="-22" on="0"/>
        <pt x="382" y="-14" on="0"/>
        <pt x="377" y="0" on="1"/>
        <pt x="145" y="614" on="1"/>
        <pt x="140" y="628" on="0"/>
        <pt x="126" y="644" on="0"/>
        <pt x="104" y="651" on="0"/>
        <pt x="71" y="652" on="0"/>
        <pt x="47" y="652" on="1"/>
        <pt x="47" y="683" on="1"/>
        <pt x="74" y="682" on="0"/>
        <pt x="138" y="680" on="0"/>
        <pt x="174" y="680" on="1"/>
        <pt x="188" y="680" on="0"/>
        <pt x="226" y="680" on="0"/>
        <pt x="266" y="681" on="0"/>
        <pt x="304" y="682" on="0"/>
        <pt x="317" y="683" on="1"/>
        <pt x="317" y="652" on="1"/>
        <pt x="308" y="652" on="0"/>
        <pt x="280" y="651" on="0"/>
        <pt x="254" y="646" on="0"/>
        <pt x="235" y="634" on="0"/>
        <pt x="235" y="623" on="1"/>
        <pt x="235" y="621" on="0"/>
        <pt x="236" y="616" on="0"/>
        <pt x="241" y="605" on="1"/>
        <pt x="432" y="100" on="1"/>
        <pt x="615" y="582" on="1"/>
        <pt x="617" y="587" on="0"/>
        <pt x="620" y="596" on="0"/>
        <pt x="620" y="602" on="1"/>
        <pt x="620" y="619" on="0"/>
        <pt x="586" y="651" on="0"/>
        <pt x="547" y="652" on="1"/>
        <pt x="547" y="683" on="1"/>
        <pt x="557" y="683" on="0"/>
        <pt x="586" y="682" on="0"/>
        <pt x="619" y="681" on="0"/>
        <pt x="650" y="680" on="0"/>
        <pt x="661" y="680" on="1"/>
        <pt x="681" y="680" on="0"/>
        <pt x="735" y="681" on="0"/>
        <pt x="758" y="683" on="1"/>
        <pt x="758" y="652" on="1"/>
        <pt x="707" y="651" on="0"/>
        <pt x="660" y="613" on="0"/>
        <pt x="649" y="585" on="1"/>
      </contour>
    </TTGlyph>
    <TTGlyph name="W" xMin="46" yMin="-22" xMax="1036" yMax="683">
      <contour>
        <pt x="745" y="-2" on="1"/>
        <pt x="742" y="-12" on="0"/>
        <pt x="736" y="-22" on="0"/>
        <pt x="725" y="-22" on="1"/>
        <pt x="715" y="-22" on="0"/>
        <pt x="708" y="-10" on="0"/>
        <pt x="706" y="-3" on="1"/>
        <pt x="541" y="504" on="1"/>
        <pt x="376" y="-2" on="1"/>
        <pt x="373" y="-12" on="0"/>
        <pt x="367" y="-22" on="0"/>
        <pt x="356" y="-22" on="1"/>
        <pt x="346" y="-22" on="0"/>
        <pt x="339" y="-10" on="0"/>
        <pt x="337" y="-3" on="1"/>
        <pt x="137" y="610" on="1"/>
        <pt x="133" y="624" on="0"/>
        <pt x="124" y="640" on="0"/>
        <pt x="106" y="649" on="0"/>
        <pt x="74" y="652" on="0"/>
        <pt x="46" y="652" on="1"/>
        <pt x="46" y="683" on="1"/>
        <pt x="77" y="682" on="0"/>
        <pt x="139" y="680" on="0"/>
        <pt x="168" y="680" on="1"/>
        <pt x="182" y="680" on="0"/>
        <pt x="220" y="680" on="0"/>
        <pt x="259" y="681" on="0"/>
        <pt x="297" y="682" on="0"/>
        <pt x="310" y="683" on="1"/>
        <pt x="310" y="652" on="1"/>
        <pt x="300" y="652" on="0"/>
        <pt x="272" y="651" on="0"/>
        <pt x="245" y="645" on="0"/>
        <pt x="226" y="633" on="0"/>
        <pt x="226" y="622" on="1"/>
        <pt x="226" y="615" on="0"/>
        <pt x="228" y="609" on="1"/>
        <pt x="389" y="117" on="1"/>
        <pt x="528" y="545" on="1"/>
        <pt x="505" y="616" on="1"/>
        <pt x="501" y="630" on="0"/>
        <pt x="487" y="644" on="0"/>
        <pt x="466" y="651" on="0"/>
        <pt x="436" y="652" on="0"/>
        <pt x="415" y="652" on="1"/>
        <pt x="415" y="683" on="1"/>
        <pt x="446" y="682" on="0"/>
        <pt x="508" y="680" on="0"/>
        <pt x="537" y="680" on="1"/>
        <pt x="551" y="680" on="0"/>
        <pt x="589" y="680" on="0"/>
        <pt x="628" y="681" on="0"/>
        <pt x="666" y="682" on="0"/>
        <pt x="679" y="683" on="1"/>
        <pt x="679" y="652" on="1"/>
        <pt x="669" y="652" on="0"/>
        <pt x="641" y="651" on="0"/>
        <pt x="614" y="645" on="0"/>
        <pt x="595" y="633" on="0"/>
        <pt x="595" y="622" on="1"/>
        <pt x="595" y="618" on="0"/>
        <pt x="597" y="610" on="0"/>
        <pt x="598" y="607" on="1"/>
        <pt x="758" y="117" on="1"/>
        <pt x="908" y="578" on="1"/>
        <pt x="910" y="583" on="0"/>
        <pt x="913" y="594" on="0"/>
        <pt x="913" y="599" on="1"/>
        <pt x="913" y="606" on="0"/>
        <pt x="905" y="624" on="0"/>
        <pt x="885" y="640" on="0"/>
        <pt x="851" y="652" on="0"/>
        <pt x="826" y="652" on="1"/>
        <pt x="826" y="683" on="1"/>
        <pt x="836" y="683" on="0"/>
        <pt x="867" y="682" on="0"/>
        <pt x="902" y="681" on="0"/>
        <pt x="934" y="680" on="0"/>
        <pt x="945" y="680" on="1"/>
        <pt x="991" y="680" on="0"/>
        <pt x="1036" y="683" on="1"/>
        <pt x="1036" y="652" on="1"/>
        <pt x="1021" y="652" on="0"/>
        <pt x="992" y="647" on="0"/>
        <pt x="965" y="633" on="0"/>
        <pt x="943" y="606" on="0"/>
        <pt x="936" y="585" on="1"/>
      </contour>
    </TTGlyph>
    <TTGlyph name="X" xMin="52" yMin="0" xMax="754" yMax="683">
      <contour>
        <pt x="641" y="67" on="1"/>
        <pt x="657" y="44" on="0"/>
        <pt x="696" y="31" on="0"/>
        <pt x="735" y="31" on="1"/>
        <pt x="754" y="31" on="1"/>
        <pt x="754" y="0" on="1"/>
        <pt x="722" y="2" on="0"/>
        <pt x="656" y="3" on="0"/>
        <pt x="624" y="3" on="1"/>
        <pt x="610" y="3" on="0"/>
        <pt x="570" y="3" on="0"/>
        <pt x="529" y="2" on="0"/>
        <pt x="491" y="1" on="0"/>
        <pt x="478" y="0" on="1"/>
        <pt x="478" y="31" on="1"/>
        <pt x="510" y="32" on="0"/>
        <pt x="543" y="52" on="0"/>
        <pt x="543" y="61" on="1"/>
        <pt x="543" y="63" on="0"/>
        <pt x="540" y="69" on="0"/>
        <pt x="538" y="72" on="1"/>
        <pt x="380" y="311" on="1"/>
        <pt x="238" y="101" on="1"/>
        <pt x="233" y="93" on="0"/>
        <pt x="228" y="84" on="0"/>
        <pt x="228" y="77" on="1"/>
        <pt x="228" y="63" on="0"/>
        <pt x="256" y="32" on="0"/>
        <pt x="291" y="31" on="1"/>
        <pt x="291" y="0" on="1"/>
        <pt x="264" y="2" on="0"/>
        <pt x="191" y="3" on="0"/>
        <pt x="163" y="3" on="1"/>
        <pt x="138" y="3" on="0"/>
        <pt x="79" y="1" on="0"/>
        <pt x="52" y="0" on="1"/>
        <pt x="52" y="31" on="1"/>
        <pt x="90" y="31" on="0"/>
        <pt x="141" y="46" on="0"/>
        <pt x="174" y="67" on="0"/>
        <pt x="192" y="90" on="0"/>
        <pt x="197" y="97" on="1"/>
        <pt x="361" y="339" on="1"/>
        <pt x="177" y="617" on="1"/>
        <pt x="163" y="638" on="0"/>
        <pt x="125" y="652" on="0"/>
        <pt x="84" y="652" on="1"/>
        <pt x="65" y="652" on="1"/>
        <pt x="65" y="683" on="1"/>
        <pt x="79" y="682" on="0"/>
        <pt x="114" y="681" on="0"/>
        <pt x="150" y="680" on="0"/>
        <pt x="183" y="680" on="0"/>
        <pt x="195" y="680" on="1"/>
        <pt x="209" y="680" on="0"/>
        <pt x="249" y="680" on="0"/>
        <pt x="290" y="681" on="0"/>
        <pt x="328" y="682" on="0"/>
        <pt x="341" y="683" on="1"/>
        <pt x="341" y="652" on="1"/>
        <pt x="309" y="651" on="0"/>
        <pt x="276" y="631" on="0"/>
        <pt x="276" y="622" on="1"/>
        <pt x="276" y="619" on="0"/>
        <pt x="281" y="609" on="0"/>
        <pt x="283" y="607" on="1"/>
        <pt x="412" y="414" on="1"/>
        <pt x="526" y="583" on="1"/>
        <pt x="531" y="591" on="0"/>
        <pt x="535" y="598" on="0"/>
        <pt x="535" y="606" on="1"/>
        <pt x="535" y="623" on="0"/>
        <pt x="503" y="651" on="0"/>
        <pt x="473" y="652" on="1"/>
        <pt x="473" y="683" on="1"/>
        <pt x="503" y="681" on="0"/>
        <pt x="571" y="680" on="0"/>
        <pt x="601" y="680" on="1"/>
        <pt x="620" y="680" on="0"/>
        <pt x="683" y="682" on="0"/>
        <pt x="712" y="683" on="1"/>
        <pt x="712" y="652" on="1"/>
        <pt x="679" y="652" on="0"/>
        <pt x="631" y="640" on="0"/>
        <pt x="598" y="622" on="0"/>
        <pt x="575" y="599" on="0"/>
        <pt x="567" y="587" on="1"/>
        <pt x="430" y="386" on="1"/>
      </contour>
    </TTGlyph>
    <TTGlyph name="Xi" xMin="70" yMin="0" xMax="651" yMax="677">
      <contour>
        <pt x="646" y="521" on="1"/>
        <pt x="621" y="521" on="1"/>
        <pt x="619" y="556" on="0"/>
        <pt x="614" y="591" on="0"/>
        <pt x="609" y="599" on="1"/>
        <pt x="607" y="602" on="0"/>
        <pt x="586" y="605" on="0"/>
        <pt x="560" y="607" on="0"/>
        <pt x="537" y="607" on="0"/>
        <pt x="533" y="607" on="1"/>
        <pt x="188" y="607" on="1"/>
        <pt x="185" y="607" on="0"/>
        <pt x="162" y="607" on="0"/>
        <pt x="136" y="605" on="0"/>
        <pt x="114" y="602" on="0"/>
        <pt x="112" y="599" on="1"/>
        <pt x="107" y="591" on="0"/>
        <pt x="102" y="556" on="0"/>
        <pt x="100" y="521" on="1"/>
        <pt x="75" y="521" on="1"/>
        <pt x="83" y="677" on="1"/>
        <pt x="638" y="677" on="1"/>
      </contour>
      <contour>
        <pt x="70" y="167" on="1"/>
        <pt x="95" y="167" on="1"/>
        <pt x="97" y="134" on="0"/>
        <pt x="101" y="90" on="0"/>
        <pt x="107" y="80" on="1"/>
        <pt x="110" y="76" on="0"/>
        <pt x="130" y="72" on="0"/>
        <pt x="156" y="70" on="0"/>
        <pt x="180" y="70" on="0"/>
        <pt x="187" y="70" on="1"/>
        <pt x="534" y="70" on="1"/>
        <pt x="542" y="70" on="0"/>
        <pt x="568" y="70" on="0"/>
        <pt x="592" y="72" on="0"/>
        <pt x="612" y="77" on="0"/>
        <pt x="614" y="81" on="1"/>
        <pt x="620" y="92" on="0"/>
        <pt x="624" y="132" on="0"/>
        <pt x="626" y="167" on="1"/>
        <pt x="651" y="167" on="1"/>
        <pt x="643" y="0" on="1"/>
        <pt x="78" y="0" on="1"/>
      </contour>
      <contour>
        <pt x="554" y="266" on="1"/>
        <pt x="529" y="266" on="1"/>
        <pt x="529" y="317" on="1"/>
        <pt x="192" y="317" on="1"/>
        <pt x="192" y="266" on="1"/>
        <pt x="167" y="266" on="1"/>
        <pt x="167" y="438" on="1"/>
        <pt x="192" y="438" on="1"/>
        <pt x="192" y="387" on="1"/>
        <pt x="529" y="387" on="1"/>
        <pt x="529" y="438" on="1"/>
        <pt x="554" y="438" on="1"/>
      </contour>
    </TTGlyph>
    <TTGlyph name="Y" xMin="39" yMin="0" xMax="766" yMax="683">
      <contour>
        <pt x="445" y="273" on="1"/>
        <pt x="445" y="80" on="1"/>
        <pt x="445" y="65" on="0"/>
        <pt x="448" y="46" on="0"/>
        <pt x="464" y="35" on="0"/>
        <pt x="496" y="31" on="0"/>
        <pt x="525" y="31" on="1"/>
        <pt x="548" y="31" on="1"/>
        <pt x="548" y="0" on="1"/>
        <pt x="535" y="1" on="0"/>
        <pt x="496" y="2" on="0"/>
        <pt x="456" y="3" on="0"/>
        <pt x="417" y="3" on="0"/>
        <pt x="402" y="3" on="1"/>
        <pt x="387" y="3" on="0"/>
        <pt x="348" y="3" on="0"/>
        <pt x="308" y="2" on="0"/>
        <pt x="270" y="1" on="0"/>
        <pt x="256" y="0" on="1"/>
        <pt x="256" y="31" on="1"/>
        <pt x="280" y="31" on="1"/>
        <pt x="309" y="31" on="0"/>
        <pt x="341" y="36" on="0"/>
        <pt x="356" y="46" on="0"/>
        <pt x="359" y="65" on="0"/>
        <pt x="359" y="78" on="1"/>
        <pt x="359" y="273" on="1"/>
        <pt x="149" y="615" on="1"/>
        <pt x="143" y="625" on="0"/>
        <pt x="132" y="639" on="0"/>
        <pt x="113" y="648" on="0"/>
        <pt x="83" y="652" on="0"/>
        <pt x="57" y="652" on="1"/>
        <pt x="39" y="652" on="1"/>
        <pt x="39" y="683" on="1"/>
        <pt x="71" y="681" on="0"/>
        <pt x="137" y="680" on="0"/>
        <pt x="169" y="680" on="1"/>
        <pt x="184" y="680" on="0"/>
        <pt x="223" y="680" on="0"/>
        <pt x="265" y="681" on="0"/>
        <pt x="304" y="682" on="0"/>
        <pt x="317" y="683" on="1"/>
        <pt x="317" y="652" on="1"/>
        <pt x="283" y="652" on="0"/>
        <pt x="247" y="643" on="0"/>
        <pt x="247" y="627" on="1"/>
        <pt x="247" y="623" on="0"/>
        <pt x="249" y="618" on="0"/>
        <pt x="254" y="610" on="1"/>
        <pt x="435" y="315" on="1"/>
        <pt x="600" y="583" on="1"/>
        <pt x="603" y="588" on="0"/>
        <pt x="610" y="605" on="0"/>
        <pt x="610" y="613" on="1"/>
        <pt x="610" y="628" on="0"/>
        <pt x="584" y="652" on="0"/>
        <pt x="553" y="652" on="1"/>
        <pt x="553" y="683" on="1"/>
        <pt x="563" y="683" on="0"/>
        <pt x="592" y="682" on="0"/>
        <pt x="625" y="681" on="0"/>
        <pt x="656" y="680" on="0"/>
        <pt x="668" y="680" on="1"/>
        <pt x="688" y="680" on="0"/>
        <pt x="743" y="681" on="0"/>
        <pt x="766" y="683" on="1"/>
        <pt x="766" y="652" on="1"/>
        <pt x="754" y="652" on="0"/>
        <pt x="721" y="649" on="0"/>
        <pt x="686" y="636" on="0"/>
        <pt x="652" y="610" on="0"/>
        <pt x="638" y="587" on="1"/>
      </contour>
    </TTGlyph>
    <TTGlyph name="Z" xMin="84" yMin="0" xMax="588" yMax="683">
      <contour>
        <pt x="187" y="34" on="1"/>
        <pt x="351" y="34" on="1"/>
        <pt x="420" y="34" on="0"/>
        <pt x="502" y="68" on="0"/>
        <pt x="545" y="129" on="0"/>
        <pt x="560" y="215" on="0"/>
        <pt x="563" y="267" on="1"/>
        <pt x="588" y="267" on="1"/>
        <pt x="571" y="0" on="1"/>
        <pt x="110" y="0" on="1"/>
        <pt x="94" y="0" on="0"/>
        <pt x="84" y="4" on="0"/>
        <pt x="84" y="17" on="1"/>
        <pt x="84" y="23" on="0"/>
        <pt x="86" y="29" on="0"/>
        <pt x="91" y="37" on="1"/>
        <pt x="480" y="652" on="1"/>
        <pt x="323" y="652" on="1"/>
        <pt x="262" y="652" on="0"/>
        <pt x="185" y="623" on="0"/>
        <pt x="142" y="572" on="0"/>
        <pt x="125" y="500" on="0"/>
        <pt x="122" y="458" on="1"/>
        <pt x="97" y="458" on="1"/>
        <pt x="108" y="683" on="1"/>
        <pt x="556" y="683" on="1"/>
        <pt x="571" y="683" on="0"/>
        <pt x="582" y="679" on="0"/>
        <pt x="582" y="667" on="1"/>
        <pt x="582" y="662" on="0"/>
        <pt x="580" y="656" on="0"/>
        <pt x="575" y="648" on="1"/>
      </contour>
    </TTGlyph>
    <TTGlyph name="a" xMin="70" yMin="-11" xMax="539" yMax="442">
      <contour>
        <pt x="423" y="110" on="1"/>
        <pt x="423" y="100" on="0"/>
        <pt x="426" y="66" on="0"/>
        <pt x="436" y="34" on="0"/>
        <pt x="455" y="11" on="0"/>
        <pt x="472" y="11" on="1"/>
        <pt x="491" y="11" on="0"/>
        <pt x="514" y="56" on="0"/>
        <pt x="514" y="118" on="1"/>
        <pt x="514" y="129" on="1"/>
        <pt x="514" y="143" on="0"/>
        <pt x="517" y="153" on="0"/>
        <pt x="526" y="153" on="1"/>
        <pt x="529" y="153" on="0"/>
        <pt x="538" y="151" on="0"/>
        <pt x="539" y="143" on="1"/>
        <pt x="539" y="121" on="1"/>
        <pt x="539" y="60" on="0"/>
        <pt x="511" y="-11" on="0"/>
        <pt x="470" y="-11" on="1"/>
        <pt x="442" y="-11" on="0"/>
        <pt x="379" y="24" on="0"/>
        <pt x="362" y="63" on="1"/>
        <pt x="345" y="34" on="0"/>
        <pt x="287" y="-11" on="0"/>
        <pt x="249" y="-11" on="1"/>
        <pt x="215" y="-11" on="0"/>
        <pt x="150" y="22" on="0"/>
        <pt x="100" y="82" on="0"/>
        <pt x="70" y="166" on="0"/>
        <pt x="70" y="216" on="1"/>
        <pt x="70" y="265" on="0"/>
        <pt x="100" y="348" on="0"/>
        <pt x="149" y="408" on="0"/>
        <pt x="214" y="442" on="0"/>
        <pt x="249" y="442" on="1"/>
        <pt x="284" y="442" on="0"/>
        <pt x="337" y="404" on="0"/>
        <pt x="353" y="381" on="1"/>
        <pt x="353" y="396" on="0"/>
        <pt x="369" y="422" on="0"/>
        <pt x="388" y="422" on="1"/>
        <pt x="401" y="422" on="0"/>
        <pt x="415" y="412" on="0"/>
        <pt x="422" y="397" on="0"/>
        <pt x="423" y="381" on="0"/>
        <pt x="423" y="376" on="1"/>
      </contour>
      <contour>
        <pt x="354" y="314" on="1"/>
        <pt x="354" y="333" on="0"/>
        <pt x="337" y="366" on="0"/>
        <pt x="320" y="386" on="1"/>
        <pt x="318" y="388" on="0"/>
        <pt x="306" y="399" on="0"/>
        <pt x="288" y="411" on="0"/>
        <pt x="265" y="420" on="0"/>
        <pt x="251" y="420" on="1"/>
        <pt x="221" y="420" on="0"/>
        <pt x="180" y="375" on="0"/>
        <pt x="169" y="349" on="1"/>
        <pt x="157" y="317" on="0"/>
        <pt x="153" y="246" on="0"/>
        <pt x="153" y="215" on="1"/>
        <pt x="153" y="170" on="0"/>
        <pt x="159" y="105" on="0"/>
        <pt x="173" y="74" on="1"/>
        <pt x="176" y="67" on="0"/>
        <pt x="189" y="45" on="0"/>
        <pt x="208" y="25" on="0"/>
        <pt x="235" y="11" on="0"/>
        <pt x="251" y="11" on="1"/>
        <pt x="269" y="11" on="0"/>
        <pt x="306" y="31" on="0"/>
        <pt x="335" y="62" on="0"/>
        <pt x="354" y="99" on="0"/>
        <pt x="354" y="117" on="1"/>
      </contour>
    </TTGlyph>
    <TTGlyph name="acute" xMin="234" yMin="510" xMax="420" yMax="698">
      <contour>
        <pt x="251" y="510" on="1"/>
        <pt x="234" y="528" on="1"/>
        <pt x="354" y="681" on="1"/>
        <pt x="357" y="686" on="0"/>
        <pt x="373" y="698" on="0"/>
        <pt x="384" y="698" on="1"/>
        <pt x="398" y="698" on="0"/>
        <pt x="420" y="676" on="0"/>
        <pt x="420" y="662" on="1"/>
        <pt x="420" y="653" on="0"/>
        <pt x="410" y="637" on="0"/>
        <pt x="403" y="632" on="1"/>
      </contour>
    </TTGlyph>
    <TTGlyph name="ae" xMin="70" yMin="-11" xMax="730" yMax="442">
      <contour>
        <pt x="418" y="231" on="1"/>
        <pt x="420" y="201" on="0"/>
        <pt x="429" y="123" on="0"/>
        <pt x="450" y="84" on="1"/>
        <pt x="456" y="73" on="0"/>
        <pt x="476" y="47" on="0"/>
        <pt x="502" y="25" on="0"/>
        <pt x="536" y="11" on="0"/>
        <pt x="557" y="11" on="1"/>
        <pt x="599" y="11" on="0"/>
        <pt x="681" y="59" on="0"/>
        <pt x="704" y="107" on="1"/>
        <pt x="709" y="115" on="0"/>
        <pt x="712" y="120" on="0"/>
        <pt x="717" y="120" on="1"/>
        <pt x="721" y="120" on="0"/>
        <pt x="730" y="113" on="0"/>
        <pt x="730" y="108" on="1"/>
        <pt x="730" y="102" on="0"/>
        <pt x="709" y="63" on="0"/>
        <pt x="667" y="22" on="0"/>
        <pt x="601" y="-11" on="0"/>
        <pt x="556" y="-11" on="1"/>
        <pt x="509" y="-11" on="0"/>
        <pt x="440" y="34" on="0"/>
        <pt x="418" y="61" on="1"/>
        <pt x="418" y="30" on="1"/>
        <pt x="418" y="25" on="0"/>
        <pt x="417" y="11" on="0"/>
        <pt x="412" y="-2" on="0"/>
        <pt x="400" y="-11" on="0"/>
        <pt x="389" y="-11" on="1"/>
        <pt x="378" y="-11" on="0"/>
        <pt x="366" y="-2" on="0"/>
        <pt x="361" y="11" on="0"/>
        <pt x="360" y="25" on="0"/>
        <pt x="360" y="30" on="1"/>
        <pt x="360" y="66" on="1"/>
        <pt x="341" y="34" on="0"/>
        <pt x="284" y="-11" on="0"/>
        <pt x="247" y="-11" on="1"/>
        <pt x="216" y="-11" on="0"/>
        <pt x="152" y="7" on="0"/>
        <pt x="102" y="43" on="0"/>
        <pt x="70" y="94" on="0"/>
        <pt x="70" y="127" on="1"/>
        <pt x="70" y="170" on="0"/>
        <pt x="101" y="242" on="0"/>
        <pt x="152" y="301" on="0"/>
        <pt x="215" y="347" on="0"/>
        <pt x="280" y="382" on="0"/>
        <pt x="339" y="406" on="0"/>
        <pt x="360" y="414" on="1"/>
        <pt x="362" y="433" on="0"/>
        <pt x="383" y="442" on="0"/>
        <pt x="389" y="442" on="1"/>
        <pt x="411" y="442" on="0"/>
        <pt x="418" y="411" on="0"/>
        <pt x="418" y="385" on="1"/>
        <pt x="455" y="420" on="0"/>
        <pt x="527" y="442" on="0"/>
        <pt x="554" y="442" on="1"/>
        <pt x="580" y="442" on="0"/>
        <pt x="626" y="427" on="0"/>
        <pt x="662" y="399" on="0"/>
        <pt x="683" y="360" on="0"/>
        <pt x="683" y="336" on="1"/>
        <pt x="683" y="286" on="0"/>
        <pt x="585" y="231" on="0"/>
        <pt x="475" y="231" on="1"/>
      </contour>
      <contour>
        <pt x="469" y="253" on="1"/>
        <pt x="523" y="253" on="0"/>
        <pt x="592" y="266" on="0"/>
        <pt x="633" y="288" on="0"/>
        <pt x="649" y="318" on="0"/>
        <pt x="649" y="336" on="1"/>
        <pt x="649" y="354" on="0"/>
        <pt x="634" y="384" on="0"/>
        <pt x="609" y="407" on="0"/>
        <pt x="575" y="420" on="0"/>
        <pt x="555" y="420" on="1"/>
        <pt x="540" y="420" on="0"/>
        <pt x="495" y="407" on="0"/>
        <pt x="452" y="371" on="0"/>
        <pt x="420" y="306" on="0"/>
        <pt x="418" y="253" on="1"/>
      </contour>
      <contour>
        <pt x="360" y="390" on="1"/>
        <pt x="329" y="377" on="0"/>
        <pt x="256" y="331" on="0"/>
        <pt x="194" y="264" on="0"/>
        <pt x="153" y="177" on="0"/>
        <pt x="153" y="123" on="1"/>
        <pt x="153" y="115" on="0"/>
        <pt x="156" y="78" on="0"/>
        <pt x="174" y="40" on="0"/>
        <pt x="213" y="11" on="0"/>
        <pt x="249" y="11" on="1"/>
        <pt x="271" y="11" on="0"/>
        <pt x="311" y="37" on="0"/>
        <pt x="342" y="76" on="0"/>
        <pt x="360" y="122" on="0"/>
        <pt x="360" y="142" on="1"/>
      </contour>
    </TTGlyph>
    <TTGlyph name="ampersand" xMin="84" yMin="-22" xMax="721" yMax="716">
      <contour>
        <pt x="601" y="466" on="1"/>
        <pt x="626" y="442" on="0"/>
        <pt x="670" y="392" on="0"/>
        <pt x="702" y="338" on="0"/>
        <pt x="721" y="276" on="0"/>
        <pt x="721" y="240" on="1"/>
        <pt x="721" y="194" on="0"/>
        <pt x="692" y="100" on="0"/>
        <pt x="622" y="25" on="0"/>
        <pt x="505" y="-22" on="0"/>
        <pt x="417" y="-22" on="1"/>
        <pt x="347" y="-22" on="0"/>
        <pt x="225" y="16" on="0"/>
        <pt x="135" y="82" on="0"/>
        <pt x="84" y="171" on="0"/>
        <pt x="84" y="222" on="1"/>
        <pt x="84" y="257" on="0"/>
        <pt x="105" y="342" on="0"/>
        <pt x="137" y="386" on="1"/>
        <pt x="111" y="421" on="0"/>
        <pt x="97" y="490" on="0"/>
        <pt x="97" y="513" on="1"/>
        <pt x="97" y="557" on="0"/>
        <pt x="125" y="631" on="0"/>
        <pt x="172" y="685" on="0"/>
        <pt x="234" y="716" on="0"/>
        <pt x="268" y="716" on="1"/>
        <pt x="302" y="716" on="0"/>
        <pt x="356" y="689" on="0"/>
        <pt x="395" y="646" on="0"/>
        <pt x="416" y="593" on="0"/>
        <pt x="416" y="566" on="1"/>
        <pt x="416" y="549" on="0"/>
        <pt x="404" y="530" on="0"/>
        <pt x="389" y="520" on="0"/>
        <pt x="374" y="517" on="0"/>
        <pt x="370" y="517" on="1"/>
        <pt x="352" y="517" on="0"/>
        <pt x="324" y="541" on="0"/>
        <pt x="324" y="562" on="1"/>
        <pt x="324" y="586" on="0"/>
        <pt x="354" y="608" on="0"/>
        <pt x="370" y="608" on="1"/>
        <pt x="372" y="608" on="0"/>
        <pt x="382" y="608" on="0"/>
        <pt x="384" y="607" on="1"/>
        <pt x="373" y="642" on="0"/>
        <pt x="312" y="694" on="0"/>
        <pt x="269" y="694" on="1"/>
        <pt x="261" y="694" on="0"/>
        <pt x="227" y="685" on="0"/>
        <pt x="192" y="650" on="0"/>
        <pt x="166" y="578" on="0"/>
        <pt x="166" y="515" on="1"/>
        <pt x="166" y="501" on="0"/>
        <pt x="168" y="451" on="0"/>
        <pt x="176" y="425" on="1"/>
        <pt x="192" y="438" on="0"/>
        <pt x="245" y="461" on="0"/>
        <pt x="276" y="461" on="1"/>
        <pt x="296" y="461" on="0"/>
        <pt x="328" y="447" on="0"/>
        <pt x="350" y="426" on="0"/>
        <pt x="361" y="399" on="0"/>
        <pt x="361" y="386" on="1"/>
        <pt x="361" y="357" on="0"/>
        <pt x="315" y="310" on="0"/>
        <pt x="276" y="310" on="1"/>
        <pt x="243" y="310" on="0"/>
        <pt x="190" y="334" on="0"/>
        <pt x="179" y="342" on="1"/>
        <pt x="174" y="322" on="0"/>
        <pt x="167" y="266" on="0"/>
        <pt x="167" y="231" on="1"/>
        <pt x="167" y="157" on="0"/>
        <pt x="222" y="66" on="0"/>
        <pt x="301" y="17" on="0"/>
        <pt x="388" y="0" on="0"/>
        <pt x="419" y="0" on="1"/>
        <pt x="493" y="0" on="0"/>
        <pt x="598" y="38" on="0"/>
        <pt x="665" y="103" on="0"/>
        <pt x="696" y="191" on="0"/>
        <pt x="696" y="240" on="1"/>
        <pt x="696" y="272" on="0"/>
        <pt x="677" y="331" on="0"/>
        <pt x="645" y="384" on="0"/>
        <pt x="603" y="431" on="0"/>
        <pt x="580" y="452" on="1"/>
        <pt x="554" y="434" on="0"/>
        <pt x="528" y="419" on="0"/>
        <pt x="513" y="408" on="1"/>
        <pt x="499" y="397" on="0"/>
        <pt x="469" y="363" on="0"/>
        <pt x="469" y="336" on="1"/>
        <pt x="469" y="333" on="0"/>
        <pt x="472" y="303" on="0"/>
        <pt x="483" y="289" on="1"/>
        <pt x="486" y="309" on="0"/>
        <pt x="511" y="325" on="0"/>
        <pt x="524" y="325" on="1"/>
        <pt x="546" y="325" on="0"/>
        <pt x="566" y="298" on="0"/>
        <pt x="566" y="284" on="1"/>
        <pt x="566" y="266" on="0"/>
        <pt x="544" y="242" on="0"/>
        <pt x="524" y="242" on="1"/>
        <pt x="506" y="242" on="0"/>
        <pt x="477" y="258" on="0"/>
        <pt x="456" y="284" on="0"/>
        <pt x="444" y="318" on="0"/>
        <pt x="444" y="336" on="1"/>
        <pt x="444" y="358" on="0"/>
        <pt x="461" y="392" on="0"/>
        <pt x="487" y="420" on="0"/>
        <pt x="521" y="443" on="0"/>
        <pt x="537" y="453" on="1"/>
        <pt x="555" y="465" on="0"/>
        <pt x="594" y="492" on="0"/>
        <pt x="629" y="530" on="0"/>
        <pt x="657" y="579" on="0"/>
        <pt x="664" y="613" on="1"/>
        <pt x="656" y="611" on="0"/>
        <pt x="651" y="611" on="1"/>
        <pt x="634" y="611" on="0"/>
        <pt x="610" y="634" on="0"/>
        <pt x="610" y="652" on="1"/>
        <pt x="610" y="674" on="0"/>
        <pt x="637" y="694" on="0"/>
        <pt x="651" y="694" on="1"/>
        <pt x="653" y="694" on="0"/>
        <pt x="667" y="692" on="0"/>
        <pt x="682" y="683" on="0"/>
        <pt x="693" y="665" on="0"/>
        <pt x="693" y="648" on="1"/>
        <pt x="693" y="627" on="0"/>
        <pt x="682" y="579" on="0"/>
        <pt x="660" y="531" on="0"/>
        <pt x="625" y="485" on="0"/>
      </contour>
      <contour>
        <pt x="196" y="380" on="1"/>
        <pt x="200" y="374" on="0"/>
        <pt x="215" y="358" on="0"/>
        <pt x="235" y="343" on="0"/>
        <pt x="261" y="332" on="0"/>
        <pt x="277" y="332" on="1"/>
        <pt x="303" y="332" on="0"/>
        <pt x="336" y="363" on="0"/>
        <pt x="336" y="386" on="1"/>
        <pt x="336" y="406" on="0"/>
        <pt x="305" y="439" on="0"/>
        <pt x="277" y="439" on="1"/>
        <pt x="273" y="439" on="0"/>
        <pt x="255" y="437" on="0"/>
        <pt x="232" y="425" on="0"/>
        <pt x="207" y="401" on="0"/>
      </contour>
    </TTGlyph>
    <TTGlyph name="asterisk" xMin="93" yMin="319" xMax="462" yMax="750">
      <contour>
        <pt x="304" y="344" on="1"/>
        <pt x="304" y="334" on="0"/>
        <pt x="289" y="319" on="0"/>
        <pt x="277" y="319" on="1"/>
        <pt x="267" y="319" on="0"/>
        <pt x="251" y="333" on="0"/>
        <pt x="251" y="344" on="1"/>
        <pt x="266" y="514" on="1"/>
        <pt x="141" y="422" on="1"/>
        <pt x="132" y="415" on="0"/>
        <pt x="123" y="413" on="0"/>
        <pt x="120" y="413" on="1"/>
        <pt x="108" y="413" on="0"/>
        <pt x="93" y="431" on="0"/>
        <pt x="93" y="441" on="1"/>
        <pt x="93" y="454" on="0"/>
        <pt x="106" y="463" on="0"/>
        <pt x="115" y="468" on="1"/>
        <pt x="255" y="535" on="1"/>
        <pt x="113" y="602" on="1"/>
        <pt x="106" y="605" on="0"/>
        <pt x="93" y="615" on="0"/>
        <pt x="93" y="628" on="1"/>
        <pt x="93" y="638" on="0"/>
        <pt x="108" y="656" on="0"/>
        <pt x="120" y="656" on="1"/>
        <pt x="125" y="656" on="0"/>
        <pt x="132" y="654" on="0"/>
        <pt x="141" y="646" on="1"/>
        <pt x="266" y="555" on="1"/>
        <pt x="251" y="725" on="1"/>
        <pt x="251" y="735" on="0"/>
        <pt x="266" y="750" on="0"/>
        <pt x="278" y="750" on="1"/>
        <pt x="288" y="750" on="0"/>
        <pt x="304" y="736" on="0"/>
        <pt x="304" y="725" on="1"/>
        <pt x="289" y="555" on="1"/>
        <pt x="414" y="647" on="1"/>
        <pt x="423" y="654" on="0"/>
        <pt x="432" y="656" on="0"/>
        <pt x="435" y="656" on="1"/>
        <pt x="447" y="656" on="0"/>
        <pt x="462" y="638" on="0"/>
        <pt x="462" y="628" on="1"/>
        <pt x="462" y="615" on="0"/>
        <pt x="449" y="606" on="0"/>
        <pt x="440" y="601" on="1"/>
        <pt x="300" y="534" on="1"/>
        <pt x="442" y="467" on="1"/>
        <pt x="449" y="464" on="0"/>
        <pt x="462" y="454" on="0"/>
        <pt x="462" y="441" on="1"/>
        <pt x="462" y="431" on="0"/>
        <pt x="447" y="413" on="0"/>
        <pt x="435" y="413" on="1"/>
        <pt x="430" y="413" on="0"/>
        <pt x="423" y="415" on="0"/>
        <pt x="414" y="423" on="1"/>
        <pt x="289" y="514" on="1"/>
      </contour>
    </TTGlyph>
    <TTGlyph name="at" xMin="84" yMin="-11" xMax="748" yMax="705">
      <contour>
        <pt x="615" y="216" on="1"/>
        <pt x="615" y="210" on="0"/>
        <pt x="616" y="188" on="0"/>
        <pt x="623" y="166" on="0"/>
        <pt x="637" y="150" on="0"/>
        <pt x="650" y="150" on="1"/>
        <pt x="675" y="150" on="0"/>
        <pt x="704" y="181" on="0"/>
        <pt x="719" y="232" on="0"/>
        <pt x="723" y="298" on="0"/>
        <pt x="723" y="332" on="1"/>
        <pt x="723" y="423" on="0"/>
        <pt x="665" y="555" on="0"/>
        <pt x="575" y="641" on="0"/>
        <pt x="467" y="683" on="0"/>
        <pt x="416" y="683" on="1"/>
        <pt x="353" y="683" on="0"/>
        <pt x="242" y="631" on="0"/>
        <pt x="158" y="540" on="0"/>
        <pt x="109" y="418" on="0"/>
        <pt x="109" y="347" on="1"/>
        <pt x="109" y="280" on="0"/>
        <pt x="156" y="158" on="0"/>
        <pt x="238" y="66" on="0"/>
        <pt x="353" y="11" on="0"/>
        <pt x="420" y="11" on="1"/>
        <pt x="471" y="11" on="0"/>
        <pt x="560" y="27" on="0"/>
        <pt x="630" y="48" on="0"/>
        <pt x="680" y="69" on="0"/>
        <pt x="692" y="75" on="1"/>
        <pt x="696" y="77" on="0"/>
        <pt x="703" y="78" on="0"/>
        <pt x="715" y="78" on="1"/>
        <pt x="724" y="78" on="1"/>
        <pt x="736" y="78" on="0"/>
        <pt x="747" y="76" on="0"/>
        <pt x="747" y="68" on="1"/>
        <pt x="747" y="62" on="0"/>
        <pt x="708" y="44" on="0"/>
        <pt x="656" y="26" on="0"/>
        <pt x="603" y="11" on="0"/>
        <pt x="589" y="8" on="1"/>
        <pt x="542" y="-3" on="0"/>
        <pt x="457" y="-11" on="0"/>
        <pt x="422" y="-11" on="1"/>
        <pt x="346" y="-11" on="0"/>
        <pt x="221" y="49" on="0"/>
        <pt x="133" y="148" on="0"/>
        <pt x="84" y="277" on="0"/>
        <pt x="84" y="347" on="1"/>
        <pt x="84" y="422" on="0"/>
        <pt x="137" y="553" on="0"/>
        <pt x="227" y="649" on="0"/>
        <pt x="348" y="705" on="0"/>
        <pt x="416" y="705" on="1"/>
        <pt x="478" y="705" on="0"/>
        <pt x="597" y="655" on="0"/>
        <pt x="690" y="561" on="0"/>
        <pt x="748" y="425" on="0"/>
        <pt x="748" y="338" on="1"/>
        <pt x="748" y="298" on="0"/>
        <pt x="741" y="222" on="0"/>
        <pt x="719" y="164" on="0"/>
        <pt x="679" y="128" on="0"/>
        <pt x="646" y="128" on="1"/>
        <pt x="632" y="128" on="0"/>
        <pt x="600" y="136" on="0"/>
        <pt x="571" y="152" on="0"/>
        <pt x="550" y="180" on="0"/>
        <pt x="546" y="199" on="1"/>
        <pt x="521" y="164" on="0"/>
        <pt x="452" y="128" on="0"/>
        <pt x="415" y="128" on="1"/>
        <pt x="376" y="128" on="0"/>
        <pt x="304" y="161" on="0"/>
        <pt x="250" y="220" on="0"/>
        <pt x="217" y="300" on="0"/>
        <pt x="217" y="347" on="1"/>
        <pt x="217" y="394" on="0"/>
        <pt x="249" y="474" on="0"/>
        <pt x="304" y="533" on="0"/>
        <pt x="376" y="566" on="0"/>
        <pt x="415" y="566" on="1"/>
        <pt x="462" y="566" on="0"/>
        <pt x="534" y="516" on="0"/>
        <pt x="556" y="481" on="1"/>
        <pt x="591" y="481" on="1"/>
        <pt x="608" y="481" on="0"/>
        <pt x="615" y="474" on="0"/>
        <pt x="615" y="457" on="1"/>
      </contour>
      <contour>
        <pt x="546" y="433" on="1"/>
        <pt x="546" y="440" on="0"/>
        <pt x="546" y="448" on="0"/>
        <pt x="543" y="456" on="0"/>
        <pt x="538" y="465" on="0"/>
        <pt x="533" y="472" on="1"/>
        <pt x="518" y="496" on="0"/>
        <pt x="484" y="524" on="0"/>
        <pt x="453" y="539" on="0"/>
        <pt x="426" y="544" on="0"/>
        <pt x="417" y="544" on="1"/>
        <pt x="391" y="544" on="0"/>
        <pt x="343" y="514" on="0"/>
        <pt x="307" y="461" on="0"/>
        <pt x="286" y="389" on="0"/>
        <pt x="286" y="347" on="1"/>
        <pt x="286" y="305" on="0"/>
        <pt x="307" y="233" on="0"/>
        <pt x="343" y="180" on="0"/>
        <pt x="390" y="150" on="0"/>
        <pt x="417" y="150" on="1"/>
        <pt x="425" y="150" on="0"/>
        <pt x="451" y="154" on="0"/>
        <pt x="482" y="169" on="0"/>
        <pt x="516" y="196" on="0"/>
        <pt x="532" y="219" on="1"/>
        <pt x="537" y="227" on="0"/>
        <pt x="543" y="237" on="0"/>
        <pt x="546" y="245" on="0"/>
        <pt x="546" y="254" on="0"/>
        <pt x="546" y="261" on="1"/>
      </contour>
    </TTGlyph>
    <TTGlyph name="b" xMin="-1" yMin="-11" xMax="429" yMax="694">
      <contour>
        <pt x="146" y="381" on="1"/>
        <pt x="165" y="407" on="0"/>
        <pt x="216" y="442" on="0"/>
        <pt x="251" y="442" on="1"/>
        <pt x="285" y="442" on="0"/>
        <pt x="349" y="409" on="0"/>
        <pt x="399" y="349" on="0"/>
        <pt x="429" y="266" on="0"/>
        <pt x="429" y="215" on="1"/>
        <pt x="429" y="167" on="0"/>
        <pt x="400" y="84" on="0"/>
        <pt x="350" y="23" on="0"/>
        <pt x="286" y="-11" on="0"/>
        <pt x="250" y="-11" on="1"/>
        <pt x="226" y="-11" on="0"/>
        <pt x="186" y="4" on="0"/>
        <pt x="153" y="26" on="0"/>
        <pt x="127" y="54" on="0"/>
        <pt x="119" y="66" on="1"/>
        <pt x="103" y="91" on="0"/>
        <pt x="86" y="135" on="0"/>
        <pt x="78" y="184" on="0"/>
        <pt x="77" y="247" on="0"/>
        <pt x="77" y="291" on="1"/>
        <pt x="77" y="579" on="1"/>
        <pt x="77" y="603" on="0"/>
        <pt x="75" y="632" on="0"/>
        <pt x="60" y="647" on="0"/>
        <pt x="28" y="652" on="0"/>
        <pt x="-1" y="652" on="1"/>
        <pt x="-1" y="683" on="1"/>
        <pt x="146" y="694" on="1"/>
      </contour>
      <contour>
        <pt x="146" y="203" on="1"/>
        <pt x="146" y="142" on="0"/>
        <pt x="170" y="67" on="0"/>
        <pt x="203" y="25" on="0"/>
        <pt x="238" y="11" on="0"/>
        <pt x="249" y="11" on="1"/>
        <pt x="266" y="11" on="0"/>
        <pt x="292" y="26" on="0"/>
        <pt x="312" y="47" on="0"/>
        <pt x="325" y="71" on="0"/>
        <pt x="329" y="80" on="1"/>
        <pt x="342" y="112" on="0"/>
        <pt x="346" y="182" on="0"/>
        <pt x="346" y="216" on="1"/>
        <pt x="346" y="254" on="0"/>
        <pt x="341" y="323" on="0"/>
        <pt x="327" y="356" on="1"/>
        <pt x="326" y="360" on="0"/>
        <pt x="315" y="381" on="0"/>
        <pt x="295" y="403" on="0"/>
        <pt x="267" y="420" on="0"/>
        <pt x="249" y="420" on="1"/>
        <pt x="230" y="420" on="0"/>
        <pt x="193" y="401" on="0"/>
        <pt x="164" y="370" on="0"/>
        <pt x="146" y="332" on="0"/>
        <pt x="146" y="314" on="1"/>
      </contour>
    </TTGlyph>
    <TTGlyph name="bracketleft" xMin="146" yMin="-250" xMax="282" yMax="750">
      <contour>
        <pt x="146" y="-250" on="1"/>
        <pt x="146" y="750" on="1"/>
        <pt x="282" y="750" on="1"/>
        <pt x="282" y="710" on="1"/>
        <pt x="186" y="710" on="1"/>
        <pt x="186" y="-210" on="1"/>
        <pt x="282" y="-210" on="1"/>
        <pt x="282" y="-250" on="1"/>
      </contour>
    </TTGlyph>
    <TTGlyph name="bracketright" xMin="50" yMin="-250" xMax="186" yMax="750">
      <contour>
        <pt x="186" y="-250" on="1"/>
        <pt x="50" y="-250" on="1"/>
        <pt x="50" y="-210" on="1"/>
        <pt x="146" y="-210" on="1"/>
        <pt x="146" y="710" on="1"/>
        <pt x="50" y="710" on="1"/>
        <pt x="50" y="750" on="1"/>
        <pt x="186" y="750" on="1"/>
      </contour>
    </TTGlyph>
    <TTGlyph name="breve" xMin="128" yMin="522" xMax="427" yMax="694">
      <contour>
        <pt x="427" y="694" on="1"/>
        <pt x="426" y="655" on="0"/>
        <pt x="401" y="591" on="0"/>
        <pt x="360" y="546" on="0"/>
        <pt x="306" y="522" on="0"/>
        <pt x="277" y="522" on="1"/>
        <pt x="249" y="522" on="0"/>
        <pt x="196" y="545" on="0"/>
        <pt x="155" y="590" on="0"/>
        <pt x="129" y="654" on="0"/>
        <pt x="128" y="694" on="1"/>
        <pt x="150" y="694" on="1"/>
        <pt x="151" y="662" on="0"/>
        <pt x="173" y="612" on="0"/>
        <pt x="209" y="578" on="0"/>
        <pt x="254" y="560" on="0"/>
        <pt x="278" y="560" on="1"/>
        <pt x="300" y="560" on="0"/>
        <pt x="345" y="577" on="0"/>
        <pt x="381" y="611" on="0"/>
        <pt x="404" y="661" on="0"/>
        <pt x="405" y="694" on="1"/>
      </contour>
    </TTGlyph>
    <TTGlyph name="c" xMin="70" yMin="-11" xMax="479" yMax="442">
      <contour>
        <pt x="372" y="382" on="1"/>
        <pt x="360" y="396" on="0"/>
        <pt x="329" y="412" on="0"/>
        <pt x="302" y="419" on="0"/>
        <pt x="282" y="420" on="0"/>
        <pt x="279" y="420" on="1"/>
        <pt x="259" y="420" on="0"/>
        <pt x="227" y="407" on="0"/>
        <pt x="203" y="388" on="0"/>
        <pt x="186" y="366" on="0"/>
        <pt x="181" y="358" on="1"/>
        <pt x="163" y="326" on="0"/>
        <pt x="153" y="254" on="0"/>
        <pt x="153" y="215" on="1"/>
        <pt x="153" y="182" on="0"/>
        <pt x="161" y="107" on="0"/>
        <pt x="180" y="75" on="1"/>
        <pt x="183" y="69" on="0"/>
        <pt x="198" y="48" on="0"/>
        <pt x="222" y="27" on="0"/>
        <pt x="257" y="11" on="0"/>
        <pt x="280" y="11" on="1"/>
        <pt x="285" y="11" on="0"/>
        <pt x="326" y="14" on="0"/>
        <pt x="379" y="33" on="0"/>
        <pt x="435" y="74" on="0"/>
        <pt x="455" y="112" on="1"/>
        <pt x="457" y="115" on="0"/>
        <pt x="461" y="120" on="0"/>
        <pt x="466" y="120" on="1"/>
        <pt x="470" y="120" on="0"/>
        <pt x="479" y="113" on="0"/>
        <pt x="479" y="108" on="1"/>
        <pt x="479" y="102" on="0"/>
        <pt x="456" y="63" on="0"/>
        <pt x="408" y="22" on="0"/>
        <pt x="332" y="-11" on="0"/>
        <pt x="279" y="-11" on="1"/>
        <pt x="235" y="-11" on="0"/>
        <pt x="158" y="25" on="0"/>
        <pt x="102" y="86" on="0"/>
        <pt x="70" y="169" on="0"/>
        <pt x="70" y="216" on="1"/>
        <pt x="70" y="263" on="0"/>
        <pt x="103" y="346" on="0"/>
        <pt x="159" y="407" on="0"/>
        <pt x="235" y="442" on="0"/>
        <pt x="277" y="442" on="1"/>
        <pt x="307" y="442" on="0"/>
        <pt x="357" y="426" on="0"/>
        <pt x="394" y="397" on="0"/>
        <pt x="415" y="359" on="0"/>
        <pt x="415" y="338" on="1"/>
        <pt x="415" y="324" on="0"/>
        <pt x="405" y="306" on="0"/>
        <pt x="391" y="295" on="0"/>
        <pt x="375" y="290" on="0"/>
        <pt x="369" y="290" on="1"/>
        <pt x="352" y="290" on="0"/>
        <pt x="323" y="314" on="0"/>
        <pt x="323" y="336" on="1"/>
        <pt x="323" y="341" on="0"/>
        <pt x="325" y="356" on="0"/>
        <pt x="335" y="371" on="0"/>
        <pt x="355" y="382" on="0"/>
      </contour>
    </TTGlyph>
    <TTGlyph name="caron" xMin="146" yMin="516" xMax="409" yMax="638">
      <contour>
        <pt x="395" y="638" on="1"/>
        <pt x="409" y="618" on="1"/>
        <pt x="277" y="516" on="1"/>
        <pt x="146" y="618" on="1"/>
        <pt x="160" y="638" on="1"/>
        <pt x="278" y="569" on="1"/>
      </contour>
    </TTGlyph>
    <TTGlyph name="cedilla" xMin="159" yMin="-203" xMax="395" yMax="-22">
      <contour>
        <pt x="312" y="-55" on="1"/>
        <pt x="347" y="-60" on="0"/>
        <pt x="395" y="-94" on="0"/>
        <pt x="395" y="-126" on="1"/>
        <pt x="395" y="-155" on="0"/>
        <pt x="350" y="-186" on="0"/>
        <pt x="287" y="-200" on="0"/>
        <pt x="223" y="-203" on="0"/>
        <pt x="203" y="-203" on="1"/>
        <pt x="159" y="-203" on="1"/>
        <pt x="159" y="-181" on="1"/>
        <pt x="190" y="-181" on="1"/>
        <pt x="260" y="-181" on="0"/>
        <pt x="326" y="-155" on="0"/>
        <pt x="326" y="-126" on="1"/>
        <pt x="326" y="-103" on="0"/>
        <pt x="284" y="-72" on="0"/>
        <pt x="243" y="-71" on="1"/>
        <pt x="243" y="-22" on="1"/>
        <pt x="312" y="-22" on="1"/>
      </contour>
    </TTGlyph>
    <TTGlyph name="circumflex" xMin="144" yMin="540" xMax="411" yMax="694">
      <contour>
        <pt x="411" y="558" on="1"/>
        <pt x="393" y="540" on="1"/>
        <pt x="278" y="642" on="1"/>
        <pt x="162" y="540" on="1"/>
        <pt x="144" y="558" on="1"/>
        <pt x="278" y="694" on="1"/>
      </contour>
    </TTGlyph>
    <TTGlyph name="colon" xMin="113" yMin="0" xMax="219" yMax="431">
      <contour>
        <pt x="219" y="378" on="1"/>
        <pt x="219" y="356" on="0"/>
        <pt x="188" y="325" on="0"/>
        <pt x="166" y="325" on="1"/>
        <pt x="144" y="325" on="0"/>
        <pt x="113" y="356" on="0"/>
        <pt x="113" y="378" on="1"/>
        <pt x="113" y="400" on="0"/>
        <pt x="144" y="431" on="0"/>
        <pt x="166" y="431" on="1"/>
        <pt x="188" y="431" on="0"/>
        <pt x="219" y="400" on="0"/>
      </contour>
      <contour>
        <pt x="219" y="53" on="1"/>
        <pt x="219" y="31" on="0"/>
        <pt x="188" y="0" on="0"/>
        <pt x="166" y="0" on="1"/>
        <pt x="144" y="0" on="0"/>
        <pt x="113" y="31" on="0"/>
        <pt x="113" y="53" on="1"/>
        <pt x="113" y="75" on="0"/>
        <pt x="144" y="106" on="0"/>
        <pt x="166" y="106" on="1"/>
        <pt x="188" y="106" on="0"/>
        <pt x="219" y="75" on="0"/>
      </contour>
    </TTGlyph>
    <TTGlyph name="comma" xMin="113" yMin="-193" xMax="230" yMax="106">
      <contour>
        <pt x="204" y="14" on="1"/>
        <pt x="196" y="8" on="0"/>
        <pt x="178" y="0" on="0"/>
        <pt x="166" y="0" on="1"/>
        <pt x="139" y="0" on="0"/>
        <pt x="113" y="33" on="0"/>
        <pt x="113" y="53" on="1"/>
        <pt x="113" y="73" on="0"/>
        <pt x="140" y="106" on="0"/>
        <pt x="166" y="106" on="1"/>
        <pt x="196" y="106" on="0"/>
        <pt x="230" y="49" on="0"/>
        <pt x="230" y="1" on="1"/>
        <pt x="230" y="-42" on="0"/>
        <pt x="205" y="-114" on="0"/>
        <pt x="173" y="-165" on="0"/>
        <pt x="144" y="-193" on="0"/>
        <pt x="139" y="-193" on="1"/>
        <pt x="129" y="-193" on="0"/>
        <pt x="129" y="-182" on="1"/>
        <pt x="129" y="-178" on="0"/>
        <pt x="136" y="-171" on="1"/>
        <pt x="169" y="-136" on="0"/>
        <pt x="208" y="-47" on="0"/>
        <pt x="208" y="1" on="1"/>
        <pt x="208" y="12" on="0"/>
        <pt x="207" y="16" on="0"/>
        <pt x="206" y="16" on="1"/>
      </contour>
    </TTGlyph>
    <TTGlyph name="d" xMin="70" yMin="-11" xMax="539" yMax="694">
      <contour>
        <pt x="423" y="694" on="1"/>
        <pt x="423" y="110" on="1"/>
        <pt x="423" y="100" on="0"/>
        <pt x="426" y="66" on="0"/>
        <pt x="436" y="34" on="0"/>
        <pt x="455" y="11" on="0"/>
        <pt x="472" y="11" on="1"/>
        <pt x="491" y="11" on="0"/>
        <pt x="514" y="56" on="0"/>
        <pt x="514" y="118" on="1"/>
        <pt x="514" y="129" on="1"/>
        <pt x="514" y="143" on="0"/>
        <pt x="517" y="153" on="0"/>
        <pt x="526" y="153" on="1"/>
        <pt x="529" y="153" on="0"/>
        <pt x="538" y="151" on="0"/>
        <pt x="539" y="143" on="1"/>
        <pt x="539" y="121" on="1"/>
        <pt x="539" y="60" on="0"/>
        <pt x="511" y="-11" on="0"/>
        <pt x="470" y="-11" on="1"/>
        <pt x="442" y="-11" on="0"/>
        <pt x="379" y="24" on="0"/>
        <pt x="362" y="63" on="1"/>
        <pt x="345" y="34" on="0"/>
        <pt x="287" y="-11" on="0"/>
        <pt x="249" y="-11" on="1"/>
        <pt x="215" y="-11" on="0"/>
        <pt x="150" y="22" on="0"/>
        <pt x="100" y="82" on="0"/>
        <pt x="70" y="166" on="0"/>
        <pt x="70" y="216" on="1"/>
        <pt x="70" y="265" on="0"/>
        <pt x="100" y="348" on="0"/>
        <pt x="149" y="408" on="0"/>
        <pt x="214" y="442" on="0"/>
        <pt x="249" y="442" on="1"/>
        <pt x="269" y="442" on="0"/>
        <pt x="303" y="428" on="0"/>
        <pt x="330" y="409" on="0"/>
        <pt x="349" y="388" on="0"/>
        <pt x="354" y="381" on="1"/>
        <pt x="354" y="596" on="1"/>
        <pt x="354" y="614" on="0"/>
        <pt x="349" y="636" on="0"/>
        <pt x="333" y="648" on="0"/>
        <pt x="302" y="652" on="0"/>
        <pt x="276" y="652" on="1"/>
        <pt x="276" y="683" on="1"/>
      </contour>
      <contour>
        <pt x="354" y="314" on="1"/>
        <pt x="354" y="333" on="0"/>
        <pt x="337" y="366" on="0"/>
        <pt x="320" y="386" on="1"/>
        <pt x="318" y="388" on="0"/>
        <pt x="306" y="399" on="0"/>
        <pt x="288" y="411" on="0"/>
        <pt x="265" y="420" on="0"/>
        <pt x="251" y="420" on="1"/>
        <pt x="221" y="420" on="0"/>
        <pt x="180" y="375" on="0"/>
        <pt x="169" y="349" on="1"/>
        <pt x="157" y="317" on="0"/>
        <pt x="153" y="246" on="0"/>
        <pt x="153" y="215" on="1"/>
        <pt x="153" y="170" on="0"/>
        <pt x="159" y="105" on="0"/>
        <pt x="173" y="74" on="1"/>
        <pt x="176" y="67" on="0"/>
        <pt x="189" y="45" on="0"/>
        <pt x="208" y="25" on="0"/>
        <pt x="235" y="11" on="0"/>
        <pt x="251" y="11" on="1"/>
        <pt x="269" y="11" on="0"/>
        <pt x="306" y="31" on="0"/>
        <pt x="335" y="62" on="0"/>
        <pt x="354" y="99" on="0"/>
        <pt x="354" y="117" on="1"/>
      </contour>
    </TTGlyph>
    <TTGlyph name="dieresis" xMin="131" yMin="569" xMax="424" yMax="669">
      <contour>
        <pt x="231" y="619" on="1"/>
        <pt x="231" y="601" on="0"/>
        <pt x="204" y="569" on="0"/>
        <pt x="181" y="569" on="1"/>
        <pt x="160" y="569" on="0"/>
        <pt x="131" y="598" on="0"/>
        <pt x="131" y="619" on="1"/>
        <pt x="131" y="640" on="0"/>
        <pt x="160" y="669" on="0"/>
        <pt x="181" y="669" on="1"/>
        <pt x="204" y="669" on="0"/>
        <pt x="231" y="637" on="0"/>
      </contour>
      <contour>
        <pt x="424" y="619" on="1"/>
        <pt x="424" y="598" on="0"/>
        <pt x="395" y="569" on="0"/>
        <pt x="374" y="569" on="1"/>
        <pt x="351" y="569" on="0"/>
        <pt x="324" y="601" on="0"/>
        <pt x="324" y="619" on="1"/>
        <pt x="324" y="637" on="0"/>
        <pt x="351" y="669" on="0"/>
        <pt x="374" y="669" on="1"/>
        <pt x="395" y="669" on="0"/>
        <pt x="424" y="640" on="0"/>
      </contour>
    </TTGlyph>
    <TTGlyph name="dotaccent" xMin="113" yMin="563" xMax="219" yMax="669">
      <contour>
        <pt x="219" y="616" on="1"/>
        <pt x="219" y="594" on="0"/>
        <pt x="188" y="563" on="0"/>
        <pt x="166" y="563" on="1"/>
        <pt x="144" y="563" on="0"/>
        <pt x="113" y="594" on="0"/>
        <pt x="113" y="616" on="1"/>
        <pt x="113" y="638" on="0"/>
        <pt x="144" y="669" on="0"/>
        <pt x="166" y="669" on="1"/>
        <pt x="188" y="669" on="0"/>
        <pt x="219" y="638" on="0"/>
      </contour>
    </TTGlyph>
    <TTGlyph name="dotlessi" xMin="16" yMin="-11" xMax="316" yMax="442">
      <contour>
        <pt x="316" y="135" on="1"/>
        <pt x="316" y="128" on="0"/>
        <pt x="311" y="80" on="0"/>
        <pt x="292" y="29" on="0"/>
        <pt x="254" y="-11" on="0"/>
        <pt x="221" y="-11" on="1"/>
        <pt x="200" y="-11" on="0"/>
        <pt x="162" y="6" on="0"/>
        <pt x="133" y="34" on="0"/>
        <pt x="117" y="73" on="0"/>
        <pt x="117" y="95" on="1"/>
        <pt x="117" y="100" on="0"/>
        <pt x="118" y="117" on="0"/>
        <pt x="122" y="147" on="1"/>
        <pt x="124" y="161" on="0"/>
        <pt x="133" y="221" on="0"/>
        <pt x="141" y="286" on="0"/>
        <pt x="147" y="342" on="0"/>
        <pt x="147" y="352" on="1"/>
        <pt x="147" y="360" on="0"/>
        <pt x="146" y="383" on="0"/>
        <pt x="138" y="405" on="0"/>
        <pt x="123" y="420" on="0"/>
        <pt x="109" y="420" on="1"/>
        <pt x="89" y="420" on="0"/>
        <pt x="63" y="395" on="0"/>
        <pt x="48" y="358" on="0"/>
        <pt x="42" y="314" on="0"/>
        <pt x="41" y="294" on="1"/>
        <pt x="41" y="287" on="0"/>
        <pt x="37" y="278" on="0"/>
        <pt x="29" y="278" on="1"/>
        <pt x="19" y="278" on="0"/>
        <pt x="16" y="288" on="0"/>
        <pt x="16" y="296" on="1"/>
        <pt x="16" y="304" on="0"/>
        <pt x="21" y="351" on="0"/>
        <pt x="40" y="402" on="0"/>
        <pt x="78" y="442" on="0"/>
        <pt x="111" y="442" on="1"/>
        <pt x="132" y="442" on="0"/>
        <pt x="170" y="425" on="0"/>
        <pt x="199" y="397" on="0"/>
        <pt x="215" y="358" on="0"/>
        <pt x="215" y="336" on="1"/>
        <pt x="215" y="331" on="0"/>
        <pt x="214" y="314" on="0"/>
        <pt x="210" y="284" on="1"/>
        <pt x="208" y="270" on="0"/>
        <pt x="199" y="210" on="0"/>
        <pt x="191" y="145" on="0"/>
        <pt x="185" y="89" on="0"/>
        <pt x="185" y="79" on="1"/>
        <pt x="185" y="71" on="0"/>
        <pt x="186" y="48" on="0"/>
        <pt x="194" y="26" on="0"/>
        <pt x="209" y="11" on="0"/>
        <pt x="223" y="11" on="1"/>
        <pt x="243" y="11" on="0"/>
        <pt x="269" y="36" on="0"/>
        <pt x="284" y="73" on="0"/>
        <pt x="290" y="118" on="0"/>
        <pt x="291" y="137" on="1"/>
        <pt x="291" y="144" on="0"/>
        <pt x="295" y="153" on="0"/>
        <pt x="303" y="153" on="1"/>
        <pt x="313" y="153" on="0"/>
        <pt x="316" y="143" on="0"/>
      </contour>
    </TTGlyph>
    <TTGlyph name="e" xMin="70" yMin="-11" xMax="479" yMax="442">
      <contour>
        <pt x="153" y="231" on="1"/>
        <pt x="154" y="193" on="0"/>
        <pt x="161" y="123" on="0"/>
        <pt x="178" y="86" on="1"/>
        <pt x="180" y="83" on="0"/>
        <pt x="193" y="59" on="0"/>
        <pt x="218" y="32" on="0"/>
        <pt x="256" y="11" on="0"/>
        <pt x="281" y="11" on="1"/>
        <pt x="286" y="11" on="0"/>
        <pt x="327" y="14" on="0"/>
        <pt x="379" y="33" on="0"/>
        <pt x="435" y="74" on="0"/>
        <pt x="455" y="112" on="1"/>
        <pt x="457" y="115" on="0"/>
        <pt x="461" y="120" on="0"/>
        <pt x="466" y="120" on="1"/>
        <pt x="470" y="120" on="0"/>
        <pt x="479" y="113" on="0"/>
        <pt x="479" y="108" on="1"/>
        <pt x="479" y="102" on="0"/>
        <pt x="456" y="63" on="0"/>
        <pt x="407" y="21" on="0"/>
        <pt x="332" y="-11" on="0"/>
        <pt x="280" y="-11" on="1"/>
        <pt x="233" y="-11" on="0"/>
        <pt x="156" y="31" on="0"/>
        <pt x="100" y="101" on="0"/>
        <pt x="70" y="191" on="0"/>
        <pt x="70" y="239" on="1"/>
        <pt x="70" y="284" on="0"/>
        <pt x="105" y="359" on="0"/>
        <pt x="162" y="413" on="0"/>
        <pt x="236" y="442" on="0"/>
        <pt x="276" y="442" on="1"/>
        <pt x="302" y="442" on="0"/>
        <pt x="348" y="427" on="0"/>
        <pt x="384" y="399" on="0"/>
        <pt x="405" y="360" on="0"/>
        <pt x="405" y="336" on="1"/>
        <pt x="405" y="280" on="0"/>
        <pt x="303" y="231" on="0"/>
        <pt x="206" y="231" on="1"/>
      </contour>
      <contour>
        <pt x="197" y="253" on="1"/>
        <pt x="251" y="253" on="0"/>
        <pt x="318" y="267" on="0"/>
        <pt x="357" y="289" on="0"/>
        <pt x="371" y="320" on="0"/>
        <pt x="371" y="336" on="1"/>
        <pt x="371" y="354" on="0"/>
        <pt x="356" y="384" on="0"/>
        <pt x="331" y="407" on="0"/>
        <pt x="297" y="420" on="0"/>
        <pt x="277" y="420" on="1"/>
        <pt x="256" y="420" on="0"/>
        <pt x="205" y="399" on="0"/>
        <pt x="183" y="370" on="1"/>
        <pt x="164" y="344" on="0"/>
        <pt x="154" y="280" on="0"/>
        <pt x="153" y="253" on="1"/>
      </contour>
    </TTGlyph>
    <TTGlyph name="eight" xMin="70" yMin="-22" xMax="485" yMax="666">
      <contour>
        <pt x="337" y="362" on="1"/>
        <pt x="361" y="347" on="0"/>
        <pt x="393" y="327" on="0"/>
        <pt x="414" y="312" on="0"/>
        <pt x="429" y="299" on="0"/>
        <pt x="436" y="291" on="1"/>
        <pt x="465" y="259" on="0"/>
        <pt x="485" y="195" on="0"/>
        <pt x="485" y="168" on="1"/>
        <pt x="485" y="128" on="0"/>
        <pt x="452" y="58" on="0"/>
        <pt x="395" y="7" on="0"/>
        <pt x="319" y="-22" on="0"/>
        <pt x="277" y="-22" on="1"/>
        <pt x="238" y="-22" on="0"/>
        <pt x="163" y="2" on="0"/>
        <pt x="105" y="47" on="0"/>
        <pt x="70" y="111" on="0"/>
        <pt x="70" y="151" on="1"/>
        <pt x="70" y="188" on="0"/>
        <pt x="99" y="247" on="0"/>
        <pt x="142" y="292" on="0"/>
        <pt x="192" y="324" on="0"/>
        <pt x="214" y="335" on="1"/>
        <pt x="205" y="341" on="0"/>
        <pt x="183" y="356" on="0"/>
        <pt x="162" y="371" on="0"/>
        <pt x="145" y="385" on="0"/>
        <pt x="141" y="389" on="1"/>
        <pt x="125" y="407" on="0"/>
        <pt x="108" y="440" on="0"/>
        <pt x="99" y="469" on="0"/>
        <pt x="97" y="492" on="0"/>
        <pt x="97" y="499" on="1"/>
        <pt x="97" y="534" on="0"/>
        <pt x="125" y="595" on="0"/>
        <pt x="175" y="640" on="0"/>
        <pt x="241" y="666" on="0"/>
        <pt x="278" y="666" on="1"/>
        <pt x="312" y="666" on="0"/>
        <pt x="377" y="645" on="0"/>
        <pt x="427" y="607" on="0"/>
        <pt x="458" y="552" on="0"/>
        <pt x="458" y="517" on="1"/>
        <pt x="458" y="467" on="0"/>
        <pt x="391" y="390" on="0"/>
      </contour>
      <contour>
        <pt x="315" y="377" on="1"/>
        <pt x="360" y="403" on="0"/>
        <pt x="414" y="474" on="0"/>
        <pt x="414" y="517" on="1"/>
        <pt x="414" y="544" on="0"/>
        <pt x="392" y="590" on="0"/>
        <pt x="354" y="623" on="0"/>
        <pt x="304" y="641" on="0"/>
        <pt x="277" y="641" on="1"/>
        <pt x="250" y="641" on="0"/>
        <pt x="201" y="626" on="0"/>
        <pt x="164" y="599" on="0"/>
        <pt x="141" y="561" on="0"/>
        <pt x="141" y="538" on="1"/>
        <pt x="141" y="532" on="0"/>
        <pt x="144" y="513" on="0"/>
        <pt x="154" y="492" on="0"/>
        <pt x="174" y="468" on="0"/>
        <pt x="191" y="457" on="1"/>
      </contour>
      <contour>
        <pt x="237" y="320" on="1"/>
        <pt x="173" y="285" on="0"/>
        <pt x="120" y="195" on="0"/>
        <pt x="120" y="151" on="1"/>
        <pt x="120" y="120" on="0"/>
        <pt x="145" y="67" on="0"/>
        <pt x="188" y="28" on="0"/>
        <pt x="246" y="6" on="0"/>
        <pt x="278" y="6" on="1"/>
        <pt x="309" y="6" on="0"/>
        <pt x="366" y="25" on="0"/>
        <pt x="409" y="58" on="0"/>
        <pt x="435" y="104" on="0"/>
        <pt x="435" y="132" on="1"/>
        <pt x="435" y="155" on="0"/>
        <pt x="419" y="190" on="0"/>
        <pt x="397" y="216" on="0"/>
        <pt x="371" y="235" on="0"/>
        <pt x="360" y="242" on="1"/>
      </contour>
    </TTGlyph>
    <TTGlyph name="emdash" xMin="56" yMin="255" xMax="1054" yMax="277">
      <contour>
        <pt x="56" y="255" on="1"/>
        <pt x="56" y="277" on="1"/>
        <pt x="1054" y="277" on="1"/>
        <pt x="1054" y="255" on="1"/>
      </contour>
    </TTGlyph>
    <TTGlyph name="endash" xMin="28" yMin="255" xMax="527" yMax="277">
      <contour>
        <pt x="28" y="255" on="1"/>
        <pt x="28" y="277" on="1"/>
        <pt x="527" y="277" on="1"/>
        <pt x="527" y="255" on="1"/>
      </contour>
    </TTGlyph>
    <TTGlyph name="equal" xMin="84" yMin="133" xMax="748" yMax="367">
      <contour>
        <pt x="118" y="327" on="1"/>
        <pt x="107" y="327" on="0"/>
        <pt x="84" y="332" on="0"/>
        <pt x="84" y="347" on="1"/>
        <pt x="84" y="362" on="0"/>
        <pt x="106" y="367" on="0"/>
        <pt x="117" y="367" on="1"/>
        <pt x="715" y="367" on="1"/>
        <pt x="726" y="367" on="0"/>
        <pt x="748" y="362" on="0"/>
        <pt x="748" y="347" on="1"/>
        <pt x="748" y="332" on="0"/>
        <pt x="725" y="327" on="0"/>
        <pt x="714" y="327" on="1"/>
      </contour>
      <contour>
        <pt x="117" y="133" on="1"/>
        <pt x="106" y="133" on="0"/>
        <pt x="84" y="138" on="0"/>
        <pt x="84" y="153" on="1"/>
        <pt x="84" y="168" on="0"/>
        <pt x="107" y="173" on="0"/>
        <pt x="118" y="173" on="1"/>
        <pt x="714" y="173" on="1"/>
        <pt x="725" y="173" on="0"/>
        <pt x="748" y="168" on="0"/>
        <pt x="748" y="153" on="1"/>
        <pt x="748" y="138" on="0"/>
        <pt x="726" y="133" on="0"/>
        <pt x="715" y="133" on="1"/>
      </contour>
    </TTGlyph>
    <TTGlyph name="exclam" xMin="113" yMin="0" xMax="219" yMax="716">
      <contour>
        <pt x="180" y="209" on="1"/>
        <pt x="179" y="196" on="0"/>
        <pt x="174" y="187" on="0"/>
        <pt x="166" y="187" on="1"/>
        <pt x="157" y="187" on="0"/>
        <pt x="153" y="199" on="0"/>
        <pt x="152" y="210" on="1"/>
        <pt x="113" y="665" on="1"/>
        <pt x="113" y="690" on="0"/>
        <pt x="146" y="716" on="0"/>
        <pt x="166" y="716" on="1"/>
        <pt x="186" y="716" on="0"/>
        <pt x="219" y="690" on="0"/>
        <pt x="219" y="665" on="1"/>
      </contour>
      <contour>
        <pt x="219" y="53" on="1"/>
        <pt x="219" y="31" on="0"/>
        <pt x="188" y="0" on="0"/>
        <pt x="166" y="0" on="1"/>
        <pt x="144" y="0" on="0"/>
        <pt x="113" y="31" on="0"/>
        <pt x="113" y="53" on="1"/>
        <pt x="113" y="75" on="0"/>
        <pt x="144" y="106" on="0"/>
        <pt x="166" y="106" on="1"/>
        <pt x="188" y="106" on="0"/>
        <pt x="219" y="75" on="0"/>
      </contour>
    </TTGlyph>
    <TTGlyph name="exclamdown" xMin="113" yMin="-216" xMax="219" yMax="500">
      <contour>
        <pt x="219" y="447" on="1"/>
        <pt x="219" y="425" on="0"/>
        <pt x="188" y="394" on="0"/>
        <pt x="166" y="394" on="1"/>
        <pt x="144" y="394" on="0"/>
        <pt x="113" y="425" on="0"/>
        <pt x="113" y="447" on="1"/>
        <pt x="113" y="469" on="0"/>
        <pt x="144" y="500" on="0"/>
        <pt x="166" y="500" on="1"/>
        <pt x="188" y="500" on="0"/>
        <pt x="219" y="469" on="0"/>
      </contour>
      <contour>
        <pt x="219" y="-165" on="1"/>
        <pt x="219" y="-190" on="0"/>
        <pt x="186" y="-216" on="0"/>
        <pt x="166" y="-216" on="1"/>
        <pt x="146" y="-216" on="0"/>
        <pt x="113" y="-190" on="0"/>
        <pt x="113" y="-165" on="1"/>
        <pt x="152" y="291" on="1"/>
        <pt x="153" y="304" on="0"/>
        <pt x="158" y="313" on="0"/>
        <pt x="166" y="313" on="1"/>
        <pt x="175" y="313" on="0"/>
        <pt x="179" y="301" on="0"/>
        <pt x="180" y="290" on="1"/>
      </contour>
    </TTGlyph>
    <TTGlyph name="f" xMin="9" yMin="-205" xMax="318" yMax="705">
      <contour>
        <pt x="211" y="85" on="1"/>
        <pt x="212" y="68" on="0"/>
        <pt x="213" y="28" on="0"/>
        <pt x="213" y="11" on="1"/>
        <pt x="213" y="1" on="0"/>
        <pt x="212" y="-39" on="0"/>
        <pt x="206" y="-87" on="0"/>
        <pt x="194" y="-138" on="0"/>
        <pt x="171" y="-179" on="0"/>
        <pt x="136" y="-205" on="0"/>
        <pt x="110" y="-205" on="1"/>
        <pt x="91" y="-205" on="0"/>
        <pt x="55" y="-193" on="0"/>
        <pt x="26" y="-170" on="0"/>
        <pt x="9" y="-139" on="0"/>
        <pt x="9" y="-120" on="1"/>
        <pt x="9" y="-94" on="0"/>
        <pt x="41" y="-73" on="0"/>
        <pt x="55" y="-73" on="1"/>
        <pt x="72" y="-73" on="0"/>
        <pt x="101" y="-96" on="0"/>
        <pt x="101" y="-119" on="1"/>
        <pt x="101" y="-142" on="0"/>
        <pt x="74" y="-164" on="0"/>
        <pt x="58" y="-166" on="1"/>
        <pt x="81" y="-183" on="0"/>
        <pt x="110" y="-183" on="1"/>
        <pt x="125" y="-183" on="0"/>
        <pt x="141" y="-162" on="0"/>
        <pt x="149" y="-134" on="0"/>
        <pt x="150" y="-105" on="0"/>
        <pt x="150" y="-97" on="1"/>
        <pt x="150" y="-74" on="0"/>
        <pt x="149" y="-23" on="0"/>
        <pt x="147" y="0" on="1"/>
        <pt x="122" y="400" on="1"/>
        <pt x="36" y="400" on="1"/>
        <pt x="36" y="431" on="1"/>
        <pt x="120" y="431" on="1"/>
        <pt x="118" y="459" on="0"/>
        <pt x="113" y="533" on="0"/>
        <pt x="113" y="560" on="1"/>
        <pt x="113" y="565" on="0"/>
        <pt x="114" y="589" on="0"/>
        <pt x="118" y="618" on="0"/>
        <pt x="126" y="649" on="0"/>
        <pt x="134" y="661" on="1"/>
        <pt x="146" y="678" on="0"/>
        <pt x="186" y="705" on="0"/>
        <pt x="214" y="705" on="1"/>
        <pt x="234" y="705" on="0"/>
        <pt x="271" y="693" on="0"/>
        <pt x="300" y="671" on="0"/>
        <pt x="318" y="640" on="0"/>
        <pt x="318" y="620" on="1"/>
        <pt x="318" y="594" on="0"/>
        <pt x="286" y="573" on="0"/>
        <pt x="272" y="573" on="1"/>
        <pt x="255" y="573" on="0"/>
        <pt x="226" y="596" on="0"/>
        <pt x="226" y="619" on="1"/>
        <pt x="226" y="642" on="0"/>
        <pt x="254" y="664" on="0"/>
        <pt x="268" y="666" on="1"/>
        <pt x="261" y="671" on="0"/>
        <pt x="232" y="683" on="0"/>
        <pt x="215" y="683" on="1"/>
        <pt x="203" y="683" on="0"/>
        <pt x="178" y="662" on="0"/>
        <pt x="178" y="635" on="1"/>
        <pt x="178" y="627" on="0"/>
        <pt x="178" y="608" on="0"/>
        <pt x="179" y="600" on="1"/>
        <pt x="189" y="431" on="1"/>
        <pt x="293" y="431" on="1"/>
        <pt x="293" y="400" on="1"/>
        <pt x="191" y="400" on="1"/>
      </contour>
    </TTGlyph>
    <TTGlyph name="f_f" xMin="9" yMin="-205" xMax="652" yMax="705">
      <contour>
        <pt x="534" y="80" on="1"/>
        <pt x="535" y="71" on="0"/>
        <pt x="535" y="35" on="0"/>
        <pt x="535" y="25" on="1"/>
        <pt x="535" y="-17" on="0"/>
        <pt x="528" y="-73" on="0"/>
        <pt x="519" y="-109" on="0"/>
        <pt x="510" y="-128" on="0"/>
        <pt x="507" y="-132" on="1"/>
        <pt x="488" y="-162" on="0"/>
        <pt x="426" y="-205" on="0"/>
        <pt x="384" y="-205" on="1"/>
        <pt x="362" y="-205" on="0"/>
        <pt x="319" y="-194" on="0"/>
        <pt x="285" y="-172" on="0"/>
        <pt x="264" y="-141" on="0"/>
        <pt x="264" y="-120" on="1"/>
        <pt x="264" y="-94" on="0"/>
        <pt x="296" y="-73" on="0"/>
        <pt x="310" y="-73" on="1"/>
        <pt x="327" y="-73" on="0"/>
        <pt x="356" y="-96" on="0"/>
        <pt x="356" y="-119" on="1"/>
        <pt x="356" y="-138" on="0"/>
        <pt x="335" y="-161" on="0"/>
        <pt x="317" y="-165" on="1"/>
        <pt x="328" y="-172" on="0"/>
        <pt x="350" y="-179" on="0"/>
        <pt x="368" y="-182" on="0"/>
        <pt x="382" y="-183" on="0"/>
        <pt x="383" y="-183" on="1"/>
        <pt x="424" y="-183" on="0"/>
        <pt x="451" y="-144" on="1"/>
        <pt x="458" y="-134" on="0"/>
        <pt x="465" y="-117" on="0"/>
        <pt x="468" y="-96" on="0"/>
        <pt x="469" y="-67" on="0"/>
        <pt x="469" y="-45" on="1"/>
        <pt x="469" y="-17" on="0"/>
        <pt x="468" y="18" on="0"/>
        <pt x="466" y="44" on="1"/>
        <pt x="445" y="400" on="1"/>
        <pt x="191" y="400" on="1"/>
        <pt x="211" y="87" on="1"/>
        <pt x="212" y="70" on="0"/>
        <pt x="213" y="28" on="0"/>
        <pt x="213" y="11" on="1"/>
        <pt x="213" y="1" on="0"/>
        <pt x="212" y="-40" on="0"/>
        <pt x="206" y="-88" on="0"/>
        <pt x="194" y="-138" on="0"/>
        <pt x="171" y="-179" on="0"/>
        <pt x="136" y="-205" on="0"/>
        <pt x="110" y="-205" on="1"/>
        <pt x="91" y="-205" on="0"/>
        <pt x="55" y="-193" on="0"/>
        <pt x="26" y="-170" on="0"/>
        <pt x="9" y="-139" on="0"/>
        <pt x="9" y="-120" on="1"/>
        <pt x="9" y="-94" on="0"/>
        <pt x="41" y="-73" on="0"/>
        <pt x="55" y="-73" on="1"/>
        <pt x="72" y="-73" on="0"/>
        <pt x="101" y="-96" on="0"/>
        <pt x="101" y="-119" on="1"/>
        <pt x="101" y="-142" on="0"/>
        <pt x="74" y="-164" on="0"/>
        <pt x="58" y="-166" on="1"/>
        <pt x="81" y="-183" on="0"/>
        <pt x="110" y="-183" on="1"/>
        <pt x="125" y="-183" on="0"/>
        <pt x="141" y="-163" on="0"/>
        <pt x="149" y="-134" on="0"/>
        <pt x="150" y="-105" on="0"/>
        <pt x="150" y="-96" on="1"/>
        <pt x="150" y="-73" on="0"/>
        <pt x="149" y="-21" on="0"/>
        <pt x="147" y="2" on="1"/>
        <pt x="122" y="400" on="1"/>
        <pt x="36" y="400" on="1"/>
        <pt x="36" y="431" on="1"/>
        <pt x="120" y="431" on="1"/>
        <pt x="118" y="457" on="0"/>
        <pt x="114" y="522" on="0"/>
        <pt x="114" y="547" on="1"/>
        <pt x="114" y="565" on="0"/>
        <pt x="119" y="618" on="0"/>
        <pt x="148" y="669" on="0"/>
        <pt x="211" y="705" on="0"/>
        <pt x="269" y="705" on="1"/>
        <pt x="326" y="705" on="0"/>
        <pt x="402" y="660" on="0"/>
        <pt x="402" y="620" on="1"/>
        <pt x="402" y="594" on="0"/>
        <pt x="370" y="573" on="0"/>
        <pt x="356" y="573" on="1"/>
        <pt x="339" y="573" on="0"/>
        <pt x="310" y="596" on="0"/>
        <pt x="310" y="619" on="1"/>
        <pt x="310" y="638" on="0"/>
        <pt x="331" y="661" on="0"/>
        <pt x="349" y="665" on="1"/>
        <pt x="331" y="676" on="0"/>
        <pt x="288" y="683" on="0"/>
        <pt x="271" y="683" on="1"/>
        <pt x="239" y="683" on="0"/>
        <pt x="207" y="666" on="0"/>
        <pt x="201" y="661" on="1"/>
        <pt x="197" y="658" on="0"/>
        <pt x="189" y="650" on="0"/>
        <pt x="184" y="635" on="0"/>
        <pt x="181" y="609" on="0"/>
        <pt x="181" y="587" on="1"/>
        <pt x="181" y="582" on="0"/>
        <pt x="184" y="505" on="0"/>
        <pt x="189" y="431" on="1"/>
        <pt x="443" y="431" on="1"/>
        <pt x="436" y="558" on="1"/>
        <pt x="436" y="588" on="0"/>
        <pt x="445" y="643" on="0"/>
        <pt x="459" y="662" on="1"/>
        <pt x="470" y="678" on="0"/>
        <pt x="512" y="705" on="0"/>
        <pt x="542" y="705" on="1"/>
        <pt x="562" y="705" on="0"/>
        <pt x="601" y="694" on="0"/>
        <pt x="632" y="672" on="0"/>
        <pt x="652" y="640" on="0"/>
        <pt x="652" y="620" on="1"/>
        <pt x="652" y="594" on="0"/>
        <pt x="620" y="573" on="0"/>
        <pt x="606" y="573" on="1"/>
        <pt x="589" y="573" on="0"/>
        <pt x="560" y="596" on="0"/>
        <pt x="560" y="619" on="1"/>
        <pt x="560" y="636" on="0"/>
        <pt x="579" y="661" on="0"/>
        <pt x="601" y="665" on="1"/>
        <pt x="582" y="679" on="0"/>
        <pt x="545" y="683" on="0"/>
        <pt x="543" y="683" on="1"/>
        <pt x="526" y="683" on="0"/>
        <pt x="499" y="655" on="0"/>
        <pt x="501" y="625" on="1"/>
        <pt x="512" y="431" on="1"/>
        <pt x="616" y="431" on="1"/>
        <pt x="616" y="400" on="1"/>
        <pt x="514" y="400" on="1"/>
      </contour>
    </TTGlyph>
    <TTGlyph name="f_f_i" xMin="9" yMin="-205" xMax="941" yMax="705">
      <contour>
        <pt x="544" y="89" on="1"/>
        <pt x="545" y="77" on="0"/>
        <pt x="545" y="42" on="0"/>
        <pt x="545" y="29" on="1"/>
        <pt x="545" y="16" on="0"/>
        <pt x="544" y="-24" on="0"/>
        <pt x="540" y="-67" on="0"/>
        <pt x="529" y="-110" on="0"/>
        <pt x="520" y="-127" on="1"/>
        <pt x="514" y="-136" on="0"/>
        <pt x="493" y="-163" on="0"/>
        <pt x="460" y="-188" on="0"/>
        <pt x="416" y="-205" on="0"/>
        <pt x="389" y="-205" on="1"/>
        <pt x="367" y="-205" on="0"/>
        <pt x="322" y="-195" on="0"/>
        <pt x="286" y="-174" on="0"/>
        <pt x="263" y="-142" on="0"/>
        <pt x="263" y="-120" on="1"/>
        <pt x="263" y="-94" on="0"/>
        <pt x="295" y="-73" on="0"/>
        <pt x="309" y="-73" on="1"/>
        <pt x="326" y="-73" on="0"/>
        <pt x="355" y="-96" on="0"/>
        <pt x="355" y="-119" on="1"/>
        <pt x="355" y="-138" on="0"/>
        <pt x="334" y="-161" on="0"/>
        <pt x="316" y="-165" on="1"/>
        <pt x="332" y="-175" on="0"/>
        <pt x="374" y="-183" on="0"/>
        <pt x="388" y="-183" on="1"/>
        <pt x="408" y="-183" on="0"/>
        <pt x="448" y="-162" on="0"/>
        <pt x="465" y="-136" on="1"/>
        <pt x="468" y="-131" on="0"/>
        <pt x="473" y="-120" on="0"/>
        <pt x="478" y="-101" on="0"/>
        <pt x="480" y="-70" on="0"/>
        <pt x="480" y="-45" on="1"/>
        <pt x="480" y="-22" on="0"/>
        <pt x="479" y="32" on="0"/>
        <pt x="477" y="55" on="1"/>
        <pt x="455" y="400" on="1"/>
        <pt x="191" y="400" on="1"/>
        <pt x="211" y="77" on="1"/>
        <pt x="212" y="65" on="0"/>
        <pt x="212" y="26" on="0"/>
        <pt x="212" y="13" on="1"/>
        <pt x="212" y="1" on="0"/>
        <pt x="211" y="-41" on="0"/>
        <pt x="205" y="-89" on="0"/>
        <pt x="193" y="-139" on="0"/>
        <pt x="170" y="-179" on="0"/>
        <pt x="136" y="-205" on="0"/>
        <pt x="110" y="-205" on="1"/>
        <pt x="91" y="-205" on="0"/>
        <pt x="55" y="-193" on="0"/>
        <pt x="26" y="-170" on="0"/>
        <pt x="9" y="-139" on="0"/>
        <pt x="9" y="-120" on="1"/>
        <pt x="9" y="-94" on="0"/>
        <pt x="41" y="-73" on="0"/>
        <pt x="55" y="-73" on="1"/>
        <pt x="72" y="-73" on="0"/>
        <pt x="101" y="-96" on="0"/>
        <pt x="101" y="-119" on="1"/>
        <pt x="101" y="-142" on="0"/>
        <pt x="74" y="-164" on="0"/>
        <pt x="58" y="-166" on="1"/>
        <pt x="60" y="-167" on="0"/>
        <pt x="89" y="-183" on="0"/>
        <pt x="109" y="-183" on="1"/>
        <pt x="124" y="-183" on="0"/>
        <pt x="141" y="-162" on="0"/>
        <pt x="149" y="-135" on="0"/>
        <pt x="150" y="-108" on="0"/>
        <pt x="150" y="-101" on="1"/>
        <pt x="150" y="-82" on="0"/>
        <pt x="148" y="-32" on="0"/>
        <pt x="146" y="-9" on="1"/>
        <pt x="122" y="400" on="1"/>
        <pt x="35" y="400" on="1"/>
        <pt x="35" y="431" on="1"/>
        <pt x="120" y="431" on="1"/>
        <pt x="114" y="543" on="1"/>
        <pt x="114" y="563" on="0"/>
        <pt x="119" y="618" on="0"/>
        <pt x="151" y="669" on="0"/>
        <pt x="219" y="705" on="0"/>
        <pt x="282" y="705" on="1"/>
        <pt x="359" y="705" on="0"/>
        <pt x="430" y="656" on="0"/>
        <pt x="430" y="620" on="1"/>
        <pt x="430" y="594" on="0"/>
        <pt x="398" y="573" on="0"/>
        <pt x="384" y="573" on="1"/>
        <pt x="367" y="573" on="0"/>
        <pt x="338" y="596" on="0"/>
        <pt x="338" y="619" on="1"/>
        <pt x="338" y="643" on="0"/>
        <pt x="366" y="663" on="0"/>
        <pt x="375" y="665" on="1"/>
        <pt x="350" y="677" on="0"/>
        <pt x="300" y="683" on="0"/>
        <pt x="285" y="683" on="1"/>
        <pt x="246" y="683" on="0"/>
        <pt x="204" y="665" on="0"/>
        <pt x="184" y="636" on="0"/>
        <pt x="181" y="599" on="0"/>
        <pt x="181" y="579" on="1"/>
        <pt x="189" y="431" on="1"/>
        <pt x="453" y="431" on="1"/>
        <pt x="451" y="457" on="0"/>
        <pt x="448" y="518" on="0"/>
        <pt x="448" y="534" on="1"/>
        <pt x="448" y="593" on="0"/>
        <pt x="482" y="661" on="0"/>
        <pt x="537" y="696" on="0"/>
        <pt x="607" y="705" on="0"/>
        <pt x="643" y="705" on="1"/>
        <pt x="657" y="705" on="0"/>
        <pt x="717" y="702" on="0"/>
        <pt x="778" y="684" on="0"/>
        <pt x="825" y="646" on="0"/>
        <pt x="825" y="610" on="1"/>
        <pt x="825" y="584" on="0"/>
        <pt x="793" y="563" on="0"/>
        <pt x="779" y="563" on="1"/>
        <pt x="762" y="563" on="0"/>
        <pt x="733" y="586" on="0"/>
        <pt x="733" y="609" on="1"/>
        <pt x="733" y="632" on="0"/>
        <pt x="761" y="654" on="0"/>
        <pt x="775" y="656" on="1"/>
        <pt x="762" y="665" on="0"/>
        <pt x="729" y="676" on="0"/>
        <pt x="695" y="681" on="0"/>
        <pt x="661" y="683" on="0"/>
        <pt x="647" y="683" on="1"/>
        <pt x="602" y="683" on="0"/>
        <pt x="550" y="669" on="0"/>
        <pt x="523" y="640" on="0"/>
        <pt x="515" y="596" on="0"/>
        <pt x="515" y="567" on="1"/>
        <pt x="523" y="431" on="1"/>
        <pt x="801" y="431" on="1"/>
        <pt x="818" y="431" on="0"/>
        <pt x="825" y="424" on="0"/>
        <pt x="825" y="407" on="1"/>
        <pt x="825" y="110" on="1"/>
        <pt x="825" y="100" on="0"/>
        <pt x="828" y="66" on="0"/>
        <pt x="838" y="34" on="0"/>
        <pt x="857" y="11" on="0"/>
        <pt x="874" y="11" on="1"/>
        <pt x="893" y="11" on="0"/>
        <pt x="916" y="56" on="0"/>
        <pt x="916" y="118" on="1"/>
        <pt x="916" y="129" on="1"/>
        <pt x="916" y="143" on="0"/>
        <pt x="919" y="153" on="0"/>
        <pt x="928" y="153" on="1"/>
        <pt x="931" y="153" on="0"/>
        <pt x="940" y="151" on="0"/>
        <pt x="941" y="143" on="1"/>
        <pt x="941" y="121" on="1"/>
        <pt x="941" y="60" on="0"/>
        <pt x="913" y="-11" on="0"/>
        <pt x="872" y="-11" on="1"/>
        <pt x="855" y="-11" on="0"/>
        <pt x="815" y="2" on="0"/>
        <pt x="780" y="32" on="0"/>
        <pt x="756" y="80" on="0"/>
        <pt x="756" y="114" on="1"/>
        <pt x="756" y="400" on="1"/>
        <pt x="525" y="400" on="1"/>
      </contour>
    </TTGlyph>
    <TTGlyph name="f_f_l" xMin="9" yMin="-205" xMax="955" yMax="705">
      <contour>
        <pt x="544" y="91" on="1"/>
        <pt x="545" y="79" on="0"/>
        <pt x="545" y="42" on="0"/>
        <pt x="545" y="29" on="1"/>
        <pt x="545" y="15" on="0"/>
        <pt x="544" y="-26" on="0"/>
        <pt x="539" y="-69" on="0"/>
        <pt x="528" y="-112" on="0"/>
        <pt x="518" y="-129" on="1"/>
        <pt x="501" y="-157" on="0"/>
        <pt x="436" y="-205" on="0"/>
        <pt x="389" y="-205" on="1"/>
        <pt x="367" y="-205" on="0"/>
        <pt x="322" y="-195" on="0"/>
        <pt x="286" y="-174" on="0"/>
        <pt x="263" y="-142" on="0"/>
        <pt x="263" y="-120" on="1"/>
        <pt x="263" y="-94" on="0"/>
        <pt x="295" y="-73" on="0"/>
        <pt x="309" y="-73" on="1"/>
        <pt x="326" y="-73" on="0"/>
        <pt x="355" y="-96" on="0"/>
        <pt x="355" y="-119" on="1"/>
        <pt x="355" y="-138" on="0"/>
        <pt x="334" y="-161" on="0"/>
        <pt x="316" y="-165" on="1"/>
        <pt x="335" y="-176" on="0"/>
        <pt x="379" y="-183" on="0"/>
        <pt x="388" y="-183" on="1"/>
        <pt x="434" y="-183" on="0"/>
        <pt x="464" y="-137" on="1"/>
        <pt x="467" y="-132" on="0"/>
        <pt x="473" y="-121" on="0"/>
        <pt x="478" y="-102" on="0"/>
        <pt x="480" y="-71" on="0"/>
        <pt x="480" y="-45" on="1"/>
        <pt x="480" y="-22" on="0"/>
        <pt x="479" y="32" on="0"/>
        <pt x="477" y="55" on="1"/>
        <pt x="455" y="400" on="1"/>
        <pt x="191" y="400" on="1"/>
        <pt x="210" y="78" on="1"/>
        <pt x="211" y="66" on="0"/>
        <pt x="212" y="51" on="0"/>
        <pt x="212" y="39" on="0"/>
        <pt x="212" y="25" on="0"/>
        <pt x="212" y="13" on="1"/>
        <pt x="212" y="1" on="0"/>
        <pt x="211" y="-41" on="0"/>
        <pt x="205" y="-89" on="0"/>
        <pt x="193" y="-139" on="0"/>
        <pt x="170" y="-179" on="0"/>
        <pt x="136" y="-205" on="0"/>
        <pt x="110" y="-205" on="1"/>
        <pt x="91" y="-205" on="0"/>
        <pt x="55" y="-193" on="0"/>
        <pt x="26" y="-170" on="0"/>
        <pt x="9" y="-139" on="0"/>
        <pt x="9" y="-120" on="1"/>
        <pt x="9" y="-94" on="0"/>
        <pt x="41" y="-73" on="0"/>
        <pt x="55" y="-73" on="1"/>
        <pt x="72" y="-73" on="0"/>
        <pt x="101" y="-96" on="0"/>
        <pt x="101" y="-119" on="1"/>
        <pt x="101" y="-142" on="0"/>
        <pt x="74" y="-164" on="0"/>
        <pt x="58" y="-166" on="1"/>
        <pt x="60" y="-167" on="0"/>
        <pt x="89" y="-183" on="0"/>
        <pt x="109" y="-183" on="1"/>
        <pt x="124" y="-183" on="0"/>
        <pt x="140" y="-164" on="0"/>
        <pt x="148" y="-138" on="0"/>
        <pt x="150" y="-110" on="0"/>
        <pt x="150" y="-101" on="1"/>
        <pt x="150" y="-81" on="0"/>
        <pt x="148" y="-31" on="0"/>
        <pt x="146" y="-8" on="1"/>
        <pt x="122" y="400" on="1"/>
        <pt x="35" y="400" on="1"/>
        <pt x="35" y="431" on="1"/>
        <pt x="120" y="431" on="1"/>
        <pt x="113" y="548" on="1"/>
        <pt x="113" y="570" on="0"/>
        <pt x="121" y="624" on="0"/>
        <pt x="152" y="672" on="0"/>
        <pt x="214" y="705" on="0"/>
        <pt x="268" y="705" on="1"/>
        <pt x="328" y="705" on="0"/>
        <pt x="402" y="658" on="0"/>
        <pt x="402" y="620" on="1"/>
        <pt x="402" y="594" on="0"/>
        <pt x="370" y="573" on="0"/>
        <pt x="356" y="573" on="1"/>
        <pt x="339" y="573" on="0"/>
        <pt x="310" y="596" on="0"/>
        <pt x="310" y="619" on="1"/>
        <pt x="310" y="638" on="0"/>
        <pt x="331" y="661" on="0"/>
        <pt x="349" y="665" on="1"/>
        <pt x="330" y="676" on="0"/>
        <pt x="286" y="683" on="0"/>
        <pt x="271" y="683" on="1"/>
        <pt x="253" y="683" on="0"/>
        <pt x="216" y="674" on="0"/>
        <pt x="201" y="662" on="1"/>
        <pt x="195" y="657" on="0"/>
        <pt x="187" y="648" on="0"/>
        <pt x="183" y="632" on="0"/>
        <pt x="181" y="606" on="0"/>
        <pt x="181" y="585" on="1"/>
        <pt x="181" y="578" on="0"/>
        <pt x="183" y="534" on="0"/>
        <pt x="186" y="484" on="0"/>
        <pt x="189" y="439" on="0"/>
        <pt x="189" y="431" on="1"/>
        <pt x="453" y="431" on="1"/>
        <pt x="447" y="546" on="1"/>
        <pt x="447" y="591" on="0"/>
        <pt x="471" y="652" on="0"/>
        <pt x="516" y="689" on="0"/>
        <pt x="579" y="705" on="0"/>
        <pt x="619" y="705" on="1"/>
        <pt x="634" y="705" on="0"/>
        <pt x="682" y="701" on="0"/>
        <pt x="728" y="687" on="0"/>
        <pt x="765" y="659" on="0"/>
        <pt x="769" y="634" on="1"/>
        <pt x="770" y="634" on="1"/>
        <pt x="770" y="670" on="1"/>
        <pt x="770" y="687" on="0"/>
        <pt x="777" y="694" on="0"/>
        <pt x="794" y="694" on="1"/>
        <pt x="815" y="694" on="1"/>
        <pt x="832" y="694" on="0"/>
        <pt x="839" y="687" on="0"/>
        <pt x="839" y="670" on="1"/>
        <pt x="839" y="110" on="1"/>
        <pt x="839" y="100" on="0"/>
        <pt x="842" y="66" on="0"/>
        <pt x="852" y="34" on="0"/>
        <pt x="871" y="11" on="0"/>
        <pt x="888" y="11" on="1"/>
        <pt x="907" y="11" on="0"/>
        <pt x="930" y="56" on="0"/>
        <pt x="930" y="118" on="1"/>
        <pt x="930" y="129" on="1"/>
        <pt x="930" y="143" on="0"/>
        <pt x="933" y="153" on="0"/>
        <pt x="942" y="153" on="1"/>
        <pt x="945" y="153" on="0"/>
        <pt x="954" y="151" on="0"/>
        <pt x="955" y="143" on="1"/>
        <pt x="955" y="121" on="1"/>
        <pt x="955" y="60" on="0"/>
        <pt x="927" y="-11" on="0"/>
        <pt x="886" y="-11" on="1"/>
        <pt x="869" y="-11" on="0"/>
        <pt x="829" y="2" on="0"/>
        <pt x="794" y="32" on="0"/>
        <pt x="770" y="80" on="0"/>
        <pt x="770" y="114" on="1"/>
        <pt x="770" y="400" on="1"/>
        <pt x="525" y="400" on="1"/>
      </contour>
      <contour>
        <pt x="523" y="431" on="1"/>
        <pt x="770" y="431" on="1"/>
        <pt x="770" y="605" on="1"/>
        <pt x="767" y="600" on="0"/>
        <pt x="765" y="596" on="1"/>
        <pt x="759" y="588" on="0"/>
        <pt x="755" y="584" on="1"/>
        <pt x="741" y="573" on="0"/>
        <pt x="724" y="573" on="1"/>
        <pt x="707" y="573" on="0"/>
        <pt x="678" y="596" on="0"/>
        <pt x="678" y="619" on="1"/>
        <pt x="678" y="643" on="0"/>
        <pt x="706" y="663" on="0"/>
        <pt x="715" y="665" on="1"/>
        <pt x="702" y="672" on="0"/>
        <pt x="672" y="679" on="0"/>
        <pt x="646" y="682" on="0"/>
        <pt x="626" y="683" on="0"/>
        <pt x="622" y="683" on="1"/>
        <pt x="607" y="683" on="0"/>
        <pt x="557" y="677" on="0"/>
        <pt x="537" y="661" on="1"/>
        <pt x="532" y="657" on="0"/>
        <pt x="524" y="647" on="0"/>
        <pt x="518" y="629" on="0"/>
        <pt x="515" y="601" on="0"/>
        <pt x="515" y="577" on="1"/>
      </contour>
    </TTGlyph>
    <TTGlyph name="fi" xMin="9" yMin="-205" xMax="594" yMax="705">
      <contour>
        <pt x="211" y="82" on="1"/>
        <pt x="212" y="70" on="0"/>
        <pt x="212" y="28" on="0"/>
        <pt x="212" y="14" on="1"/>
        <pt x="212" y="-12" on="0"/>
        <pt x="208" y="-86" on="0"/>
        <pt x="188" y="-156" on="0"/>
        <pt x="147" y="-205" on="0"/>
        <pt x="110" y="-205" on="1"/>
        <pt x="91" y="-205" on="0"/>
        <pt x="55" y="-193" on="0"/>
        <pt x="26" y="-170" on="0"/>
        <pt x="9" y="-139" on="0"/>
        <pt x="9" y="-120" on="1"/>
        <pt x="9" y="-94" on="0"/>
        <pt x="41" y="-73" on="0"/>
        <pt x="55" y="-73" on="1"/>
        <pt x="72" y="-73" on="0"/>
        <pt x="101" y="-96" on="0"/>
        <pt x="101" y="-119" on="1"/>
        <pt x="101" y="-142" on="0"/>
        <pt x="74" y="-164" on="0"/>
        <pt x="58" y="-166" on="1"/>
        <pt x="81" y="-183" on="0"/>
        <pt x="110" y="-183" on="1"/>
        <pt x="125" y="-183" on="0"/>
        <pt x="141" y="-162" on="0"/>
        <pt x="149" y="-134" on="0"/>
        <pt x="150" y="-106" on="0"/>
        <pt x="150" y="-98" on="1"/>
        <pt x="150" y="-88" on="0"/>
        <pt x="149" y="-58" on="0"/>
        <pt x="148" y="-29" on="0"/>
        <pt x="146" y="-6" on="0"/>
        <pt x="146" y="-3" on="1"/>
        <pt x="122" y="400" on="1"/>
        <pt x="35" y="400" on="1"/>
        <pt x="35" y="431" on="1"/>
        <pt x="120" y="431" on="1"/>
        <pt x="120" y="439" on="0"/>
        <pt x="118" y="471" on="0"/>
        <pt x="116" y="504" on="0"/>
        <pt x="114" y="532" on="0"/>
        <pt x="114" y="538" on="1"/>
        <pt x="114" y="596" on="0"/>
        <pt x="149" y="663" on="0"/>
        <pt x="204" y="696" on="0"/>
        <pt x="271" y="705" on="0"/>
        <pt x="303" y="705" on="1"/>
        <pt x="329" y="705" on="0"/>
        <pt x="390" y="698" on="0"/>
        <pt x="442" y="678" on="0"/>
        <pt x="478" y="640" on="0"/>
        <pt x="478" y="610" on="1"/>
        <pt x="478" y="584" on="0"/>
        <pt x="446" y="563" on="0"/>
        <pt x="432" y="563" on="1"/>
        <pt x="415" y="563" on="0"/>
        <pt x="386" y="586" on="0"/>
        <pt x="386" y="609" on="1"/>
        <pt x="386" y="632" on="0"/>
        <pt x="414" y="654" on="0"/>
        <pt x="428" y="656" on="1"/>
        <pt x="414" y="665" on="0"/>
        <pt x="379" y="676" on="0"/>
        <pt x="346" y="682" on="0"/>
        <pt x="316" y="683" on="0"/>
        <pt x="307" y="683" on="1"/>
        <pt x="261" y="683" on="0"/>
        <pt x="210" y="666" on="0"/>
        <pt x="186" y="635" on="0"/>
        <pt x="182" y="593" on="0"/>
        <pt x="182" y="568" on="1"/>
        <pt x="182" y="538" on="0"/>
        <pt x="187" y="462" on="0"/>
        <pt x="189" y="431" on="1"/>
        <pt x="454" y="431" on="1"/>
        <pt x="471" y="431" on="0"/>
        <pt x="478" y="424" on="0"/>
        <pt x="478" y="407" on="1"/>
        <pt x="478" y="110" on="1"/>
        <pt x="478" y="100" on="0"/>
        <pt x="481" y="66" on="0"/>
        <pt x="491" y="34" on="0"/>
        <pt x="510" y="11" on="0"/>
        <pt x="527" y="11" on="1"/>
        <pt x="546" y="11" on="0"/>
        <pt x="569" y="56" on="0"/>
        <pt x="569" y="118" on="1"/>
        <pt x="569" y="129" on="1"/>
        <pt x="569" y="143" on="0"/>
        <pt x="572" y="153" on="0"/>
        <pt x="581" y="153" on="1"/>
        <pt x="584" y="153" on="0"/>
        <pt x="593" y="151" on="0"/>
        <pt x="594" y="143" on="1"/>
        <pt x="594" y="121" on="1"/>
        <pt x="594" y="60" on="0"/>
        <pt x="566" y="-11" on="0"/>
        <pt x="525" y="-11" on="1"/>
        <pt x="508" y="-11" on="0"/>
        <pt x="468" y="2" on="0"/>
        <pt x="433" y="32" on="0"/>
        <pt x="409" y="80" on="0"/>
        <pt x="409" y="114" on="1"/>
        <pt x="409" y="400" on="1"/>
        <pt x="191" y="400" on="1"/>
      </contour>
    </TTGlyph>
    <TTGlyph name="five" xMin="78" yMin="-22" xMax="477" yMax="666">
      <contour>
        <pt x="160" y="369" on="1"/>
        <pt x="187" y="395" on="0"/>
        <pt x="251" y="420" on="0"/>
        <pt x="287" y="420" on="1"/>
        <pt x="328" y="420" on="0"/>
        <pt x="397" y="385" on="0"/>
        <pt x="448" y="325" on="0"/>
        <pt x="477" y="246" on="0"/>
        <pt x="477" y="201" on="1"/>
        <pt x="477" y="153" on="0"/>
        <pt x="442" y="72" on="0"/>
        <pt x="382" y="12" on="0"/>
        <pt x="303" y="-22" on="0"/>
        <pt x="259" y="-22" on="1"/>
        <pt x="217" y="-22" on="0"/>
        <pt x="150" y="11" on="0"/>
        <pt x="103" y="64" on="0"/>
        <pt x="78" y="129" on="0"/>
        <pt x="78" y="161" on="1"/>
        <pt x="78" y="178" on="0"/>
        <pt x="89" y="199" on="0"/>
        <pt x="105" y="210" on="0"/>
        <pt x="122" y="214" on="0"/>
        <pt x="127" y="214" on="1"/>
        <pt x="152" y="214" on="0"/>
        <pt x="177" y="183" on="0"/>
        <pt x="177" y="165" on="1"/>
        <pt x="177" y="147" on="0"/>
        <pt x="152" y="116" on="0"/>
        <pt x="127" y="116" on="1"/>
        <pt x="119" y="116" on="0"/>
        <pt x="112" y="117" on="0"/>
        <pt x="110" y="118" on="1"/>
        <pt x="116" y="96" on="0"/>
        <pt x="143" y="55" on="0"/>
        <pt x="182" y="24" on="0"/>
        <pt x="230" y="6" on="0"/>
        <pt x="257" y="6" on="1"/>
        <pt x="292" y="6" on="0"/>
        <pt x="346" y="42" on="0"/>
        <pt x="364" y="71" on="1"/>
        <pt x="373" y="87" on="0"/>
        <pt x="383" y="124" on="0"/>
        <pt x="387" y="161" on="0"/>
        <pt x="388" y="195" on="0"/>
        <pt x="388" y="208" on="1"/>
        <pt x="388" y="246" on="0"/>
        <pt x="382" y="306" on="0"/>
        <pt x="370" y="334" on="1"/>
        <pt x="367" y="341" on="0"/>
        <pt x="354" y="362" on="0"/>
        <pt x="334" y="383" on="0"/>
        <pt x="305" y="398" on="0"/>
        <pt x="285" y="398" on="1"/>
        <pt x="255" y="398" on="0"/>
        <pt x="210" y="381" on="0"/>
        <pt x="179" y="357" on="0"/>
        <pt x="160" y="334" on="0"/>
        <pt x="156" y="328" on="1"/>
        <pt x="153" y="323" on="0"/>
        <pt x="148" y="319" on="0"/>
        <pt x="143" y="319" on="1"/>
        <pt x="132" y="319" on="0"/>
        <pt x="129" y="331" on="0"/>
        <pt x="129" y="345" on="1"/>
        <pt x="129" y="641" on="1"/>
        <pt x="129" y="653" on="0"/>
        <pt x="131" y="665" on="0"/>
        <pt x="139" y="665" on="1"/>
        <pt x="141" y="665" on="0"/>
        <pt x="145" y="664" on="0"/>
        <pt x="151" y="662" on="1"/>
        <pt x="186" y="646" on="0"/>
        <pt x="254" y="634" on="0"/>
        <pt x="284" y="634" on="1"/>
        <pt x="335" y="634" on="0"/>
        <pt x="405" y="656" on="0"/>
        <pt x="420" y="663" on="1"/>
        <pt x="424" y="665" on="0"/>
        <pt x="427" y="666" on="0"/>
        <pt x="428" y="666" on="1"/>
        <pt x="438" y="666" on="0"/>
        <pt x="438" y="655" on="1"/>
        <pt x="438" y="650" on="0"/>
        <pt x="412" y="616" on="0"/>
        <pt x="363" y="580" on="0"/>
        <pt x="291" y="551" on="0"/>
        <pt x="245" y="551" on="1"/>
        <pt x="221" y="551" on="0"/>
        <pt x="175" y="559" on="0"/>
        <pt x="160" y="564" on="1"/>
      </contour>
    </TTGlyph>
    <TTGlyph name="fl" xMin="9" yMin="-205" xMax="622" yMax="705">
      <contour>
        <pt x="211" y="85" on="1"/>
        <pt x="212" y="68" on="0"/>
        <pt x="213" y="28" on="0"/>
        <pt x="213" y="11" on="1"/>
        <pt x="213" y="1" on="0"/>
        <pt x="212" y="-39" on="0"/>
        <pt x="206" y="-87" on="0"/>
        <pt x="194" y="-138" on="0"/>
        <pt x="171" y="-179" on="0"/>
        <pt x="136" y="-205" on="0"/>
        <pt x="110" y="-205" on="1"/>
        <pt x="91" y="-205" on="0"/>
        <pt x="55" y="-193" on="0"/>
        <pt x="26" y="-170" on="0"/>
        <pt x="9" y="-139" on="0"/>
        <pt x="9" y="-120" on="1"/>
        <pt x="9" y="-94" on="0"/>
        <pt x="41" y="-73" on="0"/>
        <pt x="55" y="-73" on="1"/>
        <pt x="72" y="-73" on="0"/>
        <pt x="101" y="-96" on="0"/>
        <pt x="101" y="-119" on="1"/>
        <pt x="101" y="-142" on="0"/>
        <pt x="74" y="-164" on="0"/>
        <pt x="58" y="-166" on="1"/>
        <pt x="81" y="-183" on="0"/>
        <pt x="110" y="-183" on="1"/>
        <pt x="125" y="-183" on="0"/>
        <pt x="141" y="-162" on="0"/>
        <pt x="149" y="-134" on="0"/>
        <pt x="150" y="-105" on="0"/>
        <pt x="150" y="-97" on="1"/>
        <pt x="150" y="-74" on="0"/>
        <pt x="149" y="-23" on="0"/>
        <pt x="147" y="0" on="1"/>
        <pt x="122" y="400" on="1"/>
        <pt x="36" y="400" on="1"/>
        <pt x="36" y="431" on="1"/>
        <pt x="120" y="431" on="1"/>
        <pt x="118" y="457" on="0"/>
        <pt x="114" y="518" on="0"/>
        <pt x="114" y="544" on="1"/>
        <pt x="114" y="581" on="0"/>
        <pt x="130" y="640" on="0"/>
        <pt x="169" y="682" on="0"/>
        <pt x="236" y="705" on="0"/>
        <pt x="286" y="705" on="1"/>
        <pt x="301" y="705" on="0"/>
        <pt x="349" y="701" on="0"/>
        <pt x="396" y="687" on="0"/>
        <pt x="432" y="659" on="0"/>
        <pt x="436" y="634" on="1"/>
        <pt x="437" y="634" on="1"/>
        <pt x="437" y="670" on="1"/>
        <pt x="437" y="687" on="0"/>
        <pt x="444" y="694" on="0"/>
        <pt x="461" y="694" on="1"/>
        <pt x="482" y="694" on="1"/>
        <pt x="499" y="694" on="0"/>
        <pt x="506" y="687" on="0"/>
        <pt x="506" y="670" on="1"/>
        <pt x="506" y="110" on="1"/>
        <pt x="506" y="100" on="0"/>
        <pt x="509" y="66" on="0"/>
        <pt x="519" y="34" on="0"/>
        <pt x="538" y="11" on="0"/>
        <pt x="555" y="11" on="1"/>
        <pt x="574" y="11" on="0"/>
        <pt x="597" y="56" on="0"/>
        <pt x="597" y="118" on="1"/>
        <pt x="597" y="129" on="1"/>
        <pt x="597" y="143" on="0"/>
        <pt x="600" y="153" on="0"/>
        <pt x="609" y="153" on="1"/>
        <pt x="612" y="153" on="0"/>
        <pt x="621" y="151" on="0"/>
        <pt x="622" y="143" on="1"/>
        <pt x="622" y="121" on="1"/>
        <pt x="622" y="60" on="0"/>
        <pt x="594" y="-11" on="0"/>
        <pt x="553" y="-11" on="1"/>
        <pt x="536" y="-11" on="0"/>
        <pt x="496" y="2" on="0"/>
        <pt x="461" y="32" on="0"/>
        <pt x="437" y="80" on="0"/>
        <pt x="437" y="114" on="1"/>
        <pt x="437" y="400" on="1"/>
        <pt x="191" y="400" on="1"/>
      </contour>
      <contour>
        <pt x="437" y="605" on="1"/>
        <pt x="434" y="600" on="0"/>
        <pt x="432" y="596" on="1"/>
        <pt x="426" y="588" on="0"/>
        <pt x="422" y="584" on="1"/>
        <pt x="408" y="573" on="0"/>
        <pt x="391" y="573" on="1"/>
        <pt x="374" y="573" on="0"/>
        <pt x="345" y="596" on="0"/>
        <pt x="345" y="619" on="1"/>
        <pt x="345" y="643" on="0"/>
        <pt x="373" y="663" on="0"/>
        <pt x="382" y="665" on="1"/>
        <pt x="369" y="672" on="0"/>
        <pt x="339" y="679" on="0"/>
        <pt x="313" y="682" on="0"/>
        <pt x="293" y="683" on="0"/>
        <pt x="289" y="683" on="1"/>
        <pt x="249" y="683" on="0"/>
        <pt x="205" y="666" on="0"/>
        <pt x="185" y="637" on="0"/>
        <pt x="182" y="598" on="0"/>
        <pt x="182" y="576" on="1"/>
        <pt x="182" y="544" on="0"/>
        <pt x="187" y="467" on="0"/>
        <pt x="189" y="431" on="1"/>
        <pt x="437" y="431" on="1"/>
      </contour>
    </TTGlyph>
    <TTGlyph name="four" xMin="43" yMin="-194" xMax="512" yMax="666">
      <contour>
        <pt x="395" y="17" on="1"/>
        <pt x="400" y="16" on="0"/>
        <pt x="411" y="16" on="0"/>
        <pt x="416" y="16" on="1"/>
        <pt x="428" y="16" on="0"/>
        <pt x="463" y="20" on="0"/>
        <pt x="486" y="28" on="1"/>
        <pt x="491" y="30" on="0"/>
        <pt x="493" y="31" on="0"/>
        <pt x="495" y="31" on="1"/>
        <pt x="500" y="31" on="0"/>
        <pt x="512" y="18" on="0"/>
        <pt x="512" y="14" on="1"/>
        <pt x="512" y="8" on="0"/>
        <pt x="490" y="-3" on="0"/>
        <pt x="460" y="-10" on="0"/>
        <pt x="427" y="-15" on="0"/>
        <pt x="416" y="-15" on="1"/>
        <pt x="411" y="-15" on="0"/>
        <pt x="400" y="-15" on="0"/>
        <pt x="395" y="-14" on="1"/>
        <pt x="395" y="-148" on="1"/>
        <pt x="395" y="-153" on="0"/>
        <pt x="394" y="-169" on="0"/>
        <pt x="387" y="-184" on="0"/>
        <pt x="373" y="-194" on="0"/>
        <pt x="360" y="-194" on="1"/>
        <pt x="347" y="-194" on="0"/>
        <pt x="333" y="-183" on="0"/>
        <pt x="327" y="-168" on="0"/>
        <pt x="326" y="-153" on="0"/>
        <pt x="326" y="-148" on="1"/>
        <pt x="326" y="1" on="1"/>
        <pt x="312" y="6" on="0"/>
        <pt x="293" y="12" on="0"/>
        <pt x="278" y="17" on="0"/>
        <pt x="265" y="21" on="0"/>
        <pt x="256" y="24" on="1"/>
        <pt x="224" y="33" on="0"/>
        <pt x="186" y="36" on="0"/>
        <pt x="170" y="36" on="1"/>
        <pt x="145" y="36" on="0"/>
        <pt x="116" y="34" on="0"/>
        <pt x="98" y="29" on="0"/>
        <pt x="88" y="21" on="0"/>
        <pt x="82" y="16" on="1"/>
        <pt x="76" y="11" on="0"/>
        <pt x="65" y="1" on="0"/>
        <pt x="60" y="1" on="1"/>
        <pt x="55" y="1" on="0"/>
        <pt x="43" y="13" on="0"/>
        <pt x="43" y="18" on="1"/>
        <pt x="43" y="31" on="0"/>
        <pt x="70" y="50" on="0"/>
        <pt x="78" y="55" on="1"/>
        <pt x="80" y="57" on="0"/>
        <pt x="125" y="105" on="0"/>
        <pt x="154" y="148" on="1"/>
        <pt x="191" y="204" on="0"/>
        <pt x="237" y="332" on="0"/>
        <pt x="262" y="457" on="0"/>
        <pt x="271" y="570" on="0"/>
        <pt x="271" y="612" on="1"/>
        <pt x="271" y="620" on="1"/>
        <pt x="271" y="625" on="0"/>
        <pt x="272" y="640" on="0"/>
        <pt x="278" y="655" on="0"/>
        <pt x="292" y="666" on="0"/>
        <pt x="305" y="666" on="1"/>
        <pt x="318" y="666" on="0"/>
        <pt x="332" y="656" on="0"/>
        <pt x="339" y="641" on="0"/>
        <pt x="340" y="624" on="0"/>
        <pt x="340" y="618" on="1"/>
        <pt x="340" y="465" on="0"/>
        <pt x="236" y="181" on="0"/>
        <pt x="134" y="66" on="1"/>
        <pt x="141" y="67" on="0"/>
        <pt x="161" y="67" on="0"/>
        <pt x="169" y="67" on="1"/>
        <pt x="187" y="67" on="0"/>
        <pt x="214" y="65" on="0"/>
        <pt x="246" y="58" on="0"/>
        <pt x="291" y="45" on="0"/>
        <pt x="326" y="33" on="1"/>
        <pt x="326" y="196" on="1"/>
        <pt x="326" y="201" on="0"/>
        <pt x="327" y="216" on="0"/>
        <pt x="333" y="231" on="0"/>
        <pt x="347" y="242" on="0"/>
        <pt x="360" y="242" on="1"/>
        <pt x="373" y="242" on="0"/>
        <pt x="387" y="232" on="0"/>
        <pt x="394" y="217" on="0"/>
        <pt x="395" y="201" on="0"/>
        <pt x="395" y="196" on="1"/>
      </contour>
    </TTGlyph>
    <TTGlyph name="g" xMin="70" yMin="-205" xMax="422" yMax="442">
      <contour>
        <pt x="422" y="-58" on="1"/>
        <pt x="422" y="-94" on="0"/>
        <pt x="393" y="-149" on="0"/>
        <pt x="344" y="-186" on="0"/>
        <pt x="279" y="-205" on="0"/>
        <pt x="242" y="-205" on="1"/>
        <pt x="221" y="-205" on="0"/>
        <pt x="169" y="-201" on="0"/>
        <pt x="124" y="-186" on="0"/>
        <pt x="93" y="-156" on="0"/>
        <pt x="93" y="-130" on="1"/>
        <pt x="93" y="-104" on="0"/>
        <pt x="125" y="-83" on="0"/>
        <pt x="139" y="-83" on="1"/>
        <pt x="156" y="-83" on="0"/>
        <pt x="185" y="-106" on="0"/>
        <pt x="185" y="-129" on="1"/>
        <pt x="185" y="-141" on="0"/>
        <pt x="176" y="-158" on="0"/>
        <pt x="165" y="-168" on="0"/>
        <pt x="156" y="-173" on="0"/>
        <pt x="155" y="-173" on="1"/>
        <pt x="172" y="-178" on="0"/>
        <pt x="217" y="-183" on="0"/>
        <pt x="240" y="-183" on="1"/>
        <pt x="272" y="-183" on="0"/>
        <pt x="315" y="-160" on="0"/>
        <pt x="342" y="-124" on="0"/>
        <pt x="353" y="-80" on="0"/>
        <pt x="353" y="-58" on="1"/>
        <pt x="353" y="59" on="1"/>
        <pt x="330" y="30" on="0"/>
        <pt x="278" y="0" on="0"/>
        <pt x="248" y="0" on="1"/>
        <pt x="214" y="0" on="0"/>
        <pt x="150" y="33" on="0"/>
        <pt x="100" y="91" on="0"/>
        <pt x="70" y="172" on="0"/>
        <pt x="70" y="221" on="1"/>
        <pt x="70" y="270" on="0"/>
        <pt x="100" y="351" on="0"/>
        <pt x="150" y="410" on="0"/>
        <pt x="214" y="442" on="0"/>
        <pt x="248" y="442" on="1"/>
        <pt x="281" y="442" on="0"/>
        <pt x="332" y="409" on="0"/>
        <pt x="352" y="383" on="1"/>
        <pt x="352" y="397" on="0"/>
        <pt x="369" y="422" on="0"/>
        <pt x="387" y="422" on="1"/>
        <pt x="400" y="422" on="0"/>
        <pt x="414" y="412" on="0"/>
        <pt x="421" y="397" on="0"/>
        <pt x="422" y="381" on="0"/>
        <pt x="422" y="376" on="1"/>
      </contour>
      <contour>
        <pt x="353" y="317" on="1"/>
        <pt x="353" y="334" on="0"/>
        <pt x="338" y="365" on="0"/>
        <pt x="319" y="386" on="1"/>
        <pt x="318" y="387" on="0"/>
        <pt x="307" y="398" on="0"/>
        <pt x="289" y="410" on="0"/>
        <pt x="265" y="420" on="0"/>
        <pt x="250" y="420" on="1"/>
        <pt x="219" y="420" on="0"/>
        <pt x="178" y="374" on="0"/>
        <pt x="169" y="349" on="1"/>
        <pt x="157" y="318" on="0"/>
        <pt x="153" y="252" on="0"/>
        <pt x="153" y="221" on="1"/>
        <pt x="153" y="186" on="0"/>
        <pt x="158" y="119" on="0"/>
        <pt x="170" y="88" on="1"/>
        <pt x="173" y="80" on="0"/>
        <pt x="187" y="58" on="0"/>
        <pt x="206" y="37" on="0"/>
        <pt x="233" y="22" on="0"/>
        <pt x="250" y="22" on="1"/>
        <pt x="264" y="22" on="0"/>
        <pt x="287" y="30" on="0"/>
        <pt x="305" y="42" on="0"/>
        <pt x="318" y="54" on="0"/>
        <pt x="321" y="57" on="1"/>
        <pt x="345" y="85" on="0"/>
        <pt x="353" y="115" on="0"/>
        <pt x="353" y="125" on="1"/>
      </contour>
    </TTGlyph>
    <TTGlyph name="germandbls" xMin="14" yMin="-205" xMax="526" yMax="705">
      <contour>
        <pt x="211" y="84" on="1"/>
        <pt x="212" y="72" on="0"/>
        <pt x="212" y="30" on="0"/>
        <pt x="212" y="17" on="1"/>
        <pt x="212" y="3" on="0"/>
        <pt x="212" y="-32" on="0"/>
        <pt x="209" y="-70" on="0"/>
        <pt x="202" y="-107" on="0"/>
        <pt x="196" y="-123" on="1"/>
        <pt x="191" y="-137" on="0"/>
        <pt x="173" y="-166" on="0"/>
        <pt x="149" y="-190" on="0"/>
        <pt x="118" y="-205" on="0"/>
        <pt x="99" y="-205" on="1"/>
        <pt x="81" y="-205" on="0"/>
        <pt x="50" y="-191" on="0"/>
        <pt x="27" y="-168" on="0"/>
        <pt x="14" y="-137" on="0"/>
        <pt x="14" y="-120" on="1"/>
        <pt x="14" y="-94" on="0"/>
        <pt x="46" y="-73" on="0"/>
        <pt x="60" y="-73" on="1"/>
        <pt x="77" y="-73" on="0"/>
        <pt x="106" y="-96" on="0"/>
        <pt x="106" y="-119" on="1"/>
        <pt x="106" y="-132" on="0"/>
        <pt x="89" y="-163" on="0"/>
        <pt x="58" y="-165" on="1"/>
        <pt x="68" y="-176" on="0"/>
        <pt x="90" y="-183" on="0"/>
        <pt x="98" y="-183" on="1"/>
        <pt x="121" y="-183" on="0"/>
        <pt x="149" y="-136" on="0"/>
        <pt x="149" y="-84" on="1"/>
        <pt x="149" y="-60" on="0"/>
        <pt x="147" y="-10" on="0"/>
        <pt x="145" y="15" on="1"/>
        <pt x="122" y="400" on="1"/>
        <pt x="36" y="400" on="1"/>
        <pt x="36" y="431" on="1"/>
        <pt x="120" y="431" on="1"/>
        <pt x="118" y="456" on="0"/>
        <pt x="114" y="519" on="0"/>
        <pt x="114" y="543" on="1"/>
        <pt x="114" y="632" on="0"/>
        <pt x="201" y="705" on="0"/>
        <pt x="289" y="705" on="1"/>
        <pt x="331" y="705" on="0"/>
        <pt x="398" y="682" on="0"/>
        <pt x="445" y="643" on="0"/>
        <pt x="471" y="592" on="0"/>
        <pt x="471" y="564" on="1"/>
        <pt x="471" y="541" on="0"/>
        <pt x="446" y="475" on="0"/>
        <pt x="415" y="419" on="1"/>
        <pt x="403" y="396" on="0"/>
        <pt x="387" y="363" on="0"/>
        <pt x="387" y="348" on="1"/>
        <pt x="387" y="338" on="0"/>
        <pt x="401" y="315" on="0"/>
        <pt x="420" y="294" on="0"/>
        <pt x="440" y="275" on="0"/>
        <pt x="447" y="269" on="1"/>
        <pt x="458" y="259" on="0"/>
        <pt x="486" y="233" on="0"/>
        <pt x="510" y="200" on="0"/>
        <pt x="526" y="161" on="0"/>
        <pt x="526" y="138" on="1"/>
        <pt x="526" y="108" on="0"/>
        <pt x="502" y="53" on="0"/>
        <pt x="460" y="13" on="0"/>
        <pt x="404" y="-11" on="0"/>
        <pt x="372" y="-11" on="1"/>
        <pt x="348" y="-11" on="0"/>
        <pt x="304" y="1" on="0"/>
        <pt x="269" y="25" on="0"/>
        <pt x="248" y="59" on="0"/>
        <pt x="248" y="80" on="1"/>
        <pt x="248" y="99" on="0"/>
        <pt x="270" y="114" on="0"/>
        <pt x="281" y="114" on="1"/>
        <pt x="287" y="114" on="0"/>
        <pt x="313" y="101" on="0"/>
        <pt x="313" y="81" on="1"/>
        <pt x="313" y="68" on="0"/>
        <pt x="296" y="50" on="0"/>
        <pt x="284" y="48" on="1"/>
        <pt x="295" y="35" on="0"/>
        <pt x="321" y="20" on="0"/>
        <pt x="346" y="13" on="0"/>
        <pt x="366" y="11" on="0"/>
        <pt x="370" y="11" on="1"/>
        <pt x="397" y="11" on="0"/>
        <pt x="427" y="47" on="0"/>
        <pt x="441" y="92" on="0"/>
        <pt x="443" y="131" on="0"/>
        <pt x="443" y="134" on="1"/>
        <pt x="443" y="158" on="0"/>
        <pt x="423" y="197" on="0"/>
        <pt x="397" y="222" on="1"/>
        <pt x="378" y="240" on="0"/>
        <pt x="356" y="278" on="0"/>
        <pt x="347" y="311" on="0"/>
        <pt x="345" y="337" on="0"/>
        <pt x="345" y="342" on="1"/>
        <pt x="345" y="349" on="0"/>
        <pt x="346" y="362" on="0"/>
        <pt x="352" y="380" on="0"/>
        <pt x="366" y="404" on="0"/>
        <pt x="379" y="421" on="1"/>
        <pt x="384" y="427" on="0"/>
        <pt x="392" y="440" on="0"/>
        <pt x="398" y="466" on="0"/>
        <pt x="402" y="510" on="0"/>
        <pt x="402" y="545" on="1"/>
        <pt x="402" y="589" on="0"/>
        <pt x="378" y="643" on="0"/>
        <pt x="343" y="673" on="0"/>
        <pt x="304" y="683" on="0"/>
        <pt x="289" y="683" on="1"/>
        <pt x="256" y="683" on="0"/>
        <pt x="216" y="670" on="0"/>
        <pt x="204" y="659" on="1"/>
        <pt x="198" y="655" on="0"/>
        <pt x="190" y="644" on="0"/>
        <pt x="185" y="626" on="0"/>
        <pt x="182" y="597" on="0"/>
        <pt x="182" y="573" on="1"/>
        <pt x="182" y="561" on="0"/>
        <pt x="182" y="540" on="0"/>
        <pt x="183" y="528" on="1"/>
      </contour>
    </TTGlyph>
    <TTGlyph name="grave" xMin="135" yMin="510" xMax="321" yMax="698">
      <contour>
        <pt x="152" y="632" on="1"/>
        <pt x="135" y="646" on="0"/>
        <pt x="135" y="662" on="1"/>
        <pt x="135" y="676" on="0"/>
        <pt x="157" y="698" on="0"/>
        <pt x="171" y="698" on="1"/>
        <pt x="183" y="698" on="0"/>
        <pt x="199" y="684" on="0"/>
        <pt x="201" y="681" on="1"/>
        <pt x="321" y="527" on="1"/>
        <pt x="303" y="510" on="1"/>
      </contour>
    </TTGlyph>
    <TTGlyph name="h" xMin="-1" yMin="-11" xMax="539" yMax="694">
      <contour>
        <pt x="146" y="364" on="1"/>
        <pt x="169" y="406" on="0"/>
        <pt x="238" y="442" on="0"/>
        <pt x="278" y="442" on="1"/>
        <pt x="332" y="442" on="0"/>
        <pt x="391" y="397" on="0"/>
        <pt x="418" y="339" on="0"/>
        <pt x="423" y="284" on="0"/>
        <pt x="423" y="274" on="1"/>
        <pt x="423" y="271" on="0"/>
        <pt x="420" y="194" on="0"/>
        <pt x="412" y="130" on="1"/>
        <pt x="410" y="113" on="0"/>
        <pt x="407" y="89" on="0"/>
        <pt x="407" y="79" on="1"/>
        <pt x="407" y="69" on="0"/>
        <pt x="410" y="45" on="0"/>
        <pt x="418" y="24" on="0"/>
        <pt x="433" y="11" on="0"/>
        <pt x="445" y="11" on="1"/>
        <pt x="469" y="11" on="0"/>
        <pt x="496" y="44" on="0"/>
        <pt x="510" y="87" on="0"/>
        <pt x="514" y="128" on="0"/>
        <pt x="514" y="137" on="1"/>
        <pt x="514" y="144" on="0"/>
        <pt x="518" y="153" on="0"/>
        <pt x="526" y="153" on="1"/>
        <pt x="536" y="153" on="0"/>
        <pt x="539" y="143" on="0"/>
        <pt x="539" y="135" on="1"/>
        <pt x="539" y="129" on="0"/>
        <pt x="535" y="82" on="0"/>
        <pt x="516" y="30" on="0"/>
        <pt x="477" y="-11" on="0"/>
        <pt x="443" y="-11" on="1"/>
        <pt x="421" y="-11" on="0"/>
        <pt x="383" y="6" on="0"/>
        <pt x="355" y="35" on="0"/>
        <pt x="339" y="74" on="0"/>
        <pt x="339" y="95" on="1"/>
        <pt x="339" y="99" on="0"/>
        <pt x="341" y="116" on="0"/>
        <pt x="342" y="123" on="1"/>
        <pt x="351" y="192" on="0"/>
        <pt x="354" y="270" on="0"/>
        <pt x="354" y="277" on="1"/>
        <pt x="354" y="288" on="0"/>
        <pt x="352" y="335" on="0"/>
        <pt x="337" y="383" on="0"/>
        <pt x="305" y="420" on="0"/>
        <pt x="275" y="420" on="1"/>
        <pt x="239" y="420" on="0"/>
        <pt x="190" y="389" on="0"/>
        <pt x="159" y="345" on="0"/>
        <pt x="146" y="300" on="0"/>
        <pt x="146" y="286" on="1"/>
        <pt x="146" y="34" on="1"/>
        <pt x="146" y="29" on="0"/>
        <pt x="145" y="14" on="0"/>
        <pt x="138" y="-1" on="0"/>
        <pt x="124" y="-11" on="0"/>
        <pt x="111" y="-11" on="1"/>
        <pt x="98" y="-11" on="0"/>
        <pt x="84" y="0" on="0"/>
        <pt x="78" y="14" on="0"/>
        <pt x="77" y="30" on="0"/>
        <pt x="77" y="34" on="1"/>
        <pt x="77" y="596" on="1"/>
        <pt x="77" y="614" on="0"/>
        <pt x="72" y="636" on="0"/>
        <pt x="56" y="648" on="0"/>
        <pt x="25" y="652" on="0"/>
        <pt x="-1" y="652" on="1"/>
        <pt x="-1" y="683" on="1"/>
        <pt x="146" y="694" on="1"/>
      </contour>
    </TTGlyph>
</ttFont>
